<?xml version="1.0" encoding="utf-8"?><svg xmlns="http://www.w3.org/2000/svg" xmlns:xlink="http://www.w3.org/1999/xlink"><symbol viewBox="0 0 22 28" id="icons--center--alert" xmlns="http://www.w3.org/2000/svg"><path d="M20.927 21.783l-1.716-2.94a8.92 8.92 0 01-1.214-4.49V11.78c0-3.248-2.114-5.996-5.001-6.881V3.055C13 1.919 12.1 1 10.999 1c-1.102 0-2.002.92-2.002 2.055v1.843c-2.887.885-4.996 3.633-4.996 6.88v2.575a8.903 8.903 0 01-1.21 4.49l-1.72 2.935a.527.527 0 00-.005.52.5.5 0 00.436.26H20.5a.506.506 0 00.436-.26.518.518 0 00-.01-.515zM14.271 22.824a3.273 3.273 0 11-6.545 0"/></symbol><symbol viewBox="0 0 14 16" id="icons--center--play" xmlns="http://www.w3.org/2000/svg"><path d="M14 8L.5 15.794V.206L14 8z"/></symbol><symbol viewBox="0 0 20 20" id="icons--center--search" xmlns="http://www.w3.org/2000/svg"><path d="M13.84 5.556a5.857 5.857 0 11-8.284 8.283 5.857 5.857 0 018.283-8.283z"/></symbol><symbol viewBox="0 0 606.877 606.877" id="icons--left--four" xmlns="http://www.w3.org/2000/svg"><path d="M58.64 280.154h162.654c32.058 0 58.14-26.082 58.14-58.14V59.36c0-32.059-26.082-58.14-58.14-58.14H58.64C26.582 1.22.5 27.301.5 59.36v162.654c0 32.058 26.082 58.14 58.14 58.14zM43.34 59.36c0-8.45 6.85-15.3 15.3-15.3h162.654c8.45 0 15.3 6.85 15.3 15.3v162.654c0 8.45-6.85 15.3-15.3 15.3H58.64c-8.45 0-15.3-6.85-15.3-15.3V59.36z"/><path d="M221.294 280.654H58.64c-32.334 0-58.64-26.306-58.64-58.64V59.36C0 27.025 26.306.72 58.64.72h162.654c32.334 0 58.64 26.306 58.64 58.64v162.654c0 32.334-26.306 58.64-58.64 58.64zM58.64 1.72C26.857 1.72 1 27.577 1 59.36v162.654c0 31.783 25.857 57.64 57.64 57.64h162.654c31.783 0 57.64-25.857 57.64-57.64V59.36c0-31.783-25.857-57.64-57.64-57.64H58.64zm162.654 236.093H58.64c-8.712 0-15.8-7.088-15.8-15.8V59.36c0-8.712 7.088-15.8 15.8-15.8h162.654c8.712 0 15.8 7.088 15.8 15.8v162.654c0 8.712-7.088 15.799-15.8 15.799zM58.64 44.56c-8.161 0-14.8 6.639-14.8 14.8v162.654c0 8.161 6.639 14.8 14.8 14.8h162.654c8.161 0 14.8-6.639 14.8-14.8V59.36c0-8.161-6.639-14.8-14.8-14.8H58.64zM548.238 1.22H385.584c-32.059 0-58.141 26.082-58.141 58.14v162.654c0 32.058 26.082 58.14 58.141 58.14h162.654c32.059 0 58.139-26.082 58.139-58.14V59.36c0-32.059-26.08-58.14-58.139-58.14zm15.299 220.794c0 8.45-6.85 15.3-15.299 15.3H385.584c-8.449 0-15.301-6.85-15.301-15.3V59.36c0-8.45 6.852-15.3 15.301-15.3h162.654c8.449 0 15.299 6.85 15.299 15.3v162.654z"/><path d="M548.238 280.654H385.584c-32.335 0-58.641-26.306-58.641-58.64V59.36c0-32.334 26.306-58.64 58.641-58.64h162.654c32.333 0 58.639 26.306 58.639 58.64v162.654c0 32.334-26.306 58.64-58.639 58.64zM385.584 1.72c-31.783 0-57.641 25.857-57.641 57.64v162.654c0 31.783 25.857 57.64 57.641 57.64h162.654c31.782 0 57.639-25.857 57.639-57.64V59.36c0-31.783-25.856-57.64-57.639-57.64H385.584zm162.654 236.093H385.584c-8.713 0-15.801-7.088-15.801-15.8V59.36c0-8.712 7.088-15.8 15.801-15.8h162.654c8.712 0 15.799 7.088 15.799 15.8v162.654c0 8.712-7.087 15.799-15.799 15.799zM385.584 44.56c-8.161 0-14.801 6.639-14.801 14.8v162.654c0 8.161 6.64 14.8 14.801 14.8h162.654c8.16 0 14.799-6.639 14.799-14.8V59.36c0-8.161-6.639-14.8-14.799-14.8H385.584zM58.64 605.657h162.654c32.058 0 58.14-26.08 58.14-58.139V384.864c0-32.059-26.082-58.141-58.14-58.141H58.64C26.582 326.723.5 352.805.5 384.864v162.654c0 32.059 26.082 58.139 58.14 58.139zm-15.3-220.793c0-8.449 6.85-15.301 15.3-15.301h162.654c8.45 0 15.3 6.852 15.3 15.301v162.654c0 8.449-6.85 15.299-15.3 15.299H58.64c-8.45 0-15.3-6.85-15.3-15.299V384.864z"/><path d="M221.294 606.157H58.64C26.306 606.157 0 579.852 0 547.519V384.864c0-32.335 26.306-58.641 58.64-58.641h162.654c32.334 0 58.64 26.306 58.64 58.641v162.654c0 32.334-26.306 58.639-58.64 58.639zM58.64 327.224c-31.783 0-57.64 25.857-57.64 57.64v162.654c0 31.782 25.857 57.639 57.64 57.639h162.654c31.783 0 57.64-25.856 57.64-57.639V384.864c0-31.783-25.857-57.641-57.64-57.641H58.64zm162.654 236.093H58.64c-8.712 0-15.8-7.087-15.8-15.799V384.864c0-8.713 7.088-15.801 15.8-15.801h162.654c8.712 0 15.8 7.088 15.8 15.801v162.654c0 8.712-7.088 15.799-15.8 15.799zM58.64 370.063c-8.161 0-14.8 6.64-14.8 14.801v162.654c0 8.16 6.639 14.799 14.8 14.799h162.654c8.161 0 14.8-6.639 14.8-14.799V384.864c0-8.161-6.639-14.801-14.8-14.801H58.64zm489.598-43.339H385.584c-32.059 0-58.141 26.082-58.141 58.141v162.654c0 32.059 26.082 58.139 58.141 58.139h162.654c32.059 0 58.139-26.08 58.139-58.139V384.864c0-32.058-26.08-58.14-58.139-58.14zm15.299 220.795c0 8.449-6.85 15.299-15.299 15.299H385.584c-8.449 0-15.301-6.85-15.301-15.299V384.864c0-8.449 6.852-15.301 15.301-15.301h162.654c8.449 0 15.299 6.852 15.299 15.301v162.655z"/><path d="M548.238 606.157H385.584c-32.335 0-58.641-26.306-58.641-58.639V384.864c0-32.335 26.306-58.641 58.641-58.641h162.654c32.333 0 58.639 26.306 58.639 58.641v162.654c0 32.334-26.306 58.639-58.639 58.639zM385.584 327.224c-31.783 0-57.641 25.857-57.641 57.641v162.654c0 31.782 25.857 57.639 57.641 57.639h162.654c31.782 0 57.639-25.856 57.639-57.639V384.864c0-31.783-25.856-57.641-57.639-57.641H385.584zm162.654 236.093H385.584c-8.713 0-15.801-7.087-15.801-15.799V384.864c0-8.713 7.088-15.801 15.801-15.801h162.654c8.712 0 15.799 7.088 15.799 15.801v162.654c0 8.712-7.087 15.799-15.799 15.799zM385.584 370.063c-8.161 0-14.801 6.64-14.801 14.801v162.654c0 8.16 6.64 14.799 14.801 14.799h162.654c8.16 0 14.799-6.639 14.799-14.799V384.864c0-8.161-6.639-14.801-14.799-14.801H385.584z"/></symbol><symbol viewBox="0 0 18 11" id="icons--right--d-1" xmlns="http://www.w3.org/2000/svg"><path opacity=".25" d="M1.948.39l15.195 8.649c.467.312.78.623.78 1.013 0-.39-.235-.78-.78-1.09L1.948.233C.858-.39 0 .156 0 1.403v.078C0 .234.857-.234 1.948.39z"/></symbol><symbol viewBox="0 0 19 21" id="icons--right--d-2" xmlns="http://www.w3.org/2000/svg"><g clip-path="url(#fclip0)"><path d="M0 11.746v-.809c0-.026.013-.052.013-.078.014-.209.027-.418.054-.64.12-.887.388-1.735.857-2.506.736-1.213 1.78-2.049 3.172-2.466a4.866 4.866 0 011.74-.21c.415.04.803.131 1.204.262.522.17 1.044.352 1.566.522.389.13.777.157 1.165.013.495-.183.99-.34 1.499-.509a6.702 6.702 0 011.673-.352c.522-.04 1.044.039 1.553.143 1.044.222 1.954.692 2.677 1.462.147.157.267.313.401.47-.147.104-.294.183-.428.274-.616.43-1.138.953-1.486 1.618-.535 1.031-.629 2.115-.361 3.211.375 1.54 1.392 2.558 2.85 3.21v.04l-.04.078c-.16.392-.307.783-.481 1.162-.429.94-1.018 1.788-1.673 2.584-.335.418-.71.822-1.151 1.148-.442.314-.924.523-1.473.575-.428.026-.843-.052-1.245-.17-.374-.117-.736-.26-1.11-.391-.51-.17-1.045-.274-1.593-.248-.562.013-1.098.143-1.62.326-.415.143-.83.287-1.245.418-.16.052-.334.065-.495.104h-.468c-.014 0-.014-.013-.027-.013-.455-.052-.857-.248-1.218-.51-.442-.312-.817-.704-1.165-1.121a13.172 13.172 0 01-2.556-4.53 12.681 12.681 0 01-.562-2.727c0-.105-.014-.222-.027-.34z"/><path d="M13.585 0c0 .235.014.47 0 .705-.026.626-.214 1.2-.522 1.749a5.507 5.507 0 01-2.047 2.075 3.509 3.509 0 01-1.807.457c-.08 0-.12-.013-.134-.118a3.904 3.904 0 01.401-2.023C10.2 1.37 11.377.47 12.983.078c.16-.039.308-.052.469-.078h.133z"/></g><defs><clipPath id="fclip0"><path d="M0 0h18.136v21H0z"/></clipPath></defs></symbol><symbol viewBox="0 0 119 162" id="icons--right--d-3" xmlns="http://www.w3.org/2000/svg"><path d="M59.557 4.273c-7.873.462-10.953 8.662-11.866 10.51-.913 1.848-1.027 3.926-1.255 6.005-.228 2.08-.456 4.158-1.483 6.006-1.711 2.772-5.362 4.273-6.39 7.391-1.14 3.58 1.712 7.276 1.028 10.972-.457 1.963-1.826 3.58-2.282 5.544-.57 1.963 0 4.157 1.027 6.005 2.624 4.504 7.872 6.699 13.006 6.93 5.135.23 10.155-1.386 14.947-2.888m27.724-46.196c-.798 1.732 0 3.696 1.141 5.082 1.255 1.385 2.853 2.31 4.222 3.464 1.369 1.155 2.738 2.657 2.852 4.504.114 1.733-.684 3.35-.456 5.082.57 4.273 7.416 5.659 7.758 9.932.228 2.888-2.738 5.544-1.825 8.316.342 1.039 1.141 1.847 1.711 2.887 1.94 3.234.571 7.738-2.168 10.278-2.852 2.541-6.731 3.465-10.382 3.58-3.195.116-6.732-.346-8.557-3.002-1.712-2.31-1.37-5.544-1.027-8.43 1.597-13.513 1.369-27.257 1.027-40.885"/><path d="M61.61 77.148c.115-7.16 0-14.552 0-14.552s-9.013-1.617-10.724-13.628c-1.712-11.433 1.14-36.033 1.14-36.033 13.122-5.197 27.84-3.234 36.967 7.507l-1.369 57.745c-.114 6.699-6.047 11.896-13.12 11.665-7.189-.23-12.893-5.89-12.893-12.704z"/><path d="M54.423 31.76c0 .808.57 1.501 1.483 1.617.799 0 1.483-.578 1.597-1.386 0-.808-.57-1.501-1.483-1.617-.799 0-1.483.578-1.597 1.386z"/><path d="M52.027 30.605c.228.231 1.369-.693 2.966-.577 3.08.462 2.967.924 2.967.693.114-.116-.114-.462-.57-.809-.457-.346-1.37-.808-2.397-.808a4.552 4.552 0 00-2.396.693c-.456.346-.684.693-.57.808zm19.168 1.732c0 .809.57 1.502 1.483 1.617.798 0 1.483-.577 1.597-1.386 0-.808-.57-1.5-1.483-1.616a1.393 1.393 0 00-1.597 1.385z"/><path d="M69.027 31.183c.228.23 1.369-.693 2.966-.578 1.598 0 2.853.809 2.967.693.114-.115-.114-.462-.57-.808-.457-.347-1.37-.809-2.397-.809a4.552 4.552 0 00-2.396.693c-.456.347-.684.693-.57.809zM62.98 43.078c0-.115-1.027-.23-2.624-.462-.457 0-.799-.115-.913-.462-.114-.346.114-.808.342-1.27.457-1.04.799-2.079 1.255-3.234 1.712-4.504 3.08-8.315 2.853-8.315-.229-.116-1.712 3.58-3.537 8.084-.457 1.155-.799 2.194-1.255 3.234-.114.462-.457 1.04-.229 1.617.114.346.457.577.685.577.228.116.456.116.684.116 1.712.115 2.739.115 2.739.115zM61.61 62.48s7.987.578 15.86-4.041c0 0-3.88 8.2-15.745 6.929l-.114-2.887zm2.054-15.475c.57-.809 1.598-1.155 2.624-1.04.685.116 1.37.462 1.826 1.04.456.577.456 1.386.114 1.963-.456.578-1.369.809-2.168.578-.798-.231-1.483-.809-2.053-1.27-.229-.116-.343-.347-.457-.463-.114-.346-.114-.577.114-.808z"/><path d="M67.772 44.233c-.228 0-.343 1.732-1.826 3.003-1.483 1.27-3.423 1.04-3.423 1.27 0 .116.457.347 1.255.347.8 0 1.94-.231 2.853-.924C67.544 47.12 68 46.08 68 45.388c.114-.693-.114-1.155-.228-1.155zm16.087-32.337c-4.336 6.236-15.745 12.704-23.96 14.09.913-1.27 5.933-4.39 6.96-5.66-3.765 2.772-9.013 6.583-13.92 6.814-.57 0-1.255 0-1.71-.23-.685-.347-.8-1.155-.914-1.848-.342-2.888-.114-7.97.343-10.857.456-2.887 1.825-5.774 4.221-7.737 3.195-2.426 7.644-3.119 11.98-3.234 3.537-.116 7.302.115 10.497 1.386 3.308 1.27 6.047 3.926 6.503 6.93"/><path d="M96.295 39.844c.57-3.118 1.027-6.005 1.141-7.969.342-6.12-1.369-28.872-22.362-27.14l-.913 6.468s-3.195 22.174 10.382 22.29c0 0 .8 6.582 6.96 13.05-.114 0 3.423-.116 4.792-6.699z"/><path d="M84.544 33.492c1.255-.23 2.624-.23 3.765.347 1.14.462 2.282 1.386 2.738 2.54.456 1.156.456 2.541 0 3.812-.456 1.27-1.255 2.31-2.168 3.234-.684.693-1.369 1.27-2.282 1.501-.912.231-1.94.115-2.624-.462"/><path d="M85.114 41.346c-.114 0 .342.808 1.597.577.57-.115 1.141-.577 1.484-1.27.342-.578.57-1.27.684-2.079.114-.808-.114-1.617-.456-2.31-.457-.577-1.027-1.04-1.598-1.04-1.14 0-1.597.81-1.483.81.114.115.57-.347 1.37-.116.798.115 1.483 1.155 1.254 2.54-.114 1.27-.684 2.541-1.369 2.772-.912.347-1.369 0-1.483.116zM86.825 9.586c1.598.924 3.537 1.155 5.363.693 1.825-.462 3.423-1.733 4.335-3.35.57-1.039.913-2.31.685-3.464-.456-1.617-1.94-2.657-3.537-3.119-2.282-.577-4.906 0-6.617 1.617-1.712 1.617-2.51 4.274-1.712 6.583.799 2.31 3.08 3.927 5.477 3.812m-2.054 31.644c-1.14.808-2.396 1.732-3.309 2.887-.912 1.155-1.597 2.541-1.369 4.042.114.809.343 1.617.228 2.426-.114 1.155-1.026 1.963-1.711 2.887-1.483 2.425-.913 5.89 1.027 7.969 1.94 2.079 4.906 3.118 7.758 3.234 1.712 0 3.423-.231 4.792-1.155 1.94-1.386 2.738-4.042 2.738-6.468"/><path d="M90.134 14.32c.114 0-.342.925-1.255 2.195-.913 1.27-2.282 2.887-3.993 4.504-1.826 1.502-3.651 2.657-5.02 3.35-1.37.692-2.282.924-2.282.924-.114-.232 3.423-1.617 6.96-4.736 3.422-3.118 5.476-6.352 5.59-6.236zm2.168-.115c.114 0 0 1.155-.342 2.888-.457 1.732-1.255 4.157-2.624 6.583-1.484 2.425-3.081 4.273-4.45 5.428-1.37 1.155-2.282 1.732-2.396 1.732-.114-.115 3.537-2.772 6.39-7.507 2.737-4.62 3.194-9.24 3.422-9.124zm-45.638 9.586c.228 0 .457 1.963 1.027 4.389.685 2.31 1.483 4.157 1.37 4.273-.115.115-1.256-1.617-1.94-4.042-.57-2.541-.57-4.62-.457-4.62zm50.43 40.884c0-.115.57.577 1.711.577.57 0 1.369-.115 2.054-.692.685-.463 1.255-1.27 1.483-2.31.228-1.04.228-2.195 0-3.465s-.684-2.54-1.141-3.927c-.456-1.386-.798-3.002-.456-4.62.228-1.732 1.369-3.118 1.825-4.619.571-1.501.343-3.234-.342-4.504-.684-1.502-1.825-2.425-3.194-3.003a9.95 9.95 0 01-1.94-.924c-.57-.346-1.255-.808-1.597-1.386-.685-1.27-.685-2.54-.685-3.58 0-1.155.114-2.079-.114-2.887-.228-.809-.456-1.502-.913-1.964-.798-.923-1.597-.924-1.483-.924h.456c.343.116.799.347 1.255.809.457.462.799 1.155 1.027 2.079.228.924.228 1.963.228 3.002 0 1.04 0 2.31.685 3.35.684 1.04 1.94 1.501 3.309 2.079 1.369.462 2.738 1.616 3.422 3.118.685 1.501 1.027 3.35.343 4.966-.571 1.617-1.598 3.003-1.826 4.504-.228 1.502.114 3.003.457 4.389.456 1.386.912 2.771 1.141 4.042.228 1.27.228 2.54-.115 3.696-.342 1.154-.912 1.963-1.711 2.54-.799.462-1.597.693-2.168.578-.684 0-1.14-.231-1.369-.462-.342-.347-.342-.462-.342-.462zm-8.329-.808s.114.346.685.577c.456.231 1.597.231 2.167-.578.57-.923.57-2.31-.228-3.58-.684-1.27-1.94-2.54-2.282-4.504-.228-.924 0-1.963.685-2.656.57-.693 1.255-1.155 1.597-1.732.913-1.155.913-2.541.799-3.696-.114-1.155-.457-1.964-.685-2.657-.228-.577-.342-.923-.228-.923 0 0 .228.346.456.923.229.578.685 1.502.8 2.657.227 1.155.227 2.772-.8 4.042-.456.693-1.14 1.155-1.597 1.732-.456.578-.684 1.386-.456 2.195.228 1.616 1.483 2.887 2.168 4.388.684 1.386.798 3.119 0 4.158-.343.577-1.027.808-1.484.808-.456 0-.912 0-1.255-.23-.342-.462-.342-.924-.342-.924zM44.04 60.864l-.913-.924c-.57-.693-1.369-1.617-1.94-3.003-.341-.693-.456-1.617-.456-2.54a4.4 4.4 0 011.027-2.773c.685-.808 1.712-1.27 2.396-2.078.685-.809.685-1.848.457-3.003-.228-1.04-.799-2.079-1.255-3.003-.457-.924-.913-1.963-1.141-3.003-.229-1.04 0-2.194.57-2.887.57-.808 1.141-1.27 1.712-1.848 1.14-.924 1.825-1.963 1.94-2.772.113-.808-.115-1.27 0-1.27 0 0 .113.115.227.346.114.231.114.578.114 1.04-.114.924-.798 2.079-1.94 3.118-.57.578-1.14 1.04-1.596 1.848-.457.693-.685 1.617-.457 2.54.114.925.57 1.849 1.141 2.888.456.924 1.027 1.963 1.37 3.234.227 1.155.227 2.54-.571 3.465-.799.924-1.826 1.27-2.396 2.078-.57.693-.913 1.617-.913 2.426 0 .808.114 1.617.342 2.31.57 1.385 1.255 2.31 1.826 3.002.228.347.57.809.456.809zM91.617 11.087c-.114.116-.912-1.732-2.738-3.003-1.825-1.386-3.65-1.732-3.65-1.847 0-.116 2.053-.116 3.992 1.385 1.94 1.386 2.625 3.465 2.396 3.465zM93.329 0c.114 0 .456.462.799 1.27.342.924.456 2.195.114 3.696-.343 1.386-1.255 2.54-1.94 3.118-.685.578-1.255.809-1.255.693 0-.115.456-.346 1.027-1.04.57-.692 1.255-1.616 1.711-2.886.343-1.27.228-2.541.114-3.35C93.443.577 93.215 0 93.33 0zM8.5 140l15.574-36.675 19.624 12.473L30 140H8.5z"/><path d="M40.731 77.379c9.128-4.85 20.88-6.237 20.88-6.237 3.423 6.93 14.261 7.854 20.765 3.119l5.476-3.811s.799 0 2.282.115c12.893 1.155 23.504 10.856 26.128 23.791.912 4.62 1.711 10.048 1.369 15.014-.685 12.588-13.577 13.743-13.577 13.743S103.799 128.952 103 139c-7 0-4.88-.618-11.725 2.5-5.02 2.31-.463-2.5-17.275-2.5H43c1.94-12.011-5.12-15.194-5.349-15.887v-.231l-12.779-11.549-7.302-6.121c.114 0 15.974-23.906 23.161-27.833z"/><path d="M56.59 85.117c0 .115-1.14-.924-3.194-.924a5.49 5.49 0 00-3.309 1.155c-.456.462-.913 1.04-1.483 1.617-.456.577-1.14 1.27-2.054 1.386-.912.23-1.825-.231-2.396-.693-.684-.462-1.255-.924-1.825-1.27-1.141-.694-2.396-.578-3.309-.347-.913.346-1.597.924-1.94 1.386-.342.462-.456.808-.57.693 0 0 0-.347.342-.924.343-.462.913-1.155 1.94-1.617 1.027-.462 2.51-.578 3.765.23.685.347 1.255.81 1.826 1.156.57.346 1.255.693 1.94.577.684-.115 1.254-.693 1.71-1.155.457-.577.913-1.155 1.598-1.617 1.14-.923 2.51-1.154 3.65-1.154 1.142 0 1.94.346 2.397.692.684.578.913.809.913.809zm13.007 17.208c-.114.116-.798-1.155-2.738-1.848a4.96 4.96 0 00-3.423 0c-.57.231-1.255.693-1.825 1.04-.685.346-1.483.808-2.396.693-.913-.116-1.598-.809-2.054-1.386-.456-.578-.913-1.27-1.37-1.733-.798-1.04-2.053-1.386-3.08-1.386-1.026 0-1.825.347-2.282.693-.456.347-.684.578-.798.578 0 0 .114-.347.57-.693a4.727 4.727 0 012.396-.924c1.027-.116 2.51.23 3.537 1.386l1.37 1.732c.456.578 1.026 1.04 1.71 1.155.685.116 1.37-.231 2.054-.577.685-.347 1.255-.809 1.94-1.04 1.37-.462 2.738-.346 3.765.116a4.343 4.343 0 012.054 1.501c.456.347.57.693.57.693zm28.866-25.177c0 .115-1.255-.578-3.309-.231-1.026.231-2.167.808-2.966 1.848-.456.462-.685 1.155-1.141 1.848a4.385 4.385 0 01-1.711 1.848c-.913.346-1.826.115-2.51-.116-.685-.23-1.37-.577-2.054-.808-1.255-.462-2.51-.116-3.309.462-.913.577-1.369 1.27-1.597 1.732a6.91 6.91 0 00-.343.808s0-.346.115-.924a4.058 4.058 0 011.597-1.963c.913-.577 2.282-1.04 3.765-.577.685.23 1.37.577 2.054.808.684.231 1.369.347 2.053.116.685-.231 1.141-.924 1.484-1.502.342-.693.684-1.386 1.14-1.963.913-1.155 2.282-1.733 3.31-1.848 1.026-.231 1.939 0 2.51.115.684.116.912.231.912.347zm-13.349 18.94c-.114.116-.57-.923-2.054-1.5-.684-.232-1.711-.347-2.624-.116-.456.115-.913.462-1.483.693-.57.23-1.14.577-1.94.461-.684-.115-1.255-.692-1.597-1.154-.342-.462-.684-1.04-.913-1.386-.57-.809-1.483-1.155-2.281-1.155-1.598 0-2.282.808-2.396.808 0 0 .114-.23.456-.577a3.517 3.517 0 011.94-.578c.798 0 1.94.347 2.738 1.27l1.027 1.387c.342.462.684.808 1.255.924 1.026.23 2.053-.809 3.08-1.04 1.141-.346 2.168-.115 2.967.231 1.483.578 1.94 1.733 1.825 1.733zm-29.436 15.938c-.114.116-.57-.924-2.054-1.501-.684-.231-1.711-.347-2.624-.116-.456.116-.913.462-1.483.693-.57.231-1.141.578-1.94.462-.684-.115-1.255-.693-1.597-1.155-.342-.462-.685-1.039-.913-1.386-.57-.808-1.483-1.154-2.282-1.154-1.597 0-2.282.808-2.396.808 0 0 .114-.231.457-.577a3.516 3.516 0 011.94-.578 3.75 3.75 0 012.737 1.27l1.027 1.386c.343.462.685.809 1.255.924 1.027.231 2.054-.808 3.08-1.039 1.142-.347 2.169-.116 2.967.231 1.598.577 1.94 1.732 1.826 1.732zm27.496.347c0 .115-.798-.693-2.396-.693-.798 0-1.71.115-2.51.808-.342.347-.798.693-1.14 1.155-.457.462-.913.924-1.712 1.04-.799.115-1.369-.231-1.94-.578l-1.369-1.039c-.798-.578-1.825-.578-2.51-.347-1.483.462-1.94 1.617-1.94 1.502 0 0 0-.231.229-.693.228-.347.799-.924 1.597-1.271.799-.346 1.94-.346 2.967.231l1.369 1.04c.456.346.912.577 1.483.462 1.027-.116 1.711-1.386 2.624-2.079.913-.693 2.054-.809 2.852-.809 1.712.347 2.51 1.271 2.396 1.271zm-9.013 12.704c0 .115-.799-.693-2.396-.693-.799 0-1.711.115-2.51.808-.342.347-.799.693-1.14 1.155-.457.462-.914.924-1.712 1.04-.799.115-1.37-.231-1.94-.578l-1.37-1.039c-.798-.578-1.825-.578-2.51-.347-1.482.462-1.939 1.617-1.939 1.502 0 0 0-.231.229-.693.228-.347.798-.924 1.597-1.271.798-.346 1.94-.346 2.966.231l1.37 1.04c.456.346.912.577 1.483.462 1.026-.116 1.711-1.386 2.624-2.079.913-.693 2.053-.809 2.852-.809 1.712.231 2.396 1.271 2.396 1.271z" fill-opacity=".8"/><path d="M3.537 67.793c.684.809 25.785 34.763 25.785 34.763l-3.537 2.079L0 71.027l3.537-3.234z"/><path d="M101.429 91.93s-23.503 41.116-25.1 41.809c-3.08 1.501-39.248-30.144-42.671-33.146-.457-.693-1.483-1.964-3.423-4.736 0 0-2.852-13.165-5.933-12.126-3.08 1.04 1.711 6.698-.342 11.665-1.94 4.966-11.067-6.93-11.41-7.97l-2.282-3.118s-2.396 7.045-2.281 9.933c.57 9.47 9.355 20.557 9.355 20.557s35.712 45.388 62.866 46.889c7.758.462 22.705-22.289 31.946-39.036 5.591-10.163 2.967-20.442-6.275-27.255l-4.45-3.465z"/><path d="M12.436 96.088c-.114 0-1.027-1.385-2.053-3.349-.913-1.963-1.484-3.58-1.37-3.58.115 0 .8 1.617 1.712 3.465.913 1.848 1.825 3.349 1.711 3.465zM101.289 80.497c-.913.578-22.82 41.692-22.82 41.692l28.182 22.29s7.302-18.247 11.181-33.146c1.027-4.042.457-14.782-1.027-18.94-7.305-15.393-5.248-4.389-10.04-7.854l-5.476-4.042z"/><path d="M101.5 140h7l1 3-3 2.5-5.5-4 .5-1.5z"/><path opacity=".7" d="M108.732 80.035c.57.347.798.462.798.462l-.456-.115c-.114 0-.342-.231-.571-.347a2.485 2.485 0 00-.413-.249c.241.085.454.173.642.25z"/><path d="M101.087 119.071c-.114.116-.57-.924-2.053-1.501-.685-.231-1.712-.347-2.625-.116-.456.116-.912.462-1.483.693-.57.231-1.14.578-1.94.462-.684-.115-1.255-.693-1.597-1.155-.342-.462-.684-1.039-.912-1.386-.571-.808-1.484-1.154-2.282-1.154-1.598 0-2.282.808-2.396.808 0 0 .114-.231.456-.577a3.517 3.517 0 011.94-.578c.798 0 1.94.347 2.738 1.27l1.027 1.386c.342.462.684.809 1.255.924 1.027.231 2.053-.808 3.08-1.039 1.141-.347 2.168-.116 2.967.231 1.597.577 1.939 1.732 1.825 1.732zm12.893-5.312c-.114 0-.342-1.04-1.597-1.964-.571-.462-1.484-.808-2.51-.808-.457 0-1.027.231-1.598.346-.57.116-1.255.231-1.939-.115-.685-.347-1.027-1.04-1.255-1.617-.229-.578-.343-1.155-.571-1.617-.342-.924-1.141-1.501-1.94-1.732-1.483-.462-2.51.231-2.51.115 0 0 .115-.231.571-.346.456-.231 1.141-.347 1.939-.116.799.231 1.826.809 2.282 1.964.229.577.343 1.039.571 1.616.228.578.456 1.04.913 1.271.912.462 2.167-.231 3.308-.231s2.168.462 2.739 1.039c1.597 1.04 1.711 2.195 1.597 2.195zm.684-16.978c-.114 0-.342-1.039-1.597-1.963-.57-.462-1.483-.808-2.51-.808-.456 0-1.027.23-1.597.346-.571.116-1.255.231-1.94-.115-.684-.347-1.027-1.04-1.255-1.617-.228-.578-.342-1.155-.57-1.617-.343-.924-1.141-1.502-1.94-1.733-1.483-.461-2.51.231-2.51.116 0 0 .114-.231.57-.347.457-.23 1.141-.346 1.94-.115.799.231 1.826.809 2.282 1.963.228.578.342 1.04.57 1.617.229.578.457 1.04.913 1.27.913.463 2.168-.23 3.309-.23s2.168.462 2.738 1.04c1.597 1.038 1.712 2.194 1.597 2.194zm-6.275 39.036c-.114 0-.342-1.039-1.597-1.963-.571-.462-1.483-.808-2.51-.808-.457 0-1.027.231-1.597.346-.571.116-1.255.231-1.94-.115-.685-.347-1.027-1.04-1.255-1.617-.228-.578-.342-1.155-.57-1.617-.343-.924-1.142-1.502-1.94-1.732-1.483-.462-2.51.23-2.51.115 0 0 .114-.231.57-.346.457-.231 1.141-.347 1.94-.116.798.231 1.825.808 2.282 1.963.228.578.342 1.04.57 1.617.228.578.457 1.04.913 1.271.913.462 2.168-.231 3.309-.231s2.167.462 2.738 1.039c1.711 1.04 1.711 2.31 1.597 2.194z" fill-opacity=".8"/></symbol><symbol viewBox="0 0 6 6" id="icons--right--prog-1" xmlns="http://www.w3.org/2000/svg"><path d="M1.265 1.697l3.571 2.962"/></symbol><symbol viewBox="0 0 25 22" id="icons--right--prog-2" xmlns="http://www.w3.org/2000/svg"><path d="M22.205 20.709H2.58A1.57 1.57 0 011 19.129V5.58C1 4.73 1.73 4 2.58 4h19.625c.912 0 1.58.73 1.58 1.58v13.488c0 .912-.73 1.64-1.58 1.64z"/><path d="M12 15a3 3 0 100-6 3 3 0 000 6zM15 1h4v3h-4z"/></symbol><symbol viewBox="0 0 26 12" id="icons--right--prog-3" xmlns="http://www.w3.org/2000/svg"><path d="M1 4.296c.614 1.555 1.568 3.11 2.864 3.234 2.522.249 4.227-4.788 6.409-4.477 2.523.31 2.59 7.213 4.431 7.337 2.114.124 3.478-9.327 6.137-9.39 1.568-.061 3 3.296 4.159 7.09"/></symbol><symbol viewBox="0 0 22 20" id="icons--right--task-1" xmlns="http://www.w3.org/2000/svg"><path d="M20.79 13.147H8.854c-1.36 1.78-2.722 3.455-4.083 5.235-.105.21-.42.105-.42-.105.106-1.675.106-3.246.21-4.921a.225.225 0 00-.21-.21H1.21a.225.225 0 01-.21-.209V1.21c0-.105.105-.21.21-.21h19.58c.105 0 .21.105.21.21v11.623c0 .209-.105.314-.21.314z"/></symbol><symbol viewBox="0 0 3 13" id="icons--right--task-2" xmlns="http://www.w3.org/2000/svg"><path d="M1.106 1.966v9.247"/></symbol></svg>