<?xml version="1.0" encoding="utf-8"?><svg xmlns="http://www.w3.org/2000/svg" xmlns:xlink="http://www.w3.org/1999/xlink"><symbol viewBox="0 0 512 512" id="icons--center--alert" xmlns="http://www.w3.org/2000/svg"><path d="M450.201 407.453c-1.505-.977-12.832-8.912-24.174-32.917-20.829-44.082-25.201-106.18-25.201-150.511 0-.193-.004-.384-.011-.576-.227-58.589-35.31-109.095-85.514-131.756V57.036C315.301 25.586 289.757 0 258.359 0h-4.719c-31.398 0-56.942 25.586-56.942 57.036v34.655c-50.372 22.734-85.525 73.498-85.525 132.334 0 44.331-4.372 106.428-25.201 150.511-11.341 24.004-22.668 31.939-24.174 32.917-6.342 2.935-9.469 9.715-8.01 16.586 1.473 6.939 7.959 11.723 15.042 11.723h109.947C179.391 477.903 213.785 512 256 512s76.609-34.097 77.223-76.238H443.17c7.082 0 13.569-4.784 15.042-11.723 1.457-6.871-1.669-13.652-8.011-16.586zM226.699 57.036c0-14.881 12.086-26.987 26.942-26.987h4.719c14.856 0 26.942 12.106 26.942 26.987v24.917a144.658 144.658 0 00-29.306-2.987A144.695 144.695 0 00226.7 81.95V57.036zM256 481.951c-25.673 0-46.614-20.617-47.223-46.188h94.445c-.608 25.57-21.549 46.188-47.222 46.188zm60.4-76.239H103.015c2.595-4.044 5.236-8.623 7.861-13.798 20.104-39.643 30.298-96.129 30.298-167.889 0-63.417 51.509-115.01 114.821-115.01s114.821 51.593 114.821 115.06c0 .185.003.369.01.553.057 71.472 10.25 127.755 30.298 167.286 2.625 5.176 5.267 9.754 7.861 13.798z"/></symbol><symbol viewBox="0 0 320.001 320.001" id="icons--center--play" xmlns="http://www.w3.org/2000/svg"><path d="M295.84 146.049l-256-144a16.026 16.026 0 00-15.904.128A15.986 15.986 0 0016 16.001v288a15.986 15.986 0 007.936 13.824A16.144 16.144 0 0032 320.001c2.688 0 5.408-.672 7.84-2.048l256-144c5.024-2.848 8.16-8.16 8.16-13.952s-3.136-11.104-8.16-13.952z"/></symbol><symbol viewBox="0 0 511.999 511.999" id="icons--center--search" xmlns="http://www.w3.org/2000/svg"><path d="M508.874 478.708L360.142 329.976c28.21-34.827 45.191-79.103 45.191-127.309C405.333 90.917 314.416 0 202.666 0S0 90.917 0 202.667s90.917 202.667 202.667 202.667c48.206 0 92.482-16.982 127.309-45.191l148.732 148.732c4.167 4.165 10.919 4.165 15.086 0l15.081-15.082c4.165-4.166 4.165-10.92-.001-15.085zM202.667 362.667c-88.229 0-160-71.771-160-160s71.771-160 160-160 160 71.771 160 160-71.771 160-160 160z"/></symbol><symbol viewBox="0 0 606.877 606.877" id="icons--left--all" xmlns="http://www.w3.org/2000/svg"><path d="M58.64 280.154h162.654c32.058 0 58.14-26.082 58.14-58.14V59.36c0-32.059-26.082-58.14-58.14-58.14H58.64C26.582 1.22.5 27.301.5 59.36v162.654c0 32.058 26.082 58.14 58.14 58.14zM43.34 59.36c0-8.45 6.85-15.3 15.3-15.3h162.654c8.45 0 15.3 6.85 15.3 15.3v162.654c0 8.45-6.85 15.3-15.3 15.3H58.64c-8.45 0-15.3-6.85-15.3-15.3V59.36z"/><path d="M221.294 280.654H58.64c-32.334 0-58.64-26.306-58.64-58.64V59.36C0 27.025 26.306.72 58.64.72h162.654c32.334 0 58.64 26.306 58.64 58.64v162.654c0 32.334-26.306 58.64-58.64 58.64zM58.64 1.72C26.857 1.72 1 27.577 1 59.36v162.654c0 31.783 25.857 57.64 57.64 57.64h162.654c31.783 0 57.64-25.857 57.64-57.64V59.36c0-31.783-25.857-57.64-57.64-57.64H58.64zm162.654 236.093H58.64c-8.712 0-15.8-7.088-15.8-15.8V59.36c0-8.712 7.088-15.8 15.8-15.8h162.654c8.712 0 15.8 7.088 15.8 15.8v162.654c0 8.712-7.088 15.799-15.8 15.799zM58.64 44.56c-8.161 0-14.8 6.639-14.8 14.8v162.654c0 8.161 6.639 14.8 14.8 14.8h162.654c8.161 0 14.8-6.639 14.8-14.8V59.36c0-8.161-6.639-14.8-14.8-14.8H58.64zM548.238 1.22H385.584c-32.059 0-58.141 26.082-58.141 58.14v162.654c0 32.058 26.082 58.14 58.141 58.14h162.654c32.059 0 58.139-26.082 58.139-58.14V59.36c0-32.059-26.08-58.14-58.139-58.14zm15.299 220.794c0 8.45-6.85 15.3-15.299 15.3H385.584c-8.449 0-15.301-6.85-15.301-15.3V59.36c0-8.45 6.852-15.3 15.301-15.3h162.654c8.449 0 15.299 6.85 15.299 15.3v162.654z"/><path d="M548.238 280.654H385.584c-32.335 0-58.641-26.306-58.641-58.64V59.36c0-32.334 26.306-58.64 58.641-58.64h162.654c32.333 0 58.639 26.306 58.639 58.64v162.654c0 32.334-26.306 58.64-58.639 58.64zM385.584 1.72c-31.783 0-57.641 25.857-57.641 57.64v162.654c0 31.783 25.857 57.64 57.641 57.64h162.654c31.782 0 57.639-25.857 57.639-57.64V59.36c0-31.783-25.856-57.64-57.639-57.64H385.584zm162.654 236.093H385.584c-8.713 0-15.801-7.088-15.801-15.8V59.36c0-8.712 7.088-15.8 15.801-15.8h162.654c8.712 0 15.799 7.088 15.799 15.8v162.654c0 8.712-7.087 15.799-15.799 15.799zM385.584 44.56c-8.161 0-14.801 6.639-14.801 14.8v162.654c0 8.161 6.64 14.8 14.801 14.8h162.654c8.16 0 14.799-6.639 14.799-14.8V59.36c0-8.161-6.639-14.8-14.799-14.8H385.584zM58.64 605.657h162.654c32.058 0 58.14-26.08 58.14-58.139V384.864c0-32.059-26.082-58.141-58.14-58.141H58.64C26.582 326.723.5 352.805.5 384.864v162.654c0 32.059 26.082 58.139 58.14 58.139zm-15.3-220.793c0-8.449 6.85-15.301 15.3-15.301h162.654c8.45 0 15.3 6.852 15.3 15.301v162.654c0 8.449-6.85 15.299-15.3 15.299H58.64c-8.45 0-15.3-6.85-15.3-15.299V384.864z"/><path d="M221.294 606.157H58.64C26.306 606.157 0 579.852 0 547.519V384.864c0-32.335 26.306-58.641 58.64-58.641h162.654c32.334 0 58.64 26.306 58.64 58.641v162.654c0 32.334-26.306 58.639-58.64 58.639zM58.64 327.224c-31.783 0-57.64 25.857-57.64 57.64v162.654c0 31.782 25.857 57.639 57.64 57.639h162.654c31.783 0 57.64-25.856 57.64-57.639V384.864c0-31.783-25.857-57.641-57.64-57.641H58.64zm162.654 236.093H58.64c-8.712 0-15.8-7.087-15.8-15.799V384.864c0-8.713 7.088-15.801 15.8-15.801h162.654c8.712 0 15.8 7.088 15.8 15.801v162.654c0 8.712-7.088 15.799-15.8 15.799zM58.64 370.063c-8.161 0-14.8 6.64-14.8 14.801v162.654c0 8.16 6.639 14.799 14.8 14.799h162.654c8.161 0 14.8-6.639 14.8-14.799V384.864c0-8.161-6.639-14.801-14.8-14.801H58.64zm489.598-43.339H385.584c-32.059 0-58.141 26.082-58.141 58.141v162.654c0 32.059 26.082 58.139 58.141 58.139h162.654c32.059 0 58.139-26.08 58.139-58.139V384.864c0-32.058-26.08-58.14-58.139-58.14zm15.299 220.795c0 8.449-6.85 15.299-15.299 15.299H385.584c-8.449 0-15.301-6.85-15.301-15.299V384.864c0-8.449 6.852-15.301 15.301-15.301h162.654c8.449 0 15.299 6.852 15.299 15.301v162.655z"/><path d="M548.238 606.157H385.584c-32.335 0-58.641-26.306-58.641-58.639V384.864c0-32.335 26.306-58.641 58.641-58.641h162.654c32.333 0 58.639 26.306 58.639 58.641v162.654c0 32.334-26.306 58.639-58.639 58.639zM385.584 327.224c-31.783 0-57.641 25.857-57.641 57.641v162.654c0 31.782 25.857 57.639 57.641 57.639h162.654c31.782 0 57.639-25.856 57.639-57.639V384.864c0-31.783-25.856-57.641-57.639-57.641H385.584zm162.654 236.093H385.584c-8.713 0-15.801-7.087-15.801-15.799V384.864c0-8.713 7.088-15.801 15.801-15.801h162.654c8.712 0 15.799 7.088 15.799 15.801v162.654c0 8.712-7.087 15.799-15.799 15.799zM385.584 370.063c-8.161 0-14.801 6.64-14.801 14.801v162.654c0 8.16 6.64 14.799 14.801 14.799h162.654c8.16 0 14.799-6.639 14.799-14.799V384.864c0-8.161-6.639-14.801-14.799-14.801H385.584z"/></symbol><symbol viewBox="0 0 477.867 477.867" id="icons--left--chat" xmlns="http://www.w3.org/2000/svg"><path d="M426.667.002H51.2C22.923.002 0 22.925 0 51.202v273.067c0 28.277 22.923 51.2 51.2 51.2h60.587l-9.284 83.456c-1.035 9.369 5.721 17.802 15.09 18.837a17.07 17.07 0 0013.292-4.279l108.919-98.014h186.863c28.277 0 51.2-22.923 51.2-51.2V51.202c0-28.277-22.923-51.2-51.2-51.2zm17.066 324.267c0 9.426-7.641 17.067-17.067 17.067H233.25a17.07 17.07 0 00-11.418 4.386l-80.452 72.414 6.434-57.839c1.046-9.367-5.699-17.809-15.067-18.856-.63-.07-1.263-.106-1.897-.105H51.2c-9.426 0-17.067-7.641-17.067-17.067V51.202c0-9.426 7.641-17.067 17.067-17.067h375.467c9.426 0 17.067 7.641 17.067 17.067v273.067z"/></symbol><symbol viewBox="0 0 24 24" id="icons--left--dashboard" xmlns="http://www.w3.org/2000/svg"><path d="M7.323 10.5h-2.5a.75.75 0 010-1.5h2.5a.75.75 0 010 1.5zm12 0h-7.5a.75.75 0 010-1.5h7.5a.75.75 0 010 1.5zm-12 4h-2.5a.75.75 0 010-1.5h2.5a.75.75 0 010 1.5zm12 0h-7.5a.75.75 0 010-1.5h7.5a.75.75 0 010 1.5zm-12 4h-2.5a.75.75 0 010-1.5h2.5a.75.75 0 010 1.5zm12 0h-7.5a.75.75 0 010-1.5h7.5a.75.75 0 010 1.5z"/><path d="M21.25 23H2.75A2.752 2.752 0 010 20.25V3.75A2.752 2.752 0 012.75 1h18.5A2.752 2.752 0 0124 3.75v16.5A2.752 2.752 0 0121.25 23zM2.75 2.5c-.689 0-1.25.561-1.25 1.25v16.5c0 .689.561 1.25 1.25 1.25h18.5c.689 0 1.25-.561 1.25-1.25V3.75c0-.689-.561-1.25-1.25-1.25z"/><path d="M23.25 6H.75a.75.75 0 010-1.5h22.5a.75.75 0 010 1.5z"/></symbol><symbol viewBox="0 0 64 64" id="icons--left--folder" xmlns="http://www.w3.org/2000/svg"><path d="M50 7v13l-9-9H12V7z"/><path d="M50 20l1 1h-8a2.006 2.006 0 01-2-2v-8zm-39 1v16H9.69a2.006 2.006 0 00-1.97 1.67L4 61V23a2.006 2.006 0 012-2zm46 2.12v13.91a2.1 2.1 0 00-.36-.03H51V21h4a2.066 2.066 0 012 2.12z"/><path d="M58.61 39.33l-3.33 20A2.006 2.006 0 0153.31 61H4l3.72-22.33A2.006 2.006 0 019.69 37h46.95a2.1 2.1 0 01.36.03 2 2 0 011.61 2.3z"/><path d="M58.93 37.06a2.95 2.95 0 00-.93-.72V23.12A3.068 3.068 0 0055 20h-3.59l-.41-.41V7a1 1 0 00-1-1h-1V3a1 1 0 00-1-1H14a1 1 0 00-1 1v3h-1a1 1 0 00-1 1v3a1 1 0 00-1 1v9H6a3.009 3.009 0 00-3 3v38a1 1 0 001 1h49.31a2.978 2.978 0 002.95-2.51l3.34-20a3.019 3.019 0 00-.67-2.43zM52 22h3a1.066 1.066 0 011 1.12V36h-4zM15 4h32v2H15zm-2 4h36v9.59l-7.29-7.3A1.033 1.033 0 0041 10H13zm35.59 12H43a1 1 0 01-1-1v-5.59zM12 12h28v7a3.009 3.009 0 003 3h7v14H12zM5 23a1 1 0 011-1h4v14h-.31a2.978 2.978 0 00-2.95 2.51L5 48.92zm49.29 36.17a.989.989 0 01-.98.83H5.18l3.53-21.17a.989.989 0 01.98-.83h46.95a1 1 0 01.76.35 1.014 1.014 0 01.23.82z"/></symbol><symbol viewBox="0 0 512 512" id="icons--left--friends" xmlns="http://www.w3.org/2000/svg"><path d="M256 0c-74.439 0-135 60.561-135 135s60.561 135 135 135 135-60.561 135-135S330.439 0 256 0zm0 240c-57.897 0-105-47.103-105-105S198.103 30 256 30s105 47.103 105 105-47.103 105-105 105zm41.833 61h-83.667C144.964 301 76.669 332.951 31 401.458V512h450V401.458C435.397 333.05 367.121 301 297.833 301zm153.168 181H61v-71.363C96.031 360.683 152.952 331 214.167 331h83.667c61.215 0 118.135 29.683 153.167 79.637V482z"/></symbol><symbol viewBox="0 0 512.001 512.001" id="icons--left--resources" xmlns="http://www.w3.org/2000/svg"><path d="M448.916 118.259h-162.05c-6.578 0-13.003-2.701-17.44-7.292l-50.563-53.264c-12.154-12.115-28.783-18.443-45.625-18.346H63.084C28.301 39.356 0 67.657 0 102.439v307.123c0 34.783 28.301 63.084 63.084 63.084h386.122c34.764-.154 62.949-28.59 62.794-63.277V181.342c0-34.783-28.301-63.083-63.084-63.083zm24.501 291.188c.058 13.504-10.88 24.558-24.307 24.616H63.084c-13.504 0-24.5-10.996-24.5-24.5V102.439c0-13.504 10.996-24.5 24.5-24.52h111.293c6.443 0 12.694 2.566 16.899 6.733l50.293 53.013c11.806 12.192 28.32 19.176 45.297 19.176h162.05c13.504 0 24.5 10.996 24.5 24.5v228.106z"/></symbol><symbol viewBox="0 0 512 512" id="icons--left--settings" xmlns="http://www.w3.org/2000/svg"><path d="M272.066 512h-32.133c-25.989 0-47.134-21.144-47.134-47.133v-10.871a206.698 206.698 0 01-32.097-13.323l-7.704 7.704c-18.659 18.682-48.548 18.134-66.665-.007l-22.711-22.71c-18.149-18.129-18.671-48.008.006-66.665l7.698-7.698A206.714 206.714 0 0158.003 319.2h-10.87C21.145 319.2 0 298.056 0 272.067v-32.134C0 213.944 21.145 192.8 47.134 192.8h10.87a206.755 206.755 0 0113.323-32.097L63.623 153c-18.666-18.646-18.151-48.528.006-66.665l22.713-22.712c18.159-18.184 48.041-18.638 66.664.006l7.697 7.697A206.893 206.893 0 01192.8 58.003v-10.87C192.8 21.144 213.944 0 239.934 0h32.133C298.056 0 319.2 21.144 319.2 47.133v10.871a206.698 206.698 0 0132.097 13.323l7.704-7.704c18.659-18.682 48.548-18.134 66.665.007l22.711 22.71c18.149 18.129 18.671 48.008-.006 66.665l-7.698 7.698a206.714 206.714 0 0113.323 32.097h10.87c25.989 0 47.134 21.144 47.134 47.133v32.134c0 25.989-21.145 47.133-47.134 47.133h-10.87a206.755 206.755 0 01-13.323 32.097l7.704 7.704c18.666 18.646 18.151 48.528-.006 66.665l-22.713 22.712c-18.159 18.184-48.041 18.638-66.664-.006l-7.697-7.697a206.893 206.893 0 01-32.097 13.323v10.871c0 25.987-21.144 47.131-47.134 47.131zM165.717 409.17a176.812 176.812 0 0045.831 19.025 14.999 14.999 0 0111.252 14.524v22.148c0 9.447 7.687 17.133 17.134 17.133h32.133c9.447 0 17.134-7.686 17.134-17.133v-22.148a14.999 14.999 0 0111.252-14.524 176.812 176.812 0 0045.831-19.025 15 15 0 0118.243 2.305l15.688 15.689c6.764 6.772 17.626 6.615 24.224.007l22.727-22.726c6.582-6.574 6.802-17.438.006-24.225l-15.695-15.695a15 15 0 01-2.305-18.242 176.78 176.78 0 0019.024-45.831 15 15 0 0114.524-11.251h22.147c9.447 0 17.134-7.686 17.134-17.133v-32.134c0-9.447-7.687-17.133-17.134-17.133H442.72a15 15 0 01-14.524-11.251 176.815 176.815 0 00-19.024-45.831 15 15 0 012.305-18.242l15.689-15.689c6.782-6.774 6.605-17.634.006-24.225l-22.725-22.725c-6.587-6.596-17.451-6.789-24.225-.006l-15.694 15.695a15 15 0 01-18.243 2.305 176.812 176.812 0 00-45.831-19.025 14.999 14.999 0 01-11.252-14.524v-22.15c0-9.447-7.687-17.133-17.134-17.133h-32.133c-9.447 0-17.134 7.686-17.134 17.133v22.148a14.999 14.999 0 01-11.252 14.524 176.812 176.812 0 00-45.831 19.025 15.002 15.002 0 01-18.243-2.305l-15.688-15.689c-6.764-6.772-17.627-6.615-24.224-.007l-22.727 22.726c-6.582 6.574-6.802 17.437-.006 24.225l15.695 15.695a15 15 0 012.305 18.242 176.78 176.78 0 00-19.024 45.831 15 15 0 01-14.524 11.251H47.134C37.687 222.8 30 230.486 30 239.933v32.134c0 9.447 7.687 17.133 17.134 17.133h22.147a15 15 0 0114.524 11.251 176.815 176.815 0 0019.024 45.831 15 15 0 01-2.305 18.242l-15.689 15.689c-6.782 6.774-6.605 17.634-.006 24.225l22.725 22.725c6.587 6.596 17.451 6.789 24.225.006l15.694-15.695c3.568-3.567 10.991-6.594 18.244-2.304z"/><path d="M256 367.4c-61.427 0-111.4-49.974-111.4-111.4S194.573 144.6 256 144.6 367.4 194.574 367.4 256 317.427 367.4 256 367.4zm0-192.8c-44.885 0-81.4 36.516-81.4 81.4s36.516 81.4 81.4 81.4 81.4-36.516 81.4-81.4-36.515-81.4-81.4-81.4z"/></symbol><symbol viewBox="0 0 512 512" id="icons--right--apple" xmlns="http://www.w3.org/2000/svg"><path d="M185.255 512c-76.201-.439-139.233-155.991-139.233-235.21 0-129.404 97.075-157.734 134.487-157.734 16.86 0 34.863 6.621 50.742 12.48 11.104 4.087 22.588 8.306 28.975 8.306 3.823 0 12.832-3.589 20.786-6.738 16.963-6.753 38.071-15.146 62.651-15.146h.146c18.354 0 74.004 4.028 107.461 54.272l7.837 11.777-11.279 8.511c-16.113 12.158-45.513 34.336-45.513 78.267 0 52.031 33.296 72.041 49.292 81.665 7.061 4.248 14.37 8.628 14.37 18.208 0 6.255-49.922 140.566-122.417 140.566-17.739 0-30.278-5.332-41.338-10.034-11.191-4.761-20.845-8.862-36.797-8.862-8.086 0-18.311 3.823-29.136 7.881C221.496 505.73 204.752 512 185.753 512h-.498zM351.343 0c1.888 68.076-46.797 115.304-95.425 112.342C247.905 58.015 304.54 0 351.343 0z"/></symbol><symbol viewBox="0 0 511.399 511.399" id="icons--right--gplay" xmlns="http://www.w3.org/2000/svg"><path d="M459.87 217.357l-86.609-50.019-118.66 88.66 118.658 88.66 86.904-50.191c13.55-8.232 21.636-22.617 21.636-38.467s-8.087-30.234-21.929-38.643z"/><path d="M284.601 256l-105 135-136.5 107.5c-8.401-8.401-13.5-19.799-13.5-32.401V45.157c0-12.599 5.099-24 13.5-32.399L179.601 121l105 135z"/><path d="M284.601 256l-30 38.699v-77.4z"/><path d="M373.402 167.199L284.601 256 43.101 12.759c2.999-2.701 6-4.801 9.3-6.901 14.399-8.099 31.5-7.8 45.601.901L254.601 98.8l118.801 68.399z"/><path d="M373.402 167.199L284.601 256l-30-30V98.8zM373.402 344.799L254.601 413.2 97.702 504.8c-7.2 4.199-15 6.599-23.101 6.599-7.5 0-15-2.1-22.2-6-3.3-2.1-6.301-4.199-9.3-6.899l241.5-242.5 88.801 88.799z"/><path d="M373.402 344.799L254.601 413.2V286l30-30z"/></symbol><symbol viewBox="-15 -15 484 484" id="icons--right--progress-1" xmlns="http://www.w3.org/2000/svg"><path d="M401.648 18.234c-24.394-24.351-63.898-24.351-88.293 0l-22.101 22.223-235.27 235.145-.5.503c-.12.122-.12.25-.25.25-.25.375-.625.747-.87 1.122 0 .125-.13.125-.13.25-.25.375-.37.625-.625 1-.12.125-.12.246-.246.375-.125.375-.25.625-.379 1 0 .12-.12.12-.12.25L.663 437.32a12.288 12.288 0 002.996 12.735 12.564 12.564 0 008.867 3.625c1.356-.024 2.7-.235 3.996-.625L173.37 400.73c.121 0 .121 0 .25-.12a4.523 4.523 0 001.121-.505.443.443 0 00.254-.12c.371-.25.871-.505 1.246-.755.371-.246.75-.62 1.125-.87.125-.13.246-.13.246-.25.13-.126.38-.247.504-.5l257.371-257.372c24.352-24.394 24.352-63.898 0-88.289zM169.375 371.383l-86.914-86.91L299.996 66.938l86.914 86.91zm-99.156-63.809l75.93 75.926-114.016 37.96zm347.664-184.82l-13.238 13.363L317.727 49.2l13.367-13.36c14.62-14.609 38.32-14.609 52.945 0l33.965 33.966c14.512 14.687 14.457 38.332-.121 52.949zm0 0"/></symbol><symbol viewBox="0 0 420.8 420.8" id="icons--right--progress-2" xmlns="http://www.w3.org/2000/svg"><path d="M406.8 96.4c-8.4-8.8-20-14-33.2-14h-66.4v-.8c0-10-4-19.6-10.8-26-6.8-6.8-16-10.8-26-10.8h-120c-10.4 0-19.6 4-26.4 10.8-6.8 6.8-10.8 16-10.8 26v.8h-66c-13.2 0-24.8 5.2-33.2 14-8.4 8.4-14 20.4-14 33.2v199.2C0 342 5.2 353.6 14 362c8.4 8.4 20.4 14 33.2 14h326.4c13.2 0 24.8-5.2 33.2-14 8.4-8.4 14-20.4 14-33.2V129.6c0-13.2-5.2-24.8-14-33.2zM400 328.8h-.4c0 7.2-2.8 13.6-7.6 18.4s-11.2 7.6-18.4 7.6H47.2c-7.2 0-13.6-2.8-18.4-7.6-4.8-4.8-7.6-11.2-7.6-18.4V129.6c0-7.2 2.8-13.6 7.6-18.4s11.2-7.6 18.4-7.6h77.2c6 0 10.8-4.8 10.8-10.8V81.2c0-4.4 1.6-8.4 4.4-11.2s6.8-4.4 11.2-4.4h119.6c4.4 0 8.4 1.6 11.2 4.4 2.8 2.8 4.4 6.8 4.4 11.2v11.6c0 6 4.8 10.8 10.8 10.8H374c7.2 0 13.6 2.8 18.4 7.6s7.6 11.2 7.6 18.4v199.2z"/><path d="M210.4 130.8c-27.2 0-52 11.2-69.6 28.8-18 18-28.8 42.4-28.8 69.6s11.2 52 28.8 69.6c18 18 42.4 28.8 69.6 28.8s52-11.2 69.6-28.8c18-18 28.8-42.4 28.8-69.6s-11.2-52-28.8-69.6c-17.6-17.6-42.4-28.8-69.6-28.8zM264.8 284c-14 13.6-33.2 22.4-54.4 22.4S170 297.6 156 284c-14-14-22.4-33.2-22.4-54.4 0-21.2 8.8-40.4 22.4-54.4 14-14 33.2-22.4 54.4-22.4s40.4 8.8 54.4 22.4c14 14 22.4 33.2 22.4 54.4.4 21.2-8.4 40.4-22.4 54.4z"/><circle cx="352.8" cy="150" r="19.6"/></symbol><symbol viewBox="0 0 512 512" id="icons--right--progress-3" xmlns="http://www.w3.org/2000/svg"><path d="M6.979 271.181c30.288 25.979 64.616 55.426 131.017 55.426 66.403-.001 100.733-29.447 131.022-55.426 28.644-24.568 53.382-45.787 104.98-45.787 51.599 0 76.337 21.219 104.98 45.787 8.385 7.191 21.011 6.225 28.202-2.159 7.191-8.385 6.225-21.011-2.16-28.202-30.289-25.979-64.619-55.426-131.022-55.426S273.265 214.84 242.976 240.82c-28.644 24.568-53.382 45.787-104.98 45.787-51.597 0-76.332-21.218-104.974-45.787-8.384-7.191-21.01-6.226-28.202 2.159-7.192 8.384-6.225 21.011 2.159 28.202z"/><path d="M6.979 161.787c30.287 25.98 64.615 55.426 131.017 55.426 66.403 0 100.733-29.446 131.022-55.426C297.662 137.219 322.399 116 373.998 116c51.597 0 76.335 21.218 104.98 45.787 8.385 7.193 21.01 6.224 28.201-2.161 7.192-8.384 6.223-21.012-2.161-28.202C474.729 105.444 440.399 76 373.998 76c-66.403 0-100.733 29.446-131.022 55.426-28.644 24.568-53.382 45.787-104.98 45.787-51.596 0-76.332-21.218-104.974-45.787-8.384-7.192-21.011-6.226-28.202 2.159-7.192 8.384-6.225 21.011 2.159 28.202zM505.02 350.213c-30.289-25.979-64.619-55.426-131.022-55.426s-100.733 29.446-131.022 55.426C214.332 374.781 189.594 396 137.996 396c-51.594 0-76.331-21.218-104.973-45.785l-.002-.002c-8.384-7.189-21.009-6.223-28.201 2.16-7.191 8.384-6.224 21.011 2.16 28.202C37.268 406.555 71.597 436 137.996 436c66.403 0 100.733-29.446 131.022-55.426 28.644-24.568 53.382-45.787 104.98-45.787 51.599 0 76.337 21.219 104.98 45.787 8.385 7.191 21.011 6.225 28.202-2.159 7.191-8.385 6.225-21.011-2.16-28.202z"/></symbol><symbol viewBox="0 0 477.867 477.867" id="icons--right--task-1" xmlns="http://www.w3.org/2000/svg"><path d="M426.667.002H51.2C22.923.002 0 22.925 0 51.202v273.067c0 28.277 22.923 51.2 51.2 51.2h60.587l-9.284 83.456c-1.035 9.369 5.721 17.802 15.09 18.837a17.07 17.07 0 0013.292-4.279l108.919-98.014h186.863c28.277 0 51.2-22.923 51.2-51.2V51.202c0-28.277-22.923-51.2-51.2-51.2zm17.066 324.267c0 9.426-7.641 17.067-17.067 17.067H233.25a17.07 17.07 0 00-11.418 4.386l-80.452 72.414 6.434-57.839c1.046-9.367-5.699-17.809-15.067-18.856-.63-.07-1.263-.106-1.897-.105H51.2c-9.426 0-17.067-7.641-17.067-17.067V51.202c0-9.426 7.641-17.067 17.067-17.067h375.467c9.426 0 17.067 7.641 17.067 17.067v273.067z"/></symbol><symbol viewBox="0 0 511.973 511.973" id="icons--right--task-2" xmlns="http://www.w3.org/2000/svg"><path d="M255.989 0L34.296 127.993v255.985l221.693 127.994 221.688-127.994V127.993zm176.683 136.651L255.989 238.616 79.301 136.651l176.688-102.01zM64.296 162.628l176.693 101.969v204.074L64.296 366.658zm206.693 306.043V264.597l176.688-101.968v204.03z"/></symbol></svg>