<?xml version="1.0" encoding="utf-8"?><svg viewBox="0 0 512 512" xmlns="http://www.w3.org/2000/svg" xmlns:xlink="http://www.w3.org/1999/xlink"><style>:root>svg{display:none}:root>svg:target{display:block}</style><svg fill="none" viewBox="0 0 20 20" id="close" xmlns="http://www.w3.org/2000/svg"><g clip-path="url(#aclip0)"><path d="M11.105 10l8.666-8.666A.781.781 0 1018.666.23L10 8.896 1.333.23A.781.781 0 10.23 1.334l8.666 8.667-8.666 8.666a.781.781 0 101.105 1.105L10 11.106l8.666 8.666a.779.779 0 001.105 0 .781.781 0 000-1.105l-8.666-8.666z" fill="#fff"/></g><defs><clipPath id="aclip0"><path fill="#fff" d="M0 0h20v20H0z"/></clipPath></defs></svg><svg fill="none" viewBox="0 0 45 45" id="copy" xmlns="http://www.w3.org/2000/svg"><path d="M0 22.5C0 34.928 10.073 45 22.5 45S45 34.928 45 22.5C45 10.073 34.927 0 22.5 0S0 10.073 0 22.5z" fill="#FA6E51"/><path d="M44.947 23.976L34.45 13.479l-5.425-5.425a.609.609 0 00-.431-.179H17.625a.61.61 0 00-.61.61v3.046h-6.703a.61.61 0 00-.609.61v24.375c0 .206.11.38.266.49.04.057 7.274 7.29 7.331 7.33.02.028.046.046.07.07 1.648.384 3.364.594 5.13.594 11.931 0 21.686-9.286 22.447-21.024z" fill="#E8573F"/><path d="M35.25 14.344a.61.61 0 00-.132-.197l-6.093-6.093a.61.61 0 00-.431-.179H17.625a.61.61 0 00-.61.61v3.046h-6.703a.61.61 0 00-.609.61v24.375c0 .336.273.609.61.609h17.062a.61.61 0 00.61-.61V33.47h6.702a.61.61 0 00.61-.61V14.58a.606.606 0 00-.047-.236zm-6.047-4.389l4.014 4.014h-4.014V9.955zm-2.437 25.951H10.922V12.75h9.75v5.484c0 .337.273.61.61.61h5.484v17.062zm-.862-18.281h-4.013v-4.013l4.013 4.013zm2.08 14.625V18.234a.609.609 0 00-.178-.43l-6.094-6.094a.611.611 0 00-.43-.179h-3.048V9.094h9.75v5.484c0 .337.273.61.61.61h5.484V32.25h-6.094z" fill="#F4F6F9"/></svg><svg fill="none" viewBox="0 0 45 45" id="fb" xmlns="http://www.w3.org/2000/svg"><path d="M22.5 45C34.926 45 45 34.926 45 22.5S34.926 0 22.5 0 0 10.074 0 22.5 10.074 45 22.5 45z" fill="#3B5998"/><path d="M28.157 23.38h-4.015v14.71h-6.083V23.38h-2.893v-5.168h2.893v-3.345c0-2.393 1.136-6.138 6.137-6.138l4.505.019v5.017h-3.269c-.536 0-1.29.268-1.29 1.41v3.041h4.546l-.531 5.165z" fill="#fff"/></svg><svg fill="none" viewBox="0 0 25 25" id="ig" xmlns="http://www.w3.org/2000/svg"><g clip-path="url(#dclip0)"><path d="M1.563 1.701C-.403 3.741 0 5.909 0 12.495c0 5.469-.954 10.95 4.04 12.242 1.559.4 15.376.4 16.933-.003 2.08-.536 3.77-2.223 4.002-5.163.032-.41.032-13.735-.001-14.153C24.728 2.285 22.8.48 20.259.115 19.677.03 19.56.005 16.573 0 5.976.005 3.653-.467 1.563 1.701z" fill="url(#dpaint0_linear)"/><path d="M12.498 3.27c-3.782 0-7.374-.337-8.746 3.184-.567 1.454-.484 3.343-.484 6.047 0 2.373-.076 4.603.484 6.046 1.369 3.523 4.99 3.185 8.744 3.185 3.622 0 7.356.377 8.745-3.185.567-1.469.484-3.33.484-6.046 0-3.606.199-5.934-1.55-7.682-1.77-1.771-4.166-1.55-7.681-1.55h.004zm-.827 1.663c7.89-.012 8.894-.89 8.34 11.295-.197 4.31-3.479 3.837-7.512 3.837-7.354 0-7.566-.21-7.566-7.568 0-7.443.584-7.56 6.738-7.566v.002zm5.754 1.533a1.107 1.107 0 100 2.214 1.107 1.107 0 000-2.214zM12.498 7.76a4.74 4.74 0 10.001 9.481 4.74 4.74 0 00-.001-9.48zm0 1.664c4.068 0 4.073 6.154 0 6.154-4.067 0-4.073-6.154 0-6.154z" fill="#fff"/></g><defs><linearGradient id="dpaint0_linear" x1="1.61" y1="23.403" x2="24.845" y2="3.294" gradientUnits="userSpaceOnUse"><stop stop-color="#8E7F42"/><stop offset=".5" stop-color="#FF543E"/><stop offset="1" stop-color="#C837AB"/></linearGradient><clipPath id="dclip0"><path fill="#fff" d="M0 0h25v25H0z"/></clipPath></defs></svg><svg fill="none" viewBox="0 0 22 20" id="photo" xmlns="http://www.w3.org/2000/svg"><path d="M19.25 3.125h-1.9L15.974.375h-9.95L4.65 3.126l-1.897.004A2.755 2.755 0 00.007 5.878L0 16.875a2.753 2.753 0 002.75 2.75h16.5a2.753 2.753 0 002.75-2.75v-11a2.753 2.753 0 00-2.75-2.75zM11 16.188a5.506 5.506 0 01-5.5-5.5c0-3.033 2.467-5.5 5.5-5.5 3.032 0 5.5 2.467 5.5 5.5 0 3.032-2.468 5.5-5.5 5.5z" fill="#989898"/></svg><svg fill="none" viewBox="0 0 25 25" id="pin" xmlns="http://www.w3.org/2000/svg"><g clip-path="url(#fclip0)"><path d="M12.5 25C19.404 25 25 19.404 25 12.5 25 5.597 19.404 0 12.5 0 5.597 0 0 5.597 0 12.5 0 19.404 5.597 25 12.5 25z" fill="#CB2027"/><path d="M13.509 16.739c-.945-.073-1.342-.542-2.083-.992-.408 2.137-.905 4.186-2.38 5.256-.455-3.23.668-5.656 1.19-8.231-.89-1.498.107-4.511 1.983-3.769 2.31.913-1.999 5.568.893 6.15 3.02.606 4.252-5.24 2.38-7.141-2.706-2.746-7.875-.063-7.24 3.867.155.961 1.148 1.253.397 2.579-1.732-.384-2.248-1.75-2.182-3.57.108-2.98 2.678-5.067 5.257-5.356 3.26-.365 6.321 1.197 6.744 4.265.475 3.462-1.472 7.21-4.959 6.942z" fill="#F1F2F2"/></g><defs><clipPath id="fclip0"><path fill="#fff" d="M0 0h25v25H0z"/></clipPath></defs></svg><svg viewBox="0 0 512 512" id="reindeer" xmlns="http://www.w3.org/2000/svg"><path d="M488 432v48a64 64 0 01-51.2-25.6L408 416h-36.92A63.625 63.625 0 01312 376H128l-5.71-40L104 184l-42.68-16-5.75-2.16A24.027 24.027 0 0140 143.37V120h104l8.97-8.97a24.01 24.01 0 0116.97-7.03H200l-9.97 24.91A23.985 23.985 0 01167.75 144H160l40 112h176l40-16v24a31.991 31.991 0 01-32 32h-8a155.867 155.867 0 018 49.3V376h48l32 56z" fill="#98543a"/><path d="M56 376h80v-40H56a32 32 0 00-32 32v54.059A81.941 81.941 0 0048 480h24v-32l-16-16z" fill="#7e4530"/><circle cx="40" cy="112" fill="#de5540" r="16"/><path d="M112 136h16v16h-16zM83.4 147.94a47.511 47.511 0 01-7.78 10.21 48.962 48.962 0 01-14.3 9.85l-5.75-2.16a23.925 23.925 0 01-11.5-9.11l4.23-1.06a34.379 34.379 0 0016.01-8.84 31.742 31.742 0 005.17-6.77z" fill="#7e4530"/><path d="M88 54.7a15.943 15.943 0 01-5.749 12.29c-.045-.015-.087-.035-.132-.05l-18.854-6.285A31.936 31.936 0 0072 38.7V24H56v14.7a15.988 15.988 0 01-10.947 15.183L44 54.234l-1.06-.354A15.977 15.977 0 0132 38.7V24H16v14.7a31.96 31.96 0 0021.881 30.36L77.06 82.12A15.977 15.977 0 0188 97.3V120h16V97.3a31.933 31.933 0 00-8.124-21.287A31.9 31.9 0 00104 54.7V32H88zM192 24v14.7a15.977 15.977 0 01-10.94 15.18l-1.06.354-1.056-.353A15.985 15.985 0 01168 38.7V24h-16v14.7a31.94 31.94 0 008.734 21.956l-18.853 6.284c-.045.015-.087.035-.132.05A15.943 15.943 0 01136 54.7V32h-16v22.7a31.9 31.9 0 008.124 21.311A31.933 31.933 0 00120 97.3V120h16V97.3a15.977 15.977 0 0110.94-15.18l39.179-13.06A31.96 31.96 0 00208 38.7V24z" fill="#ffb431"/><path d="M311.98 376h-16.86l-14.81-44.74 15.19-5.02zM264 320.01v8.68A63.693 63.693 0 01242.74 376h-41.53A47.3 47.3 0 00248 328.69v-8.68z" fill="#7e4530"/><path d="M200 376v-40h-64a32 32 0 00-32 32v54.059A81.941 81.941 0 00128 480h24v-32l-16-16v-56z" fill="#98543a"/><path d="M104 224h91.998L208 256H104z" fill="#de5540"/><path d="M144 304H88l2.633-5.267A50.819 50.819 0 0096 276a20 20 0 0120-20 20 20 0 0120 20 50.819 50.819 0 005.367 22.733z" fill="#ffb431"/><path d="M200 320v16h-64a31.765 31.765 0 00-13.3 2.89l-.41-2.89-1.56-12.96A39.586 39.586 0 01136 320z" fill="#7e4530"/></svg><svg fill="none" viewBox="0 0 17 17" id="send" xmlns="http://www.w3.org/2000/svg"><path d="M16.648 7.948L.863.663a.61.61 0 00-.727.17.604.604 0 00-.014.745L5.312 8.5l-5.19 6.922a.605.605 0 00.74.915l15.785-7.285a.606.606 0 000-1.103z" fill="#fff"/></svg><svg fill="none" viewBox="0 0 20 20" id="share" xmlns="http://www.w3.org/2000/svg"><path d="M15.86 12.969a3.513 3.513 0 00-2.828 1.428l-5.518-2.82a3.506 3.506 0 00-.115-2.31l5.784-3.474a3.51 3.51 0 002.676 1.238 3.52 3.52 0 003.516-3.515A3.52 3.52 0 0015.859 0a3.52 3.52 0 00-3.277 4.787L6.784 8.27a3.508 3.508 0 00-2.643-1.2 3.52 3.52 0 00-3.516 3.516 3.513 3.513 0 006.374 2.044l5.502 2.812A3.52 3.52 0 0015.86 20a3.52 3.52 0 003.516-3.516 3.52 3.52 0 00-3.516-3.515zm0-11.797a2.346 2.346 0 012.343 2.344 2.346 2.346 0 01-2.344 2.343 2.346 2.346 0 01-2.343-2.343 2.346 2.346 0 012.343-2.344zM4.14 12.93a2.346 2.346 0 01-2.343-2.344A2.346 2.346 0 014.14 8.242a2.346 2.346 0 012.343 2.344 2.346 2.346 0 01-2.343 2.344zm11.72 5.898a2.346 2.346 0 01-2.344-2.344 2.346 2.346 0 012.343-2.343 2.346 2.346 0 012.344 2.343 2.346 2.346 0 01-2.344 2.344z" fill="#fff"/></svg><svg fill="none" viewBox="0 0 45 45" id="tw" xmlns="http://www.w3.org/2000/svg"><g clip-path="url(#jclip0)"><path d="M22.5 45C34.928 45 45 34.926 45 22.5 45 10.073 34.928 0 22.5 0 10.076 0 .002 10.073.002 22.5c0 12.426 10.074 22.5 22.5 22.5z" fill="#55ACEE"/><path d="M36.282 16.17a10.73 10.73 0 01-3.089.846 5.393 5.393 0 002.365-2.975 10.764 10.764 0 01-3.415 1.305 5.373 5.373 0 00-3.927-1.698 5.379 5.379 0 00-5.238 6.604 15.267 15.267 0 01-11.085-5.62 5.355 5.355 0 00-.729 2.704c0 1.865.95 3.512 2.393 4.476a5.34 5.34 0 01-2.436-.673v.068a5.381 5.381 0 004.314 5.273 5.356 5.356 0 01-2.428.093 5.384 5.384 0 005.024 3.735 10.79 10.79 0 01-6.68 2.302c-.434 0-.863-.025-1.283-.075a15.213 15.213 0 008.244 2.416c9.892 0 15.302-8.195 15.302-15.302 0-.233-.005-.465-.016-.696a10.907 10.907 0 002.684-2.783z" fill="#F1F2F2"/></g><defs><clipPath id="jclip0"><path fill="#fff" d="M0 0h45v45H0z"/></clipPath></defs></svg><svg fill="none" viewBox="0 0 25 25" id="vk" xmlns="http://www.w3.org/2000/svg"><path d="M12.5 25C19.404 25 25 19.404 25 12.5S19.404 0 12.5 0 0 5.596 0 12.5 5.596 25 12.5 25z" fill="#4D76A1"/><path fill-rule="evenodd" clip-rule="evenodd" d="M12.028 17.982h.98s.297-.032.449-.195c.139-.15.134-.431.134-.431s-.019-1.317.592-1.51c.603-.191 1.376 1.272 2.196 1.834.62.426 1.09.333 1.09.333l2.193-.03s1.146-.071.603-.973c-.045-.074-.317-.667-1.63-1.886-1.375-1.275-1.19-1.069.465-3.276 1.008-1.343 1.411-2.164 1.285-2.515-.12-.335-.861-.246-.861-.246l-2.468.015s-.183-.025-.319.056c-.132.08-.218.265-.218.265s-.39 1.04-.911 1.924c-1.1 1.867-1.539 1.965-1.718 1.85-.418-.271-.314-1.086-.314-1.665 0-1.808.274-2.562-.534-2.757-.268-.065-.466-.108-1.152-.115-.88-.01-1.626.003-2.048.21-.28.137-.497.443-.365.461.163.022.532.1.728.366.253.344.244 1.117.244 1.117s.146 2.129-.339 2.393c-.333.182-.789-.189-1.769-1.882a15.734 15.734 0 01-.88-1.825s-.074-.18-.204-.275c-.158-.116-.38-.153-.38-.153l-2.345.015s-.352.01-.481.163c-.115.136-.01.418-.01.418s1.837 4.295 3.916 6.46c1.906 1.985 4.07 1.854 4.07 1.854z" fill="#fff"/></svg><svg fill="none" viewBox="0 0 45 45" id="vk-2" xmlns="http://www.w3.org/2000/svg"><path d="M22.5 45C34.926 45 45 34.926 45 22.5S34.926 0 22.5 0 0 10.074 0 22.5 10.074 45 22.5 45z" fill="#4D76A1"/><path fill-rule="evenodd" clip-rule="evenodd" d="M21.65 32.368h1.766s.534-.058.806-.352c.25-.27.243-.776.243-.776s-.035-2.37 1.065-2.718c1.084-.344 2.476 2.29 3.952 3.303 1.116.766 1.963.598 1.963.598l3.946-.055s2.064-.127 1.085-1.75c-.08-.132-.57-1.2-2.933-3.394-2.474-2.296-2.143-1.925.837-5.897 1.815-2.419 2.54-3.896 2.314-4.528-.216-.602-1.551-.443-1.551-.443l-4.442.027s-.33-.044-.574.102c-.239.143-.392.476-.392.476s-.703 1.872-1.641 3.464c-1.978 3.36-2.77 3.537-3.092 3.328-.752-.486-.565-1.953-.565-2.995 0-3.255.494-4.612-.961-4.964-.483-.116-.838-.193-2.073-.206-1.585-.016-2.927.005-3.687.377-.505.248-.895.8-.657.83.293.04.958.18 1.31.66.456.62.44 2.01.44 2.01s.261 3.832-.611 4.308c-.599.327-1.42-.34-3.184-3.387-.903-1.561-1.586-3.287-1.586-3.287s-.131-.322-.366-.494c-.285-.21-.682-.276-.682-.276l-4.222.028s-.634.017-.866.293c-.207.245-.017.752-.017.752s3.305 7.732 7.047 11.628c3.432 3.573 7.328 3.338 7.328 3.338z" fill="#fff"/></svg></svg>