<?xml version="1.0" encoding="utf-8"?><!DOCTYPE svg PUBLIC "-//W3C//DTD SVG 1.1//EN" "http://www.w3.org/Graphics/SVG/1.1/DTD/svg11.dtd"><svg viewBox="0 0 682 682" xmlns="http://www.w3.org/2000/svg" xmlns:xlink="http://www.w3.org/1999/xlink"><style>:root>svg{display:none}:root>svg:target{display:block}</style><svg viewBox="0 0 18 38" id="caright" xmlns="http://www.w3.org/2000/svg"><path d="M1.822 1.956V36.03l13.742-16.846L1.822 1.956z" stroke="#fff" stroke-width="3.365" stroke-linecap="round" stroke-linejoin="round"/></svg><svg fill="none" viewBox="0 0 23 12" id="down-sc" xmlns="http://www.w3.org/2000/svg"><path d="M21.579 1.834H1.324l10.014 8.169 10.24-8.17z" stroke="#fff" stroke-width="2" stroke-linecap="round" stroke-linejoin="round"/></svg><svg viewBox="0 0 24 24" id="facebook" xmlns="http://www.w3.org/2000/svg"><path d="M15.997 3.985h2.191V.169C17.81.117 16.51 0 14.996 0c-3.159 0-5.323 1.987-5.323 5.639V9H6.187v4.266h3.486V24h4.274V13.267h3.345l.531-4.266h-3.877V6.062c.001-1.233.333-2.077 2.051-2.077z"/></svg><svg fill="none" viewBox="0 0 10 20" id="fb" xmlns="http://www.w3.org/2000/svg"><path clip-rule="evenodd" d="M6.654 19.173H2.563V9.679H.518V6.406h2.045V4.442c0-2.67 1.155-4.258 4.433-4.258h2.73v3.273H8.02c-1.278 0-1.362.458-1.362 1.312l-.005 1.637h3.092l-.362 3.273h-2.73v9.494z"/></svg><svg fill="none" viewBox="0 0 44 9" id="pag-line" xmlns="http://www.w3.org/2000/svg"><path d="M43.06 4.988l-4.702-3.559V8.23l4.701-3.242z" fill="#fff"/><path d="M1.425 4.988h36.933m0-3.559l4.701 3.559-4.701 3.242v-6.8z" stroke="#fff" stroke-width="1.198" stroke-linecap="round" stroke-linejoin="round"/></svg><svg viewBox="0 0 31 31" id="steam" xmlns="http://www.w3.org/2000/svg"><path clip-rule="evenodd" d="M15.775 30.509c8.319 0 15.062-6.716 15.062-15 0-8.284-6.743-15-15.062-15-8.32 0-15.063 6.716-15.063 15 0 1.528.23 3.003.656 4.392.108.02.284.064.54.139l-.4-6.273c0-.115.195-.17.374-.221.097-.028.19-.054.244-.088.145-.092 3.137.996 3.296 1.068l3.826 1.724a4.932 4.932 0 013.332-.703l3.477-4.222c.043-3.37 2.803-6.084 6.198-6.089 3.172.034 5.801 2.44 6.102 5.574.32 3.389-2.18 6.393-5.589 6.715l-5.791 4.116a5.121 5.121 0 01-3.405 3.87c-2.687.905-5.607-.53-6.513-3.206l-2.014-.664c-.15-.048-2.891-1.183-3.634-1.6a15.063 15.063 0 0014.364 10.468zm9.58-19.112a3.09 3.09 0 01-3.1 3.081 3.09 3.09 0 01-3.099-3.08 3.09 3.09 0 013.1-3.081 3.09 3.09 0 013.099 3.08zm-1.031 0a2.062 2.062 0 01-2.068 2.056 2.062 2.062 0 01-2.068-2.056c0-1.135.926-2.055 2.068-2.055s2.068.92 2.068 2.055zM10.58 23.412c.417.202.877.308 1.342.308.353 0 .697-.058 1.036-.168a3.074 3.074 0 00.33-5.685.518.518 0 00-.693.236.512.512 0 00.237.688 2.045 2.045 0 01.988 2.816 2.07 2.07 0 01-2.784.88.518.518 0 00-.693.237.512.512 0 00.237.688z"/></svg><svg viewBox="0 0 432.081 432.081" id="triang" xmlns="http://www.w3.org/2000/svg"><path d="M37.604 432.081a10 10 0 01-10-10V10a10 10 0 0115-8.66l356.873 206.04a10 10 0 010 17.32L42.604 430.741a9.971 9.971 0 01-5 1.34zm10-404.761v377.441l326.873-188.722L47.604 27.32z"/></svg><svg fill="none" viewBox="0 0 19 15" id="tw" xmlns="http://www.w3.org/2000/svg"><path opacity=".3" d="M18.066 2.294a7.671 7.671 0 01-2.124.556A3.581 3.581 0 0017.567.894a7.617 7.617 0 01-2.348.858 3.771 3.771 0 00-2.7-1.116c-2.04 0-3.697 1.582-3.697 3.534 0 .277.032.547.096.805-3.074-.147-5.798-1.553-7.622-3.692a3.395 3.395 0 00-.5 1.777c0 1.225.652 2.307 1.644 2.941a3.805 3.805 0 01-1.675-.442v.045c0 1.712 1.275 3.14 2.966 3.465a3.886 3.886 0 01-1.67.06c.47 1.405 1.837 2.427 3.454 2.456a7.65 7.65 0 01-4.592 1.512 8.04 8.04 0 01-.882-.049 10.827 10.827 0 005.669 1.588c6.802 0 10.52-5.386 10.52-10.056 0-.153 0-.306-.01-.458a7.368 7.368 0 001.845-1.828h.001z" fill="#fff"/></svg><svg viewBox="0 0 24 24" id="twitch" xmlns="http://www.w3.org/2000/svg"><path d="M.975 4.175v16.694h5.749V24h3.139l3.134-3.132h4.705l6.274-6.258V0H2.542zm3.658-2.09h17.252v11.479l-3.66 3.652h-5.751L9.34 20.343v-3.127H4.633z"/><path d="M10.385 6.262h2.09v6.26h-2.09zM16.133 6.262h2.091v6.26h-2.091z"/></svg><svg viewBox="0 0 512 512" id="twitter" xmlns="http://www.w3.org/2000/svg"><path d="M512 97.248c-19.04 8.352-39.328 13.888-60.48 16.576 21.76-12.992 38.368-33.408 46.176-58.016-20.288 12.096-42.688 20.64-66.56 25.408C411.872 60.704 384.416 48 354.464 48c-58.112 0-104.896 47.168-104.896 104.992 0 8.32.704 16.32 2.432 23.936-87.264-4.256-164.48-46.08-216.352-109.792-9.056 15.712-14.368 33.696-14.368 53.056 0 36.352 18.72 68.576 46.624 87.232-16.864-.32-33.408-5.216-47.424-12.928v1.152c0 51.008 36.384 93.376 84.096 103.136-8.544 2.336-17.856 3.456-27.52 3.456-6.72 0-13.504-.384-19.872-1.792 13.6 41.568 52.192 72.128 98.08 73.12-35.712 27.936-81.056 44.768-130.144 44.768-8.608 0-16.864-.384-25.12-1.44C46.496 446.88 101.6 464 161.024 464c193.152 0 298.752-160 298.752-298.688 0-4.64-.16-9.12-.384-13.568 20.832-14.784 38.336-33.248 52.608-54.496z"/></svg><svg fill="none" viewBox="0 0 20 19" id="twtch" xmlns="http://www.w3.org/2000/svg"><path clip-rule="evenodd" d="M19.96 13.625V.68H2.94L.81 2.977v12.11h5.32v3.758h2.34l2.553-2.714h6.383l2.553-2.506zm-12.553-.209H4.003A.423.423 0 013.577 13V2.769c0-.23.192-.418.426-.418H17.62c.234 0 .425.188.425.417v7.934a.41.41 0 01-.122.298l-2.34 2.296a.435.435 0 01-.304.12h-3.91L8.073 15.64a.43.43 0 01-.436.026.412.412 0 01-.23-.37v-1.88z"/><path d="M13.79 9.763V5.587h-1.702v4.176h1.702zm-4.255 0V5.587H7.833v4.176h1.702z"/></svg><svg viewBox="0 0 31 31" id="xbox" xmlns="http://www.w3.org/2000/svg"><path d="M10.551 3.158a22.246 22.246 0 014.56 2.444c.164.112.351.17.54.17a.964.964 0 00.539-.17 22.27 22.27 0 014.56-2.45.935.935 0 00.592-.879.925.925 0 00-.605-.867C17.57.205 13.732.205 10.57 1.406a.944.944 0 00-.018 1.752z"/><path d="M24.159 3.164a.94.94 0 00-1.004-.041 40.987 40.987 0 00-5.052 3.434.942.942 0 00-.064 1.412c3.32 3.16 7.921 12.847 8.977 17.3-2.288-3.867-7.393-12.969-10.731-16.08a.942.942 0 00-1.28 0C11.661 12.3 6.574 21.406 4.285 25.28 5.342 20.827 9.93 11.128 13.251 7.97a.933.933 0 00-.059-1.412A41.445 41.445 0 008.14 3.123a.941.941 0 00-1.003.04A14.992 14.992 0 00.624 15.507c0 3.598 1.297 7.068 3.661 9.775a14.897 14.897 0 0011.36 5.228c4.395 0 8.537-1.905 11.371-5.233a14.849 14.849 0 003.65-9.77c0-4.923-2.435-9.535-6.507-12.342z"/></svg><svg viewBox="-21 -117 682.667 682" id="youtube" xmlns="http://www.w3.org/2000/svg"><path d="M626.813 64.035c-7.375-27.418-28.993-49.031-56.407-56.414C520.324-6.082 319.992-6.082 319.992-6.082s-200.324 0-250.406 13.184c-26.887 7.375-49.031 29.52-56.406 56.933C0 114.113 0 217.97 0 217.97s0 104.379 13.18 153.933c7.382 27.414 28.992 49.028 56.41 56.41C120.195 442.02 320 442.02 320 442.02s200.324 0 250.406-13.184c27.418-7.379 49.032-28.992 56.414-56.406 13.176-50.082 13.176-153.934 13.176-153.934s.527-104.383-13.183-154.46zM256.21 313.915V122.022l166.586 95.946zm0 0"/></svg></svg>