<svg id="Capa_1" enable-background="new 0 0 510 510" height="512" viewBox="0 0 510 510" width="512" xmlns="http://www.w3.org/2000/svg"><g><path d="m378.541 300 90-45-90-45 90-45-213.541-106.771-213.541 106.771 90 45-90 45 90 45-90 45 213.541 106.771 213.541-106.771zm-270-135 146.459-73.229 146.459 73.229c-4 2-142.463 71.232-146.459 73.23-3.995-1.998-142.459-71.23-146.459-73.23zm0 90 56.459-28.23 90 45 90-45 56.459 28.23c-4 2-142.463 71.232-146.459 73.229-3.995-1.997-142.459-71.229-146.459-73.229zm0 90 56.459-28.229 90 45 90-45 56.459 28.229-146.459 73.229z"/><path d="m375 0v30h105v105h30v-135z"/><path d="m30 30h105v-30h-135v135h30z"/><path d="m480 480h-105v30h135v-135h-30z"/><path d="m30 375h-30v135h135v-30h-105z"/></g></svg>