<?xml version="1.0" encoding="utf-8"?><svg viewBox="0 0 512 512" xmlns="http://www.w3.org/2000/svg" xmlns:xlink="http://www.w3.org/1999/xlink"><style>:root>svg{display:none}:root>svg:target{display:block}</style><svg viewBox="0 0 507.974 507.974" id="bottle" xmlns="http://www.w3.org/2000/svg"><path d="M350.574 142.448l-55.621-71.526V49.159h8.193a8.193 8.193 0 008.193-8.193V8.193A8.193 8.193 0 00303.146 0h-98.318a8.193 8.193 0 00-8.193 8.193v32.773a8.193 8.193 0 008.193 8.193h8.193v21.763L157.4 142.448a8.134 8.134 0 00-1.731 5.029v311.339c.029 27.138 22.021 49.13 49.159 49.159h98.318c27.138-.029 49.13-22.021 49.159-49.159v-311.34a8.14 8.14 0 00-1.731-5.028zM213.021 16.386h81.931v16.386h-81.931zm122.897 442.429c-.02 18.091-14.681 32.752-32.773 32.773h-98.318c-18.091-.02-32.752-14.681-32.773-32.773V217.374a88.452 88.452 0 0119.694 3.554c7.906 2.151 16.079 4.383 32.199 4.383s24.282-2.233 32.189-4.383a90.553 90.553 0 0127.887-3.81 90.458 90.458 0 0127.887 3.81 103.238 103.238 0 0024.006 4.168v233.719zm0-250.146a88.338 88.338 0 01-19.694-3.554c-7.906-2.151-16.079-4.383-32.199-4.383s-24.293 2.233-32.199 4.383a90.43 90.43 0 01-27.877 3.81 90.458 90.458 0 01-27.887-3.81 103.238 103.238 0 00-24.006-4.168v-50.654l55.621-71.526a8.134 8.134 0 001.731-5.029V49.159h49.159v24.579a8.134 8.134 0 001.731 5.029l55.621 71.526v58.376z"/><path d="M253.987 450.622h-57.352a8.193 8.193 0 100 16.386h57.352a8.193 8.193 0 100-16.386zM286.76 450.622h-8.193a8.193 8.193 0 100 16.386h8.193a8.193 8.193 0 100-16.386zM245.794 73.738h16.386a8.193 8.193 0 100-16.386h-16.386a8.193 8.193 0 100 16.386z"/></svg><svg viewBox="0 0 283.46 283.46" id="d-1" xmlns="http://www.w3.org/2000/svg"><defs><style>.bcls-1{isolation:isolate}.bcls-2{fill:#fbd829}.bcls-3{fill:#ecb49f}.bcls-4{fill:#da905e}.bcls-4,.bcls-7{mix-blend-mode:multiply}.bcls-5{fill:#01015e}.bcls-16,.bcls-6{fill:#fff}.bcls-7{fill:#f4d7b6}.bcls-8{fill:#596a83}.bcls-9{fill:none;stroke:#01015e;stroke-miterlimit:10;stroke-width:.5px}.bcls-10{fill:#de6264}.bcls-11{fill:#f2a44c}.bcls-12{fill:#d43e3a}.bcls-13{fill:#5fa469}.bcls-14{fill:#ffd72d}.bcls-15{fill:#ffba32}.bcls-16{opacity:.4}.bcls-17{fill:#de626b}.bcls-18{fill:#ecefff}.bcls-19{fill:#ffa132}.bcls-20{fill:#d0dcef}.bcls-21{fill:#10c6b6}</style></defs><g class="bcls-1"><g id="bLayer_1" data-name="Layer 1"><path class="bcls-2" d="M30.83 45.88C-13 105.66 12.2 182.55 39.68 214.69c41.56 48.59 165.71 93.36 187.19 31.56 9.43-27.16-62-45.69-9.47-66.24 44-17.19 74.47-75.94 50.64-123.59C239.8 0 74.66-13.9 30.83 45.88z"/><path class="bcls-3" d="M77.42 263h44.8c-1-5.17-3.87-24.15 4.21-36.56 9.43-14.47 20.81-34.12 25.13-53.42s-69.5-38.6-89.53 6.55 3.14 83.06 3.14 83.06z"/><path class="bcls-4" d="M64.33 159.58s28.24 22.36 12.41 65.87c0 0 21.36-44.65-12.41-65.87z"/><rect class="bcls-5" x="59.5" y="34.86" width="97.39" height="158.13" rx="3.14" ry="3.14"/><path class="bcls-6" d="M151.13 167.78a2.65 2.65 0 01-2.77 2.51H68a2.65 2.65 0 01-2.77-2.51V46.72A2.65 2.65 0 0168 44.21h80.33a2.65 2.65 0 012.77 2.51z"/><path class="bcls-3" d="M54.53 262.8l9.58.21h11v-50.46c15.54-27.42-5.14-45.45-8.28-50.62s-.27-24.13 1-36.77c1.18-11.41-2.22-17.69-8.9-17 0 0-3.93-.69-5.5 13.1s-5.49 25-10.3 32.81c-3 4.9-13.13 27.5-4.1 49.22s15.5 59.51 15.5 59.51zM151.45 169.19l-7.54 9.75c-7.54 9.75-3.25 10.28-3.25 10.28s3.76 4.82 17.28-11.71 9.81-21.73 9.81-21.73.4-4.42-10.33-1.28z"/><path class="bcls-4" d="M151.45 169.19l-3.2 4.13c5.21-2.24 12.39-10.79 16.82-19.85-1.52-.24-3.91-.06-7.65 1z"/><path class="bcls-3" d="M157.09 123.17s16.18 8.25 11.73 21.21-17 27.49-23 26.31-2.33-8.2 1.31-14.88 8.39-13.39 8.39-13.39z"/><path class="bcls-4" d="M157.09 123.17l-1.62 19.25s-3.22 4.55-6.39 9.89c5.23-1.89 12.88-11.4 17.31-21.3a30.33 30.33 0 00-9.3-7.84z"/><path class="bcls-3" d="M156.67 103.28s15.71 8.24 11.39 21.2-16.5 27.49-22.39 26.31-2.26-8.2 1.27-14.87 8.16-13.4 8.16-13.4z"/><path class="bcls-7" d="M56.63 110.52s4.71 4.71 3.92 11-7.07 4.71-7.07 4.71.79-13.35 3.15-15.71zM148.25 138s-5 8.64-2.61 11.52 9.16-2.62 9.94-5.5-4.71-6.27-7.33-6.02zM148 157.91s-5 8.64-2.62 11.52 9.17-2.62 9.95-5.5-4.72-6.28-7.33-6.02zM145.31 180.41s-4.37 5.81-2.93 8.1 6.87-1.07 7.7-3.09-2.85-4.97-4.77-5.01z"/><circle class="bcls-8" cx="105.78" cy="180.97" r="8"/><circle class="bcls-5" cx="105.78" cy="180.97" r="6.08"/><path class="bcls-9" d="M167.08 131.53a50.23 50.23 0 002.34-5.69c4.32-13-11.39-21.2-11.39-21.2l-1.57 19.24s-4.62 6.72-8.16 13.4-7.16 13.72-1.3 14.87c1.5.3 3.4-.42 5.48-1.86-.36.57-7.77 2.9-10.12 17.08a1.36 1.36 0 000 .64l-1.1 2s-47 1.43-68.36 0c-1.68-2.15-4.12-5.64-4.77-6.71-3.15-5.17-.27-24.13 1-36.77 1.18-11.41-2.22-17.69-8.9-17 0 0-3.93-.69-5.5 13.1s-5.49 25-10.3 32.81c-3 4.9-13.13 27.5-4.1 49.22s15.45 59.51 15.45 59.51l9.58.21h11v-.07l2.3.07h44.8c-1-5.17-3.87-24.15 4.21-36.56 6.93-10.65 14.92-24.1 20.39-38.15 2.62-1.63 6.22-4.81 11.12-10.79 13.52-16.53 9.81-21.73 9.81-21.73s.19-2.07-3.14-2.37a52 52 0 004.21-9c2.1-5.78-.06-10.66-2.98-14.25z"/><path class="bcls-10" d="M92.37 140.48v2.32c0 2.84-1.37 4.39-4.17 4.39h-1.32v6.67h-2.79v-17.77h4.11c2.8 0 4.17 1.55 4.17 4.39zm-5.49-1.85v6h1.32c.89 0 1.37-.41 1.37-1.68v-2.66c0-1.27-.48-1.68-1.37-1.68zM94.42 136.09h2.8v17.77h-2.8zM107.63 136.09v2.49l-5.31 12.75h5.31v2.53h-8.18v-2.48l5.31-12.75H99.7v-2.54zM117.65 136.09v2.49l-5.3 12.75h5.3v2.53h-8.17v-2.48l5.31-12.75h-5.06v-2.54zM129 153.86h-2.82l-.48-3.22h-3.43l-.48 3.22h-2.59l2.85-17.77h4.08zm-6.38-5.63h2.7l-1.35-9z"/><path class="bcls-11" d="M211.77 113.84a5.1 5.1 0 01-10.09-.21l-23.11 13.51S187 147.78 208 147.93l3.46-9.21a5 5 0 01-.85-.07 5.44 5.44 0 114.46-9.5l11.3-29.95-16.57 9.69a5.1 5.1 0 011.97 4.95zm-18.45 21.75a4.16 4.16 0 114.81-3.37 4.16 4.16 0 01-4.81 3.37z"/><path class="bcls-12" d="M215.26 49.86c2.55 5.49-.53 12.32-6.87 15.26s-13.54.88-16.09-4.62a10.56 10.56 0 011-10.28c1.34-2 6.29-3.89 6.29-3.89s4.7-2.63 7.13-2.32a10.55 10.55 0 018.54 5.85z"/><path class="bcls-13" d="M201.12 45.15a1.78 1.78 0 00.41-.95 1.68 1.68 0 00-.31-1.12l-1.91 2.45-3.11-.12a1.51 1.51 0 00.67 1 1.73 1.73 0 001 .3 26.36 26.36 0 01-4 1.41c2.78 2.27 4.65.14 4.65.14.41 1.73 2.58 1.22 2.58 1.22s1.79-1.33.74-2.76c0 0 2.83 0 2.9-3.64a27.37 27.37 0 01-3.62 2.07z"/><ellipse class="bcls-8" cx="108.45" cy="88.7" rx="38.7" ry="38.54"/><circle class="bcls-14" cx="107.17" cy="87.26" r="35.82" transform="rotate(-45 107.173 87.257)"/><circle class="bcls-9" cx="108.53" cy="88.62" r="35.82" transform="rotate(-45 108.53 88.625)"/><path class="bcls-15" d="M137.53 87.26a30.36 30.36 0 11-30.36-30.36 30.36 30.36 0 0130.36 30.36z"/><path class="bcls-9" d="M135.82 87.26a28.66 28.66 0 11-28.65-28.66 28.65 28.65 0 0128.65 28.66z"/><path class="bcls-16" d="M135.82 87.26a28.66 28.66 0 11-28.65-28.66 28.65 28.65 0 0128.65 28.66z"/><path class="bcls-12" d="M105.46 70.54a4.78 4.78 0 11-4.77-4.77 4.78 4.78 0 014.77 4.77zM131.39 89.31a4.78 4.78 0 11-4.78-4.78 4.78 4.78 0 014.78 4.78zM103.76 101.93A4.78 4.78 0 1199 97.15a4.78 4.78 0 014.76 4.78zM90.11 86.92a4.78 4.78 0 11-4.78-4.78 4.77 4.77 0 014.78 4.78zM124.91 68.84a4.78 4.78 0 11-4.78-4.78 4.78 4.78 0 014.78 4.78zM120.81 108.07a4.78 4.78 0 11-4.77-4.78 4.77 4.77 0 014.77 4.78z"/><path class="bcls-5" d="M106.15 94.42a1.71 1.71 0 11-1.71-1.7 1.71 1.71 0 011.71 1.7zM98.3 91a1.71 1.71 0 11-3.41 0 1.71 1.71 0 013.41 0zM118.43 79.41a1.71 1.71 0 11-1.71-1.7 1.71 1.71 0 011.71 1.7zM92.5 73.61a1.71 1.71 0 11-1.71-1.7 1.7 1.7 0 011.71 1.7zM123.54 98.18a1.71 1.71 0 11-1.7-1.71 1.7 1.7 0 011.7 1.71zM104.78 111.82a1.71 1.71 0 11-1.71-1.7 1.71 1.71 0 011.71 1.7zM90.45 102.27a1.71 1.71 0 11-1.7-1.71 1.71 1.71 0 011.7 1.71z"/><path class="bcls-17" d="M113.65 87.94a2.73 2.73 0 11-2.73-2.73 2.73 2.73 0 012.73 2.73zM111.94 62.87a2.22 2.22 0 11-2.21-2.22 2.21 2.21 0 012.21 2.22zM98.64 86.07a1.54 1.54 0 11-1.54-1.54 1.54 1.54 0 011.54 1.54zM127.64 101.08a1.2 1.2 0 11-1.2-1.2 1.19 1.19 0 011.2 1.2zM129.34 79.24a1.88 1.88 0 11-1.87-1.87 1.88 1.88 0 011.87 1.87z"/><path class="bcls-13" d="M106.83 80.1s-4.78-9.9 5.12-11.94c.05 0 5.45 7.16-5.12 11.94zM110.58 93.74s5.46-3.41 7.51 4.78c0 0-4.44 2.73-7.51-4.78zM92.68 80.14s-1.11-5.45-7.23-1.48c0 0 3 4.67 7.23 1.48z"/><path class="bcls-18" d="M112.56 89.83a4.48 4.48 0 006.26-6.26l-.1-.11a1.39 1.39 0 10-2 2l-.13.13c-.82-.18-1.77-.9-1.65-3.3 0 0-.26-.47-2.18 1.44S111.25 86 111.25 86c2.4-.12 3.12.83 3.3 1.65l-.13.13a1.39 1.39 0 00-2 2zM127.17 77.38a4.47 4.47 0 00-7.47-4.74l-.09.12a1.39 1.39 0 002.39 1.49l.16.11c0 .84-.49 1.92-2.86 2.32 0 0-.41.36 1.88 1.81s2.57 1 2.57 1c-.65-2.31.12-3.23.88-3.58l.16.1a1.39 1.39 0 002.35 1.49.83.83 0 00.03-.12zM85.92 93.69a4.48 4.48 0 008.13 3.52l.06-.14A1.39 1.39 0 1091.56 96l-.18-.08c-.13-.83.19-2 2.47-2.74 0 0 .34-.42-2.14-1.5S89 91.06 89 91.06c1 2.18.38 3.2-.32 3.67l-.17-.08a1.4 1.4 0 00-.73-1.83 1.38 1.38 0 00-1.82.73.59.59 0 00-.04.14zM93.68 76.45a4.48 4.48 0 008.13 3.55l.06-.13a1.38 1.38 0 00-.72-1.83 1.39 1.39 0 00-1.83.72l-.18-.08c-.13-.83.19-2 2.47-2.74 0 0 .34-.42-2.14-1.5s-2.69-.59-2.69-.59c1 2.18.38 3.2-.32 3.67l-.17-.07a1.39 1.39 0 00-2.55-1.11 1.47 1.47 0 00-.06.11zM105.28 99.31a4.48 4.48 0 008.12 3.52.91.91 0 00.07-.14 1.39 1.39 0 10-2.55-1.1l-.18-.08c-.13-.83.19-2 2.47-2.74 0 0 .34-.42-2.14-1.5s-2.69-.59-2.69-.59c1 2.18.38 3.2-.32 3.67l-.17-.08a1.39 1.39 0 00-2.56-1.1z"/><path class="bcls-9" d="M113.92 91.19a4.48 4.48 0 006.26-6.26l-.1-.11a1.39 1.39 0 00-2 2l-.13.13c-.82-.18-1.77-.9-1.65-3.3 0 0-.26-.47-2.18 1.44s-1.54 2.28-1.54 2.28c2.4-.12 3.12.83 3.3 1.65l-.13.13a1.39 1.39 0 00-2 2zM128.53 78.74a4.47 4.47 0 00-7.47-4.74l-.09.12a1.39 1.39 0 002.35 1.49l.16.11c0 .84-.49 1.92-2.86 2.32 0 0-.41.36 1.88 1.81s2.57 1 2.57 1c-.65-2.32.12-3.23.88-3.58l.16.1a1.39 1.39 0 002.35 1.49.83.83 0 00.07-.12zM87.28 95.05a4.48 4.48 0 008.13 3.52l.06-.14a1.39 1.39 0 10-2.55-1.1l-.18-.08c-.13-.83.19-2 2.47-2.74 0 0 .34-.42-2.14-1.5s-2.69-.59-2.69-.59c1 2.18.38 3.2-.32 3.67l-.17-.09a1.4 1.4 0 00-.73-1.83 1.38 1.38 0 00-1.82.73.59.59 0 00-.06.15zM95 77.81a4.48 4.48 0 008.13 3.52l.06-.13a1.38 1.38 0 00-.72-1.83 1.39 1.39 0 00-1.83.72l-.14-.09c-.13-.83.19-2 2.47-2.74 0 0 .34-.42-2.14-1.5s-2.69-.59-2.69-.59c1 2.18.38 3.2-.32 3.67l-.17-.07a1.39 1.39 0 00-2.55-1.11 1.47 1.47 0 00-.1.15zM106.64 100.67a4.48 4.48 0 008.12 3.52.91.91 0 00.07-.14 1.39 1.39 0 10-2.55-1.1l-.18-.08c-.13-.83.19-2 2.47-2.74 0 0 .34-.42-2.14-1.5s-2.69-.59-2.69-.59c1 2.18.38 3.2-.32 3.67l-.17-.08a1.39 1.39 0 00-2.56-1.1z"/><path class="bcls-19" d="M105.16 88.79a2.85 2.85 0 01-1.63-.44l-.38-.24.23-.4A9.49 9.49 0 01105 85.9c1.15-1.13 2.73-2.67 2.4-3.6a.78.78 0 00-.42-.51c-.66-.31-2 .19-3 .59a9.56 9.56 0 01-1.85.58L102 82a9 9 0 001.63-.52c1.29-.49 2.75-1 3.77-.57a1.76 1.76 0 01.93 1.06c.54 1.51-1.16 3.16-2.65 4.61-.43.42-.85.83-1.15 1.17a3.53 3.53 0 001.25 0l.07 1zM104.06 111.43v-.64-1.38a10.31 10.31 0 00-.2-2.48 4.27 4.27 0 00-.87.22l-.36-.89a5.49 5.49 0 011.51-.33h.38l.13.35a9.58 9.58 0 01.37 3.16v.59a6.53 6.53 0 001.37-1.36 11.75 11.75 0 011.2-1.3l.33-.3.32.31a7.16 7.16 0 011.49 1.92l-.89.34a5.26 5.26 0 00-.93-1.24c-.29.29-.54.59-.79.89a5.57 5.57 0 01-2.38 2zM93.63 67.31l-.89-.31a9.22 9.22 0 011-1.7l.47-.7.22-.35.38.17a3 3 0 00.83.16 5 5 0 011.12.23c.66-1.14 1.49-2.46 2.51-4l.8.52c-1.13 1.74-2 3.18-2.7 4.38l-.26.46-.43-.3a2.6 2.6 0 00-1.15-.3 5.54 5.54 0 01-.71-.12l-.28.42a8.2 8.2 0 00-.91 1.44zM122.85 95.76l-.33-.9a10 10 0 011.93-.4c.29 0 .56-.07.83-.12l.41-.07.13.4a3.21 3.21 0 00.43.73 4.52 4.52 0 01.58 1c1.29-.26 2.83-.54 4.68-.83l.15 1c-2.06.32-3.71.62-5.07.92l-.51.11-.08-.6a2.54 2.54 0 00-.54-1.06 4.74 4.74 0 01-.39-.6l-.5.07a8 8 0 00-1.72.35zM82.21 82.19l-.57-.77c.54-.41.78-.74.81-1.16-1.54-.17-2-.86-2-1.43-.17-1.58 2.37-3.6 3.75-4l.25.92c-1.19.32-3.14 2.07-3 3 0 .48 1.09.58 1.53.6h.38l.07.38a2.37 2.37 0 01-1.22 2.46zM93.4 109.57a7.06 7.06 0 00-1.28-2.22l-.17.15a3.55 3.55 0 00-1.11 1.37l-.12.3h-.33c-1.71 0-2.55-1.43-3.29-2.68l-.13-.22.82-.49.14.22c.61 1 1.18 2 2.17 2.19a4.7 4.7 0 011.22-1.41c.16-.14.33-.29.5-.46l.35-.35.34.37a8.49 8.49 0 011.81 3zM133.76 86a9.7 9.7 0 01-3.18-.76l-.25-.1-.05-.27a5.24 5.24 0 010-1.77l.05-.25.23-.1a3.31 3.31 0 002-3l-.68-.34a21.54 21.54 0 00-2-.94l.33-.9a22.8 22.8 0 012.14 1c.31.16.61.32.91.46l.25.12v.26a4.19 4.19 0 01-2.32 4.13 4.06 4.06 0 000 .92 8 8 0 002.6.6z"/><path class="bcls-16" d="M116.82 54.8s-29.75-12-43.18 25.91c0 0 10.08-31.71 43.18-25.91z"/><circle class="bcls-16" cx="197.57" cy="53.04" r="2.88"/><path class="bcls-12" d="M250.17 127c-2.06 3.86-7.34 5.06-11.8 2.68s-6.4-7.43-4.34-11.29a7.67 7.67 0 016.38-3.88c1.77-.12 5 1.94 5 1.94s3.57 1.56 4.45 3.1a7.65 7.65 0 01.31 7.45z"/><path class="bcls-13" d="M246.72 116.75a1.31 1.31 0 00.73-.18 1.16 1.16 0 00.51-.66h-2.24l-1.29-1.91a1.11 1.11 0 00-.26.8 1.39 1.39 0 00.25.7 19.83 19.83 0 01-2.55-1.69c-.09 2.59 1.95 2.75 1.95 2.75-.82 1 .42 2 .42 2s1.58.48 1.94-.75c0 0 1.27 1.61 3.37.08a18.75 18.75 0 01-2.83-1.14z"/><path class="bcls-16" d="M241.88 119.8a2.08 2.08 0 11.41-2.91 2.07 2.07 0 01-.41 2.91z"/><path class="bcls-20" d="M253.3 66.54c3.54-3 3.88-8.57.7-12.72s-8.68-5.27-12.45-2.63l-.28.19A3 3 0 00245 56.2l.26.34c-.63 1.72-2.46 3.56-7.61 2.61 0 0-1.11.43 2.48 5.13s4.51 4 4.51 4c.41-5.23 2.67-6.52 4.5-6.67l.26.33a3 3 0 103.69 4.82zM182.42 71.19c-2.81-3-7.81-3-11.33 0s-4.23 8-1.68 11.2a1.3 1.3 0 00.18.23 2.7 2.7 0 104.09-3.53l.28-.25c1.57.47 3.3 2 2.72 6.63 0 0 .45 1 4.42-2.48s3.31-4.21 3.31-4.21c-4.66-.09-5.92-2-6.16-3.65l.28-.24a2.7 2.7 0 004.09-3.54z"/><path class="bcls-5" d="M220.71 80.09c1.23 2 .82 4.55-.92 5.6s-4.15.24-5.38-1.81-.81-4.54.93-5.59 4.14-.24 5.37 1.8zM181.42 30.76c1 2.17.26 4.61-1.6 5.44s-4.14-.27-5.11-2.45-.26-4.61 1.6-5.44 4.14.27 5.11 2.45z"/><path class="bcls-6" d="M177.11 30.49a1 1 0 11-1-1 1 1 0 011 1z"/><path class="bcls-18" d="M216.84 81.19a.64.64 0 01-.64.64.64.64 0 01-.64-.64.64.64 0 011.28 0z"/><path class="bcls-5" d="M187.88 171c-1 3.38-4.18 5.42-7.07 4.56s-4.39-4.32-3.37-7.71 4.18-5.43 7.06-4.56 4.4 4.29 3.38 7.71z"/><circle class="bcls-6" cx="181.24" cy="166.55" r="1.78"/><path class="bcls-5" d="M144.52 229.72c2.54 1.76 3.39 4.95 1.88 7.12s-4.78 2.49-7.33.73-3.39-5-1.88-7.12 4.81-2.45 7.33-.73z"/><circle class="bcls-6" cx="139.04" cy="234.06" r="1.56"/><path class="bcls-21" d="M186.38 105.65s-1.68-15.83 20.39-11.75c0 0-4.32 16.55-20.39 11.75zM36.22 72.07s-3.36 15.35 11 15.35c.03 0 5.78-9.11-11-15.35z"/><path class="bcls-12" d="M36.18 111.72l-.52-.38-.28-.19-.31-.12-.35-.15-.46-.1a5.16 5.16 0 00-1.08-.08 4.79 4.79 0 00-1.18.3 3.52 3.52 0 00-2 2 13.3 13.3 0 00-.39 1.9c0 .21-.09.41-.14.61s-.15.45-.23.67a5 5 0 01-.36.68l-.1.17-.16.2-.18.22a3.87 3.87 0 01-.54.54 6.68 6.68 0 01-.58.47c-.36.29-.71.53-1 .78a4.09 4.09 0 00-.73.69 1.45 1.45 0 00-.19.33c-.14.18.12-.12.09-.08l-.09.17-.14.29-.15.28-.07.15v.08a1.2 1.2 0 010 .24v.65a4.91 4.91 0 00.39 1.07c.14.12.16.3.3.41a.86.86 0 01.07.1v.05l-.11-.09.06.06.25.22a.59.59 0 01.11.09h.13c.08 0 .16.08.24.12a2.33 2.33 0 00.53.16 2.81 2.81 0 01.29 0h.14c-.09 0 .41-.09-.28.1l.18-.05.32-.09c.1 0 .25-.07.23-.08s0 0 .15-.07l.74-.38a9.56 9.56 0 011.11-.4h1.41a3.28 3.28 0 011.91.74 5.37 5.37 0 01.4.36l.17.19.06.09c-.34-.11-.06 0-.14 0l.58.3c.13.08.09 0 .13.06h.08a2.86 2.86 0 001.48.07 3.19 3.19 0 001.45-.74l.21-.21a.64.64 0 00.12-.14 2.47 2.47 0 00.23-.28 4.88 4.88 0 00.4-.75 3.89 3.89 0 00.23-1.65v-.3c0-.12 0 0 0 0v-.13c0-.16-.09-.37-.14-.49l-.13-.3a2.7 2.7 0 00-.21-.35 2.56 2.56 0 00-.26-.34l-.32-.38-.31-.38A3.38 3.38 0 0137 118a1.78 1.78 0 010-1.28c.11-.33.22-.58.31-.81s.08-.24.11-.35V115.22l.06-.36v-.31a3.73 3.73 0 00-.18-1.14 4.31 4.31 0 00-.8-1.37l-.4-.39zm.8-.93s.17.2.46.57a5.8 5.8 0 01.8 1.83 6 6 0 01.16 1.41v1.2c0 .13-.05.28-.08.42s-.14.56-.18.79a.51.51 0 00.09.44c0 .06.12.12.16.19l.37.29.37.28a4.72 4.72 0 01.43.37 4.51 4.51 0 01.43.44l.41.57c.11.19.17.32.26.48l.07.12v.06l.06.16.1.31a5.66 5.66 0 01.23 2.76 6.91 6.91 0 01-.41 1.42 6.33 6.33 0 01-.76 1.34 6.81 6.81 0 01-6 2.72l-.55-.08-.49-.1-.63-.17-.21-.09-.1-.05-.13-.07-.27-.13A5.21 5.21 0 0131 128l-.33-.23c-.07 0-.11-.06-.12 0a1.1 1.1 0 00.7.29h.26-.33.21c-.05.09 0 .09-.12.15l-.39.31c-.28.18-.66.42-1 .6a3.21 3.21 0 01-.38.19l-.31.13-.15.07-.39.11h-.2l-.51.1a7.41 7.41 0 01-1.05.07 7.77 7.77 0 01-2.08-.32 5.18 5.18 0 01-1-.38 4.55 4.55 0 01-.49-.25l-.54-.35-.26-.19-.15-.11-.26-.22h-.06l-.15-.14-.07-.07-.18-.2-.35-.4a7.06 7.06 0 01-1.08-1.83 6.72 6.72 0 01-.19-4 4.1 4.1 0 01.32-.91 5.32 5.32 0 01.45-.89 9.1 9.1 0 01.62-.87l.16-.2.12-.1.24-.21.25-.2.12-.11s.28-.3.18-.18l.11-.08a5.74 5.74 0 01.75-.47 10.79 10.79 0 011.33-.58c.4-.15.75-.28 1.05-.41l.39-.19a1 1 0 00.33-.22l.21-.19h.05c-.1.13 0 0 0 0l.06-.07a3 3 0 00.22-.28l.2-.35.17-.44c.23-.61.41-1.35.74-2.09a4.57 4.57 0 01.67-1L29 111l.08-.09.08-.1.08-.06.43-.34.42-.32.46-.24a3.68 3.68 0 01.9-.38 6.59 6.59 0 011.73-.29 5.74 5.74 0 011.47.23l.61.19.52.27.45.25.27.23.49.41zM168.49 197.38l-.83.22c-.13 0-.29.07-.44.13l-.39.22-.45.23-.49.39a6.41 6.41 0 00-1 1.06 6.23 6.23 0 00-.71 1.54 4.73 4.73 0 00.34 3.73 18.5 18.5 0 001.65 2l.52.66.49.8a6.77 6.77 0 01.4 1l.09.25.08.34.08.38a6 6 0 01.1 1v1c0 .62-.07 1.19-.06 1.71a5.5 5.5 0 00.1 1.35 2.2 2.2 0 00.18.48c.06.3 0-.23 0-.17l.11.25.17.39.17.39.09.2h.09a1.48 1.48 0 01.29.17s.25.16.36.24.2.2.36.24a6.5 6.5 0 001.45.51c.24 0 .44.09.67 0h.26-.19.11l.44-.08h.19l.17-.08a3.13 3.13 0 00.32-.15 2.82 2.82 0 00.62-.42c.07-.1.18-.19.26-.29l.12-.14c0 .13.25-.5-.13.37l.09-.23.18-.41c.06-.13.14-.32.11-.3s0-.07.05-.22l.24-1.09a12.77 12.77 0 01.53-1.49l.08-.19v-.09l.17-.32.15-.2.13-.18a4.34 4.34 0 01.49-.61 4.45 4.45 0 012.39-1.36c.28-.06.51-.08.71-.11h.49c-.4.27 0 .09-.14.14l.8-.35c.19-.07.12-.07.17-.09h.11a3.64 3.64 0 001.33-1.47 4.26 4.26 0 00.47-2.14v-.4a2.35 2.35 0 000-.24 2.49 2.49 0 00-.1-.47 5.78 5.78 0 00-.44-1.06 5.16 5.16 0 00-1.51-1.64l-.23-.17c-.15-.07.08 0 0 0h-.09l-.16-.08-.62-.27-.43-.12c-.15 0-.35 0-.53-.07a2.77 2.77 0 00-.58 0h-1.33a5.32 5.32 0 01-.89-.14 2.45 2.45 0 01-1.36-1.05c-.25-.39-.42-.72-.59-1l-.26-.42-.11-.18-.17-.19c-.11-.13-.21-.26-.32-.38l-.31-.27a5.24 5.24 0 00-1.33-.78 5.74 5.74 0 00-2.12-.33l-.74.08zm-.28-1.62h1a7.36 7.36 0 012.58.73 8.51 8.51 0 011.61 1l.42.35.36.35.18.18.21.24.37.44c.24.31.46.63.67.87a.73.73 0 00.53.28h.34l.61-.13.61-.14a4.33 4.33 0 01.75-.14c.26 0 .51-.07.81-.07l.95.07a6.86 6.86 0 01.73.13h.26l.21.07.42.16a7.58 7.58 0 013.05 2.11 8.33 8.33 0 011.88 3.56 8.93 8.93 0 010 4.36 9.09 9.09 0 01-2.29 4.19l-.56.51c-.17.15-.44.37-.52.42l-.71.51-.27.14-.13.07-.18.08-.37.16c-.25.1-.46.15-.7.23l-.53.14c-.09 0-.15.07-.14.08a1.41 1.41 0 00.89-.48l.12-.16a.66.66 0 00.07-.12l-.09.2-.09.2.13-.24c.05.13.06.11.05.24v.68c0 .44-.13 1-.22 1.54a5.53 5.53 0 01-.13.56l-.12.43-.06.22-.22.5v.08l-.08.16-.34.61a11.35 11.35 0 01-.81 1.15 10.48 10.48 0 01-2.1 1.89 7.24 7.24 0 01-1.24.71c-.23.1-.41.2-.68.3l-.83.26-.41.11h-.25l-.44.09H171.92a8.53 8.53 0 01-7.16-3.64 5.16 5.16 0 01-.68-1.12 7.7 7.7 0 01-.54-1.22 15 15 0 01-.38-1.38l-.07-.34v-1.28s-.07-.56 0-.34v-.19a7 7 0 01.15-1.18 14.61 14.61 0 01.52-1.88c.2-.54.35-1 .47-1.44l.13-.55a1.35 1.35 0 00.06-.53v-.48.07-.12a4.4 4.4 0 00-.1-.47l-.2-.5-.3-.55c-.45-.76-1.06-1.58-1.55-2.54a6.67 6.67 0 01-.5-1.59l-.06-.31v-.46-.74-.71c0-.24.1-.45.14-.67a4.62 4.62 0 01.38-1.26 8.59 8.59 0 011.17-2.05 8.11 8.11 0 011.48-1.33l.71-.47.74-.31.63-.25c.18-.05.33-.06.47-.09l.84-.15z"/><path class="bcls-21" d="M237.94 94.83a4.93 4.93 0 001.88 1.17c1.57.64 3.89 0 4.32-1.56.37-1.21.1-3 1.64-4.5 1.1-.94 2-1.21 2.8-2a1.67 1.67 0 01.12-.23l-.14.14A4.93 4.93 0 00249 87c-.14-.21-.13-.73-.28-1.11a6 6 0 00-.63-1.14c-.05-.12-.32-.4-.43-.57l.1.1a3 3 0 00-2.08-1.07h.21-.35c.12 0 .2-.07.16-.05a7.41 7.41 0 01-3.1.81 4.93 4.93 0 01-.92-.11 3.67 3.67 0 01-1.92-1.22c-.42-.49-.2-.37-.69-.69l-.21-.12a1.06 1.06 0 01-.2-.12 2.74 2.74 0 00-2.5.17l.06-.06a7.41 7.41 0 00-.61.6c-2.3 3.91 2.32 5 1.31 7.39-.35 1-1.27 2.68 1.07 5.09zm-2.31-4.5c.09-.58.32-1.19.11-1.35a7.54 7.54 0 00-1.2-1.12 5.82 5.82 0 01-.71-8.23l.11-.11a6.64 6.64 0 019-.31.59.59 0 00.16.1c-.18-.37-1.14-.25-.46-.34h-.24a1 1 0 01.2-.15 5.71 5.71 0 014-1.07c7.68.54 10.3 11.2 2.88 13.5a19.19 19.19 0 00-1.88.61c-1.77 1-.32 4-4.14 5.63-3.16 1.51-8.64-1.49-7.83-7.16z"/><path class="bcls-9" d="M254.66 67.9c3.54-3 3.88-8.57.7-12.72s-8.68-5.27-12.45-2.63l-.28.19a3 3 0 003.69 4.82l.26.34c-.63 1.72-2.46 3.56-7.61 2.61 0 0-1.11.43 2.48 5.12s4.51 4 4.51 4c.41-5.23 2.67-6.52 4.5-6.67l.26.33a3 3 0 103.69 4.82zM183.78 72.55c-2.81-3-7.81-3-11.33 0s-4.23 8-1.68 11.2a1.3 1.3 0 00.23.25 2.7 2.7 0 104-3.5l.28-.25c1.57.47 3.3 2 2.72 6.63 0 0 .45 1 4.42-2.48s3.31-4.21 3.31-4.21c-4.66-.09-5.92-2-6.16-3.65l.28-.24a2.7 2.7 0 004.15-3.54zM213.13 115.2A5.1 5.1 0 01203 115l-23.07 13.5s8.38 20.64 29.46 20.79l3.46-9.21a5 5 0 01-.85-.08 5.44 5.44 0 114.46-9.5l11.27-29.95-16.57 9.69a5.1 5.1 0 011.97 4.96zM194.68 137a4.16 4.16 0 114.81-3.37 4.16 4.16 0 01-4.81 3.37zM187.74 107s-1.68-15.83 20.39-11.75c0 .01-4.32 16.56-20.39 11.75zM37.58 73.43s-3.36 15.35 11 15.35c.03 0 5.79-9.11-11-15.35zM239.3 96.19a4.93 4.93 0 001.88 1.15c1.57.64 3.89 0 4.32-1.56.37-1.21.1-3 1.64-4.5 1.1-.94 2-1.21 2.8-2a1.67 1.67 0 01.12-.23c-.06.06.15-.16-.14.14a4.93 4.93 0 00.43-.86c-.14-.21-.13-.73-.28-1.11a6 6 0 00-.63-1.14c-.05-.12-.32-.4-.43-.57l.1.1a3 3 0 00-2.11-1.07h.22-.35c.12 0 .2-.07.16-.05a7.41 7.41 0 01-3.1.81 4.93 4.93 0 01-.92-.11 3.64 3.64 0 01-1.9-1.19c-.42-.49-.2-.37-.69-.69l-.21-.12A1.06 1.06 0 01240 83a2.74 2.74 0 00-2.5.17l.06-.06a7.41 7.41 0 00-.61.6c-2.3 3.91 2.32 5 1.31 7.39-.35 1-1.27 2.68 1.07 5.09zm-2.3-4.5c.09-.58.31-1.19.11-1.35a7.54 7.54 0 00-1.2-1.12 5.82 5.82 0 01-.71-8.23c-.07.08.12-.12.11-.11a6.64 6.64 0 019-.31.59.59 0 00.16.1c-.18-.37-1.14-.25-.46-.34h-.24a1 1 0 01.2-.15 5.71 5.71 0 014-1.07c7.68.54 10.3 11.2 2.88 13.5a19.19 19.19 0 00-1.88.61c-1.77 1-.33 4-4.14 5.63-3.17 1.51-8.65-1.52-7.83-7.16z"/></g></g></svg><svg viewBox="0 0 283.46 283.46" id="d-2" xmlns="http://www.w3.org/2000/svg"><defs><style>.ccls-1{isolation:isolate}.ccls-2{fill:#fbd829}.ccls-3{fill:#d0dcef}.ccls-4,.ccls-5{fill:#10c6b6}.ccls-5,.ccls-7{opacity:.6}.ccls-21,.ccls-6,.ccls-7{fill:none;stroke:#01015e;stroke-miterlimit:10;stroke-width:.5px}.ccls-17,.ccls-8{fill:#fff}.ccls-9{fill:#596a83}.ccls-10{fill:#d43e3a}.ccls-11{fill:#dde4ea}.ccls-12{fill:#de6264}.ccls-13,.ccls-17,.ccls-21{opacity:.4}.ccls-14{fill:#01015e}.ccls-15{fill:#ecb49f}.ccls-16{fill:#c79e7a;mix-blend-mode:multiply}.ccls-18{fill:#acd0ef}.ccls-19{fill:#ffba32}.ccls-20{fill:#ffd72d}</style></defs><g class="ccls-1"><g id="cLayer_1" data-name="Layer 1"><path class="ccls-2" d="M272.65 171.05c-12.46 46.21-39.06 84.23-74.54 96.34-21 7.17-42.7 8.76-64.28 9-30.81.32-77.08-14.84-102-40.22C-32.11 171.1 46 152.7 63.93 113.73c23.4-50.88-9.7-68.28 42.31-99 58.08-34.37 194.34 52.69 166.41 156.32z"/><ellipse class="ccls-3" cx="154.13" cy="240.79" rx="83.86" ry="3.37"/><path class="ccls-3" d="M94.11 250.39c0 1.43-12.71 2.59-28.38 2.59s-28.39-1.16-28.39-2.59 12.71-2.6 28.39-2.6 28.38 1.21 28.38 2.6zM160 254.28c0 .71-7.37 1.29-16.47 1.29s-16.46-.58-16.46-1.29 7.37-1.3 16.46-1.3 16.47.58 16.47 1.3z"/><path class="ccls-4" d="M32.49 140.58a16.76 16.76 0 01-12.37-17c.25-4.28 2.16-3.75 4.76-6.33 2.76-2.75 1.25-3.78-1.09-6.83-4.27-5.57-8.29-11.83-6.55-19.25 1.64-7 10-6.91 8.12-14.25C23 67.46 23.94 58.08 25 48.38c.64-5.67 2.7-19.51 10.51-19.73 7.35-.19 7 13.53 7.15 18.18.14 4.33-.78 7.33 2.54 9.77 4.26 3.13 9.19 4.16 10.08 10.41 1 7.36-7.11 10.47-7.52 17-.33 5.42 7.44 8.56 10.2 13 5.18 8.38-4.91 8.44-5.76 15.13a3.12 3.12 0 01-.53 1.1c2.83 2.14 6.73 3.27 8.34 6.71 1.87 4 .5 8.11-2.26 11.19-5.56 6.19-16 11.65-24.35 9.66zM50 238.79c0 .62-6.17 1.12-13.78 1.12s-13.77-.5-13.77-1.12 6.17-1.11 13.77-1.11 13.78.5 13.78 1.11z"/><path class="ccls-4" d="M35.35 141.17h.37v93.55h-.37z"/><path class="ccls-5" d="M55.37 118.48l-19.65 19.64v-5.4l18.08-18.08-.33-.2-17.75 17.75V116.9L55.63 97l-.26-.26-19.65 19.64v-6.59l17.56-17.56L53 92l-17.28 17.26v-3l15.66-15.69-.27-.26-15.39 15.39V85.27L55.09 65.9c0-.14-.07-.28-.11-.41L35.72 84.75v-5.41L53.05 62l-.25-.27-17.08 17.08V53.64l7-7v-.52l-7 7V28.65h-.37V45.8l-8.16-8.16c0 .13-.09.26-.13.4l8.29 8.29v20l-11-11v.48l11 11.08v3.42L24 59v.5l11.35 11.34v23.59L23.87 83l-.26.27L35.35 95v3.82L21.57 85l-.28.24 14.06 14.07v26.36l-9.54-9.54-.22.3 9.76 9.77v108.52h.37v-96.07l19.91-19.91z"/><path class="ccls-4" d="M37.91 238s-10.79-38.63-17.69-21.77S37.91 238 37.91 238z"/><path class="ccls-4" d="M37.6 239.58l-.07-1.16c-.07-1.24-1.62-30.46 6.11-38.64A6.14 6.14 0 0149 197.7a4.4 4.4 0 013.73 2.5c4.15 8.7-13.76 37.19-14.53 38.4zm10.65-41.18a5.47 5.47 0 00-4.07 1.89c-6.64 7-6.16 31.19-6 36.88 3.22-5.27 17.39-29.21 13.85-36.65a3.65 3.65 0 00-3.14-2.08 5.53 5.53 0 00-.64-.04z"/><path class="ccls-6" d="M59.08 132.47c-5.07 5.64-14.17 10.66-22.06 10a1.1 1.1 0 01-.25 0h-.12a13.49 13.49 0 01-1.92-.32c-.31-.07-.63-.15-.94-.25a16.78 16.78 0 01-12.37-17c.25-4.28 2.16-3.75 4.76-6.33a9.25 9.25 0 00.7-.78c.09-.11.16-.21.23-.31 1.38-2 0-3.13-2-5.74-4.28-5.57-8.3-11.83-6.56-19.26a10.76 10.76 0 014.05-5.89l.29-.23c.71-.61 1.42-1.18 2-1.78l.26-.28a5.84 5.84 0 001.49-6 57.62 57.62 0 01-1.34-17.38 4.49 4.49 0 010-.51c.06-1.06.13-2.12.23-3.19v-.49c.2-2.31.45-4.62.71-7a56.31 56.31 0 012-10.33c0-.14.08-.26.13-.4 1.51-4.62 4-8.74 8.16-9H37c6.85 0 6.84 12.38 6.95 17.5v.5a.71.71 0 010 .14c.14 4.33-.78 7.33 2.55 9.77 2.67 1.93 5.56 3.09 7.6 5.09l.25.27a8.92 8.92 0 012.26 5c1 7.36-7.11 10.46-7.51 17-.16 2.44 1.35 4.44 3.31 6.29l.27.26c.52.47 1.07.95 1.62 1.42l.28.24a22.88 22.88 0 014.71 4.8c5.18 8.39-4.91 8.44-5.76 15.14a3 3 0 01-.53 1.1 18.93 18.93 0 001.78 1.18l.33.19c2.41 1.42 5 2.7 6.22 5.34 1.89 4.06.51 8.16-2.25 11.24z"/><path class="ccls-6" d="M36.77 142.46h-.12v98.42H37v-98.4a1.1 1.1 0 01-.23-.02z"/><path class="ccls-6" d="M37 142.46a1.1 1.1 0 01-.25 0z"/><path class="ccls-7" d="M56.67 119.77l.26.27L37 140v2.53a1.1 1.1 0 01-.25 0h-.12v-15l-9.77-9.76c.09-.11.16-.21.23-.31l9.56 9.54v-26.39L22.59 86.54l.29-.23 13.77 13.78v-3.83L24.91 84.53c.09-.09.19-.18.27-.27l11.47 11.48v-23.6L25.32 60.81v-.5l11.3 11.31v-3.43L25.57 57.11c0-.16 0-.32.05-.48l11 11v-20l-8.29-8.29c0-.14.08-.26.13-.4l8.16 8.16V30H37v24.42l6.95-7v.47l-7 6.95v25.27L54.1 63l.25.27L37 80.65v5.4l19.28-19.27c0 .14.08.28.11.42L37 86.57V107l15.41-15.39.27.26L37 107.53v3l17.3-17.24.28.24L37 111.09v6.58L56.67 98l.26.27L37 118.21v15.28l17.76-17.74.33.19L37 134v5.41z"/><path class="ccls-3" d="M98 80.89a3.19 3.19 0 11-3.19-3.18A3.18 3.18 0 0198 80.89z"/><path class="ccls-6" d="M99.25 82.19A3.19 3.19 0 1196.07 79a3.18 3.18 0 013.18 3.19z"/><path class="ccls-8" d="M215.49 76.4a4.67 4.67 0 11-4.66-4.66 4.67 4.67 0 014.66 4.66zM114.74 57.94a5.62 5.62 0 11-5.62-5.62 5.62 5.62 0 015.62 5.62zM156.5 65.12a2.76 2.76 0 11-2.76-2.75 2.76 2.76 0 012.76 2.75z"/><path class="ccls-3" d="M220.2 58H168a16.83 16.83 0 0117.64-6.76s0-11.64 12.39-12c13.1-.4 9.76 10.88 9.76 10.88s15.42-7.87 12.41 7.88zM149.94 42.73l-36.41.37s3.75-6.38 13.14-5.63c0 0 4.13-12.39 17.26-6s6.01 11.26 6.01 11.26z"/><path class="ccls-6" d="M216.79 77.7a4.67 4.67 0 11-4.66-4.7 4.67 4.67 0 014.66 4.7zM116 59.24a5.62 5.62 0 11-5.62-5.62 5.62 5.62 0 015.62 5.62z"/><path class="ccls-8" d="M241.05 124.66a3.1 3.1 0 11-3.1-3.1 3.1 3.1 0 013.1 3.1z"/><path class="ccls-6" d="M241.77 125.38a3.1 3.1 0 11-3.1-3.1 3.1 3.1 0 013.1 3.1zM157.8 66.42a2.76 2.76 0 11-2.8-2.75 2.76 2.76 0 012.8 2.75z"/><path class="ccls-3" d="M266.37 242.05c0 .46-4.59.83-10.26.83s-10.27-.37-10.27-.83 4.6-.82 10.27-.82 10.26.37 10.26.82zM254.63 241c-.87-8.71-2.56-17.82-1.67-26.65.25-2.41 2.3-13.2 6.19-10.71 3.12 2 1.07 9.28 1 12.31a92.37 92.37 0 01-3.89 24.49z"/><path class="ccls-4" d="M254.5 242.41l.05-.37a53.23 53.23 0 011.81-7.65c.31-1.07.63-2.18.91-3.25.09-.36.19-.92.31-1.58.55-3.06 1.38-7.7 3.82-7.7a2.34 2.34 0 011 .26c3.43 1.69 1.59 8.2-.07 12.46a3.1 3.1 0 011.43-.4 1.72 1.72 0 011.51.81 3.08 3.08 0 01-.27 3c-.92 1.72-2.81 2.6-4.48 3.38l-.38.17zm6.9-20c-2 0-2.82 4.71-3.28 7.24-.11.67-.22 1.24-.32 1.62-.27 1.08-.6 2.19-.91 3.27a58.79 58.79 0 00-1.74 7.2L260 241l.28-.13c1.66-.78 3.38-1.59 4.22-3.15a2.57 2.57 0 00.28-2.42 1.15 1.15 0 00-1-.54 3 3 0 00-1.84.77l-.83.66.4-1c1.32-3.23 4-10.91.66-12.57a1.8 1.8 0 00-.77-.2z"/><path class="ccls-4" d="M255.66 242.53c1.22-5.61-1.56-14.71-3.77-20.11-.73-1.77-4.67-7.61-7.15-6.41s.91 7.37 1.82 8.81a4.46 4.46 0 00-3.35-1.54c-2.43 0-1.91.51-1.67 2.5.38 3.08 2.71 4.8 4.85 6.62-1.59-.6-4.12-.49-4 1.82s13.27 8.31 13.27 8.31z"/><path class="ccls-6" d="M261.7 242.39c1.65-.77 3.49-1.65 4.4-3.35a3.05 3.05 0 00.26-3 1.7 1.7 0 00-1.51-.81 3 3 0 00-1.42.39c1.66-4.25 3.5-10.76.06-12.45a2.2 2.2 0 00-1-.26 2.07 2.07 0 00-1.6.83c.23-2.28.37-4.55.39-6.78 0-3 2.08-10.31-1-12.31-3.88-2.48-5.94 8.3-6.18 10.71a62.93 62.93 0 000 10.81c-.35-1-.7-1.88-1-2.71-.72-1.76-4.66-7.6-7.14-6.4s.91 7.36 1.81 8.81a4.37 4.37 0 00-3.34-1.54c-2.44 0-1.92.51-1.67 2.5.37 3.08 2.71 4.79 4.84 6.61-1.59-.59-4.11-.49-4 1.83.06 1.65 6.76 5.15 10.63 7-4.14.11-7.14.42-7.14.79s4.6.83 10.27.83 10.26-.37 10.26-.83-2.52-.54-5.92-.67z"/><path class="ccls-9" d="M140.18 138.94a11.16 11.16 0 00-2.67 12.85c3.42 7.66 12.7 13.63 22.18 18.89 7.13 3.95 9.26 6.75 6.12 12.17-3.95 6.79-8.45 5.39-13.77 12.07-1.84 2.57-6.78 10.35-6.78 10.35l4.39 2.79s-.26-1.69 5.12-5.46c5.9-4.14 16.53-9.43 19.78-11.87s8.75-5.59 6.29-13.3-24.24-26.64-24.24-26.64z"/><path class="ccls-10" d="M205.36 196.21c22.12-23.74 6.52-51.91 6.52-51.91l3 .46s20.72 23.05.24 48.19z"/><path class="ccls-10" d="M213.51 145.93a4.19 4.19 0 11-4.19-4.19 4.2 4.2 0 014.19 4.19z"/><path class="ccls-11" d="M122 217.16a20 20 0 11-20-20 20 20 0 0120 20z"/><path class="ccls-9" d="M122 217.16a20 20 0 11-20-20 20 20 0 0120 20z"/><path class="ccls-8" d="M111.87 217.16a10.34 10.34 0 11-10.34-10.34 10.35 10.35 0 0110.34 10.34z"/><path class="ccls-10" d="M152.28 167.7s-10.71 21.86 1.16 35.87 40.28 9.08 40.28 9.08l-.23 9.58-136.89 5.16s6-50.84 30.5-63.86 57.5-6.14 65.18 4.17z"/><path class="ccls-12" d="M140.64 195.05c-4-14.67-25.14-17-47.72-5.59s-35.16 34-35.16 34l1.07.15 68.45-2.44c10.92-5.62 16.36-15 13.36-26.12z"/><g class="ccls-13"><path class="ccls-8" d="M65.5 191.3l-.34-.24a90.26 90.26 0 0113.51-14.51c7.67-6.61 19.65-14.44 33.24-14.29 27.17.33 39 1.51 39.15 1.52v.41c-.12 0-12-1.19-39.11-1.52h-.43c-25.6 0-45.82 28.33-46.02 28.63z"/></g><path class="ccls-14" d="M134.59 142a13.24 13.24 0 00-.47 14.43c4.66 7.69 19.09 9.32 25.61 14.67s9.7 7.33 7.51 13.79c-2.74 8.1-7.41 7.42-11.53 15.66-1.38 3.13-4.94 12.49-4.94 12.49l4.8 2.2s-.55-1.77 4.12-6.87c5.12-5.58 14.71-13.29 17.5-16.55s7.68-7.68 4-15.6-21.19-24.7-21.19-24.7z"/><path class="ccls-12" d="M242.46 165.6c0 5.85-2 10.59-4.42 10.59s-16.3-2.79-16.3-9.78S235.6 155 238 155s4.46 4.75 4.46 10.6z"/><path class="ccls-10" d="M242.46 165.6c0 5.85-2 10.59-4.42 10.59s-4.42-4.74-4.42-10.59S235.6 155 238 155s4.46 4.75 4.46 10.6z"/><path class="ccls-15" d="M184.17 108s14.44-8.84 8.38-17.69-14.89-8.87-19.55 2.77-3.12 10.72-12 15.38-23.39 12.54-28 23.27 12.57 18.62 25.14 20c0 0 7.92-2.8 9.78-9.32s9.74-29.31 16.25-34.41z"/><path class="ccls-10" d="M167.62 104.39c-1.48-1.17-3.42 2.21-7 4.08-9 4.68-23.19 12.64-27.92 23.42s12.77 18.73 25.55 20.13c0 0 8-2.81 9.94-9.36 1.74-6 8.71-26 15-33.13.51-.61-12.19-2.41-15.57-5.14z"/><path class="ccls-14" d="M169.68 101.86s7.83 7.83 14.32 6.6l-1.85 2.67s-11 1.53-17.78-4.71z"/><path class="ccls-16" d="M179.47 128.54c-1.1-7.55.81-11.6-4.33-14.59-4.12-2.4-5.88-2.2-8.44.24-3.43 3.26-1.07 16.05 2.61 24.79 3.17-6.84 9.49-10.5 10.16-10.44z"/><path class="ccls-11" d="M236.79 217.16a20 20 0 11-20-20 20 20 0 0120 20z"/><path class="ccls-9" d="M236.79 217.16a20 20 0 11-20-20 20 20 0 0120 20z"/><path class="ccls-8" d="M227.11 217.16a10.34 10.34 0 11-10.34-10.34 10.35 10.35 0 0110.34 10.34z"/><path class="ccls-15" d="M167.73 113.3c-5.41 4.42 1.76 22.22 9.68 29.67s13.35 5.6 23.07 3.09c7.68-2 9.77-3.63 13-.83s1.86-4.19-2.56-6.29-8.15 1.87-16.3 2.8-9.7-4.34-12.07-10.69c-2.9-9.1-.14-14.83-6.41-18-4.09-2.05-5.85-1.85-8.41.25z"/><path class="ccls-10" d="M236.92 199.75a25.26 25.26 0 00-43.13 25.37c6.14.31 14.52-1.76 22.92-6.1 10.7-5.51 18.4-13.13 20.21-19.27z"/><path class="ccls-17" d="M228.08 198.8a6.17 6.17 0 11-6.17-6.17 6.18 6.18 0 016.17 6.17zM241.64 164.19c0 4.37-1.47 7.92-3.29 7.92s-3.3-3.55-3.3-7.92 1.48-7.93 3.3-7.93 3.29 3.55 3.29 7.93z"/><path class="ccls-17" d="M243.05 160.57c0 2.05-1.35 3.71-3 3.71s-3-1.66-3-3.71 1.35-3.7 3-3.7 3 1.66 3 3.7zM125.07 195.2a4.22 4.22 0 11-4.21-4.21 4.21 4.21 0 014.21 4.21zM128.67 190.15a1.74 1.74 0 11-1.74-1.74 1.74 1.74 0 011.74 1.74zM228.3 195.92a2.68 2.68 0 11-2.68-2.68 2.68 2.68 0 012.68 2.68z"/><path class="ccls-14" d="M169.68 101.86a90.91 90.91 0 01-20.43-6.68c-11.17-5.12-30-12.71-45.39-6.19 0 0 13 5.56 8.62 13.74-.58.67 10.23-4.29 21.18-.8s24.44 7.91 31.19 4.42z"/><path class="ccls-8" d="M153 207.35l-3.15 5.19s4.41 6 8.71 6.71-4.35-4.54-.58-8.41-4.98-3.49-4.98-3.49z"/><path class="ccls-12" d="M181.48 126.48c-1.1-6.5-.17-10.82-5.31-13.39-4.12-2.06-5.88-1.89-8.44.21-3.43 2.8-1.8 11 1.87 18.5 3.18-5.88 11.22-5.37 11.88-5.32z"/><path class="ccls-17" d="M112.2 208.59a.81.81 0 01-.88.72h-34.4a.74.74 0 110-1.45h34.4a.82.82 0 01.88.73zM194.77 219.3c0 .4-.59.72-1.31.72h-51.41c-.73 0-1.31-.32-1.31-.72s.58-.72 1.31-.72h51.41c.72 0 1.31.32 1.31.72zM99.94 213.74a.72.72 0 01-.72.72H71a.72.72 0 110-1.46h28.22a.72.72 0 01.72.72z"/><path class="ccls-18" d="M138.07 140.88a27.65 27.65 0 01-5.37-9c-.09.21-.17.4-.24.6a28.16 28.16 0 005.29 8.7c3.82 4.27 10.75 9.16 22.41 9.16h1.58l.75-.48c-12.91.65-20.4-4.51-24.42-8.98z"/><path class="ccls-9" d="M112.23 118.87s-.42-.18-1.11-.55a25 25 0 01-2.78-1.7 20.82 20.82 0 01-1.73-1.36 11.61 11.61 0 01-1.75-1.86 7.16 7.16 0 01-.75-1.24 4.11 4.11 0 01-.4-1.62 3.18 3.18 0 01.51-1.79 3.13 3.13 0 01.56-.69 3.92 3.92 0 01.31-.28l.17-.13.08-.06.09-.07.32-.19.15-.08.23-.1a2.82 2.82 0 01.45-.18l.47-.1a3.11 3.11 0 011.88.35 4 4 0 011.24 1.09 7.07 7.07 0 01.77 1.22 12.94 12.94 0 01.91 2.36 18.71 18.71 0 01.5 2.15 29 29 0 01.41 3.22v1.24a.4.4 0 01-.39.41.33.33 0 01-.17 0zm-.44-1.31a1 1 0 000-.14c-.19-.74-.46-1.79-.84-3-.19-.62-.42-1.27-.67-2a14.16 14.16 0 00-.95-2 5.26 5.26 0 00-.61-.88 2.5 2.5 0 00-.72-.54 1 1 0 00-.65-.12l-.18.05a.94.94 0 00-.15.06h-.08a.7.7 0 00-.14.08l-.28.17s-.1.06 0 0h-.07l-.1.08a.9.9 0 00-.18.15 1.91 1.91 0 00-.27.32 1.13 1.13 0 00-.21.69 3.57 3.57 0 00.69 1.8 12.78 12.78 0 001.4 1.7c.5.52 1 1 1.48 1.43 1 .86 1.81 1.55 2.4 2z"/><path class="ccls-9" d="M112.72 118.39s.11-.41.35-1.1a29.23 29.23 0 011.17-2.79c.28-.57.59-1.17 1-1.8a15.39 15.39 0 011.33-1.91 11.13 11.13 0 01.88-1 5 5 0 011.16-.86 3.38 3.38 0 011.66-.48 2.87 2.87 0 011 .18 1.6 1.6 0 01.44.2l.2.11.13.1.09.07.12.1h.06l.1.11a2.44 2.44 0 01.37.51 2.31 2.31 0 01.21.55 2.91 2.91 0 01.06.57 3.4 3.4 0 01-.58 1.67 6.45 6.45 0 01-.88 1.08 12.3 12.3 0 01-.93.86 17.93 17.93 0 01-1.85 1.37c-.6.4-1.19.75-1.74 1-1.09.62-2 1.06-2.69 1.36s-1.06.44-1.06.44a.42.42 0 01-.52-.25.39.39 0 010-.24zm.17-.19l.9-.66c.58-.42 1.39-1 2.36-1.76.48-.37 1-.77 1.52-1.2s1.07-.91 1.6-1.4a8.68 8.68 0 001.34-1.57 1.2 1.2 0 00.22-.6v-.06c0-.06 0 0 0 0v-.06l-.12-.1h-.14a.23.23 0 00-.12-.06.59.59 0 00-.23 0 1.39 1.39 0 00-.65.19 6.23 6.23 0 00-1.57 1.18c-.47.52-.92 1.07-1.33 1.61s-.77 1.07-1.11 1.57c-.67 1-1.21 1.86-1.59 2.46s-.59 1-.59 1z"/><path class="ccls-19" transform="rotate(-88.08 109.609 122.135)" d="M106.06 100.54h7.08v43.18h-7.08z"/><path class="ccls-20" d="M85.65 126.86h41.1v6.71h-41.1z"/><path class="ccls-19" d="M88.71 134.53h41.1v6.7h-41.1z"/><path class="ccls-20" d="M84.49 142.2h41.48v6.71H84.49z"/><path class="ccls-19" d="M89.1 149.88h41.1v6.7H89.1z"/><path class="ccls-3" d="M82.16 124.7v2.53l-16.45-1.52 16.45-1.01zM76.94 137.32v2.25l-14.57-1.35 14.57-.9zM80.55 131.82v2.53l-24.87-1.52 24.87-1.01z"/><path class="ccls-9" d="M114.77 157.7a.76.76 0 01-.73-.54l-12.28-38.75a.77.77 0 01.5-1 .76.76 0 011 .5l12.24 38.79a.77.77 0 01-.5 1 .66.66 0 01-.23 0z"/><path class="ccls-9" d="M106.71 157.7h-.1a.78.78 0 01-.66-.87l5.37-38.75a.77.77 0 01.87-.65.76.76 0 01.65.86L107.47 157a.77.77 0 01-.76.7z"/><path class="ccls-9" d="M106 120.5c-3.2 0-6.13-1.69-8.85-5.09-4.94-6.15-10-6-17.74-5a.77.77 0 01-.86-.67.77.77 0 01.66-.86c8-1 13.71-1.21 19.14 5.55 3.91 4.88 8.1 5.76 13.19 2.76a.77.77 0 11.78 1.32 12.55 12.55 0 01-6.32 1.99z"/><path class="ccls-14" d="M194 90.52s4.51.66 2.16 3.54-7-2.75-11.5-1.17S186.5 90 194 90.52zM178.91 99.7s-3 2.4-8.75 1.57l.21-3.92 7.83 2.07z"/><path class="ccls-10" d="M194 90.52c-.79.41-.58.45-2.44.41-3-.06-8.52.46-10.89 6.5-.34.85.26 1.86-1.32 2.68a9.35 9.35 0 01-4.38.47l-4.58-.55s-9.89-13.63 4.51-19.79c9.77-4.17 16.48 3.25 18.47 7.5.94 2.02 1.41 2.37.63 2.78z"/><path class="ccls-8" d="M189.73 83.57c.76.77 1 1.75.56 2.19s-1.42.17-2.18-.6-1-1.75-.56-2.19 1.45-.17 2.18.6zM184.68 89.05a12.2 12.2 0 00-5.9 7.18c-.64 2-4.77 2.58-9.78 1.48l.25.47a21.49 21.49 0 004.37.49c2.95 0 5.07-.81 5.56-2.32a11.64 11.64 0 015.7-6.94c2.6-1.46 6.63-1.6 8.53-1.57v-.1c0-.04-.11-.21-.16-.32-2.05-.02-5.94.16-8.57 1.63z"/><path class="ccls-6" d="M121.86 226.42a20.38 20.38 0 01-8.35 9.51h-.07a20.08 20.08 0 01-19.2.46h-.06a20.25 20.25 0 01-8.54-8.6l11.8-.46 11.68-.43z"/><path class="ccls-6" d="M121.86 226.42a20.38 20.38 0 01-8.35 9.51h-.07a20.08 20.08 0 01-19.2.46h-.06a20.25 20.25 0 01-8.54-8.6l11.8-.46 11.68-.43z"/><path class="ccls-6" d="M109.12 226.9a10.34 10.34 0 01-11.68.43zM126.5 196.63a4.22 4.22 0 11-4.21-4.21 4.21 4.21 0 014.21 4.21zM130.1 191.57a1.74 1.74 0 11-1.74-1.73 1.73 1.73 0 011.74 1.73zM243.89 167c0 5.85-2 10.59-4.42 10.59h-.27c-2.31-.33-4.16-4.94-4.16-10.58s1.85-10.26 4.16-10.59h.27a3.23 3.23 0 012.53 1.92 15.41 15.41 0 011.75 6.07 24.33 24.33 0 01.14 2.59z"/><path class="ccls-6" d="M243.89 167c0 5.85-2 10.59-4.42 10.59h-.27c-2.31-.33-4.16-4.94-4.16-10.58s1.85-10.26 4.16-10.59h.27a3.23 3.23 0 012.53 1.92 15.41 15.41 0 011.75 6.07 24.33 24.33 0 01.14 2.59zM126.5 196.63a4.22 4.22 0 11-4.21-4.21 4.21 4.21 0 014.21 4.21zM130.1 191.57a1.74 1.74 0 11-1.74-1.73 1.73 1.73 0 011.74 1.73z"/><path class="ccls-21" d="M126.5 196.63a4.22 4.22 0 11-4.21-4.21 4.21 4.21 0 014.21 4.21zM130.1 191.57a1.74 1.74 0 11-1.74-1.73 1.73 1.73 0 011.74 1.73z"/><path class="ccls-6" d="M239.2 177.61c-2.31-.33-4.16-4.94-4.16-10.58s1.85-10.26 4.16-10.59c-2.35.21-10.74 2.89-14.36 7.26a41.78 41.78 0 00-8.13-17.06c-.08.78-.64 1-1.78 0-2.44-2.08-4.22-1.7-8.19-.53a3.88 3.88 0 00-.19 1.24 4.18 4.18 0 008.14 1.35c3 7.2 8.81 26.26-4 44.12a25.27 25.27 0 00-17.3 21.5c-5.24.65-21.36 2-32.48-4.36-.22.24-11.66-7.34-9.54-10.57-5.88-13.55 2.31-30.27 2.31-30.27a10.13 10.13 0 00-.88-1c-2.4-1-4.94-1.91-7.34-3l-1-.47a24.78 24.78 0 01-7-4.46 68.77 68.77 0 00-13.28-2.19q-3.6-.25-7.33-.15l-1.59.07c-.45 0-.89 0-1.33.08-1.67.11-3.36.28-5 .53l-1.41.21A60.71 60.71 0 0088.53 165c-8.9 4.73-15.37 14.48-20 25-1.26 1.56-2 2.52-2 2.55l.35.24s.35-.51 1-1.29C60.34 209.37 58 228.82 58 228.82l27.62-1 11.8-.46 11.68-.43 12.74-.48 72.38-2.73a26 26 0 001 2.86 28.26 28.26 0 004.53-.16 20.11 20.11 0 009.25 10 19.67 19.67 0 009.17 2.24 20 20 0 0016.65-31.14 19.4 19.4 0 003.51-6.29 25.23 25.23 0 00-19.68-9.59 35.83 35.83 0 006.89-19.11c3.91 3.41 11.46 4.96 13.66 5.08zm-138.56 38.27H72.42a.72.72 0 110-1.44h28.22a.72.72 0 110 1.44zm12.11-5.15h-34.4a.73.73 0 110-1.44h34.4a.73.73 0 110 1.44zm9.54-9.9a4.21 4.21 0 114.21-4.2 4.21 4.21 0 01-4.21 4.2zm6.07-7.52a1.74 1.74 0 111.74-1.74 1.73 1.73 0 01-1.74 1.74zM183.31 112.59c-1.68.18-11.25.92-17.4-4.64a9.84 9.84 0 01-1.85.64c-7.21 1.81-19.13-2.09-29-5.23-11-3.5-21.76 1.47-21.18.8 4.36-8.19-8.62-13.75-8.62-13.75 15.36-6.51 34.22 1.07 45.39 6.2a94.27 94.27 0 0020.24 6.66h.19s7.45 7.45 13.85 6.65c-.2.26-1.2 2.08-1.62 2.67z"/><path class="ccls-3" d="M220.36 99.78a1.63 1.63 0 11-1.64-1.63 1.64 1.64 0 011.64 1.63z"/><path class="ccls-6" d="M221.78 101.2a1.63 1.63 0 11-1.63-1.63 1.63 1.63 0 011.63 1.63z"/><path class="ccls-21" d="M113.63 210a.81.81 0 01-.88.72h-34.4a.73.73 0 110-1.44h34.4a.82.82 0 01.88.72zM101.37 215.17a.72.72 0 01-.73.71H72.42a.72.72 0 110-1.44h28.22a.72.72 0 01.73.73z"/><path class="ccls-6" d="M85.15 135.61h45.8v5.83h-45.8z"/><path class="ccls-6" transform="rotate(-88.13 111.02 123.562)" d="M107.49 101.97h7.08v43.18h-7.08z"/><path class="ccls-6" d="M87.07 128.28h41.1v6.71h-41.1zM85.92 143.63h41.48v6.71H85.92zM90.53 151.31h41.1v6.7h-41.1zM83.58 126.13v2.53l-16.44-1.52 16.44-1.01zM78.37 138.75v2.24l-14.57-1.34 14.57-.9zM81.98 133.25v2.53l-24.87-1.52 24.87-1.01zM189.73 83.57c.76.77 1 1.75.56 2.19s-1.42.17-2.18-.6-1-1.75-.56-2.19 1.45-.17 2.18.6zM184.68 89.05a12.2 12.2 0 00-5.9 7.18c-.64 2-4.77 2.58-9.78 1.48l.25.47a21.49 21.49 0 004.37.49c2.95 0 5.07-.81 5.56-2.32a11.64 11.64 0 015.7-6.94c2.6-1.46 6.63-1.6 8.53-1.57v-.1c0-.04-.11-.21-.16-.32-2.05-.02-5.94.16-8.57 1.63zM227.66 214.42a60.94 60.94 0 01-9.51 6 64.17 64.17 0 01-8.62 3.69 10.34 10.34 0 0019.06-5.56 10.18 10.18 0 00-.93-4.13z"/></g></g></svg><svg viewBox="0 0 283.46 283.46" id="d-3" xmlns="http://www.w3.org/2000/svg"><defs><style>.dcls-1{isolation:isolate}.dcls-2{fill:#fbd829}.dcls-3,.dcls-4{fill:#ecb49f}.dcls-17,.dcls-4{mix-blend-mode:multiply}.dcls-5{fill:#01015e}.dcls-6{fill:#10c6b6}.dcls-17,.dcls-7{fill:#d0dcef}.dcls-8{fill:none;stroke:#01015e;stroke-miterlimit:10;stroke-width:.5px}.dcls-12,.dcls-9{fill:#fff}.dcls-9{opacity:.4}.dcls-10{fill:#5fa469}.dcls-11{fill:#d43e3a}.dcls-13{fill:#e7a588}.dcls-14{fill:#de6264}.dcls-15{fill:#4f5a79}.dcls-16{fill:#c2c7ff}.dcls-18{fill:#ffd72d}.dcls-19{fill:#ffba32}.dcls-20{fill:#de626b}.dcls-21{fill:#ecefff}.dcls-22{fill:#ffa132}</style></defs><g class="dcls-1"><g id="dLayer_1" data-name="Layer 1"><path class="dcls-2" d="M130.29 269.29c-34.94 8.53-79 11.72-104.48-21.92C1.82 215.67 1 172 22.84 140.1c10.28-15 18.08-19.81 11.17-39.28C28.38 85 20.19 72.34 26 54.78 32.71 34.15 52.1 23 69.83 16.76 116.69.38 175.9 5.49 220.85 26.89c19.44 9.27 37.22 23 41.33 47.61 3.45 20.67-15 34.48-10.14 53.78 4.56 18 20.52 26.94 23.56 47 7.58 50.09-41.46 93.28-82.84 100.2-19.76 3.33-42.76-3.73-62.47-6.19z"/><path class="dcls-3" d="M158.15 103.69s1.1 25.52 4.06 30.43 15 8.32 25.44 14.11-22.56 28.35-54.38 23.77-30.66-19.09-30.66-19.09L131.34 135s8.3-7.59 7.72-18 13.3-19.1 19.09-13.31z"/><path class="dcls-4" d="M158.31 118.64l-.38-9.1c-5.78-5.78-19.67 2.89-19.09 13.31a1.48 1.48 0 000 .21c1.93 3.24 4.4 5.43 7.55 5.57 6.2.28 9.78-3.96 11.92-9.99z"/><path class="dcls-3" d="M129.82 88.93s1.66 35.22 16.7 35.79 16.79-18.58 17.77-32.53c1.1-15.63-.22-20.37-17.77-21.27-16.92-.86-16.7 18.01-16.7 18.01z"/><path class="dcls-5" d="M164.46 85.24l.31.11c4.2 1.56 5.52 7.52 3.34 11.36-.23.41-1.79 1.7-1.79 2 0 .87 1.69.78 1.47 2.17a4 4 0 01-4.94 2.8c-1.51-.57-1.19-2.33-1.41-3.69-.45-2.87-1.7-7.2-5.37-6.92-5.64.43-20 3-20 3s-1.32 4.46-1.51 4.84c-.81 1.62-1.67 2.75-3.42 3-1.24.18-3 .37-3.45-1.06s.18-2.21 1.24-3.18c-.92.85-1.83-1.8-1.83-2.26 0-1.33.94-2.73 1.45-3.91 1.5-3.45 4.12-4 7.47-5a94.47 94.47 0 0111.23-2.79c5.32-.98 12.01-2.25 17.21-.47z"/><path class="dcls-6" d="M186.18 191.69c-.24-12.06-4.31-22.63.89-34.86 3.33-7.83 13.91-20.57 23.06-12.24-16.09-9.62 8.72-37.86 23.61-35.34 5.3 11.22 2.72 25.34-6.05 34.64 5.09-1.57 7.36-.47 9 4.4 1.92 5.68-2.18 10.78-4.19 12.32S225.58 166 222 169c5 1 10.46 4.28 8.32 10.67-1.65 4.93-8.11 5.83-11.88 8.54 3.69-.06 7.68-.54 11 .8 2 12.31-15.75 18.55-24.11 21.92-11.8 4.76-23.81 9.27-35.55 13.54zM91.49 185.75c-3.09-2.48-6.45-4.82-7.34-9.07-1.24-5.88 2.47-6.07 5.41-10.63-8.1-4.28-15.56-5.47-20.56-14.79-4.89-9.17.7-15.06 10.1-13 1.29.28-6.87-7.1-8.26-8.36a25.3 25.3 0 01-6.61-10.86c-2.23-7.04-.54-16.16 8.57-16.12 7.9 0 10.93 8.84 13.6 15.06a47.22 47.22 0 013.08 9.42c4.28-3.06 6.21-9.06 11.71-4.33 3.83 3.31 4.46 11.16 2.26 15.43 6.19 0 9.67-1.31 14.46 3 3.1 2.78 6.08 7.48 8 11.58 4.37 9.32 10.45 43.27 11.16 54.26 0 0-39.07-16.34-45.58-21.59z"/><path class="dcls-7" d="M181.65 165.62c-2.07-10.48-.56-24.12 2.2-35 1.88-7.35 8-26.35 17.4-27.59 10.59-1.39 10.94 19.92 9.4 27-2.27 10.38-7.69 18.79-13.77 27.46-5.76 8.22-10.23 17.47-15.93 25.33zM107.55 95.87c-5.79-3.86-6.67 3.58-6.67 3.58S100 92 94.21 95.87s6.61 12.67 6.61 12.67h.11s12.4-8.81 6.62-12.67zM156.11 39.02l-2.74-1.33-2.64 1.5.41-3.01-2.24-2.05 2.99-.54 1.26-2.76 1.43 2.68 3.02.34-2.1 2.19.61 2.98zM167.25 39.02l-2.74-1.33-2.64 1.5.42-3.01-2.25-2.05 2.99-.54 1.26-2.76 1.43 2.68 3.03.34-2.11 2.19.61 2.98zM178.39 39.02l-2.73-1.33-2.65 1.5.42-3.01-2.25-2.05 3-.54 1.25-2.76 1.44 2.68 3.02.34-2.11 2.19.61 2.98zM189.53 39.02l-2.73-1.33-2.64 1.5.41-3.01-2.25-2.05 3-.54 1.25-2.76 1.44 2.68 3.02.34-2.11 2.19.61 2.98zM201.12 39.02l-2.74-1.33-2.64 1.5.41-3.01-2.25-2.05 3-.54 1.26-2.76 1.43 2.68 3.02.34-2.11 2.19.62 2.98zM192.93 52.44a13.09 13.09 0 00-13.09 13.09c0 7.22 13.09 27 13.09 27S206 72.75 206 65.53a13.08 13.08 0 00-13.07-13.09zm0 21.27a8.18 8.18 0 118.18-8.18 8.18 8.18 0 01-8.18 8.18z"/><path class="dcls-8" d="M187.69 193.2c-.24-12.06-4.31-22.63.89-34.86 3.33-7.83 13.92-20.57 23.07-12.24-16.09-9.62 8.71-37.85 23.6-35.33 5.3 11.21 2.72 25.34-6.05 34.64 5.1-1.58 7.36-.47 9 4.4 1.92 5.67-2.17 10.77-4.19 12.31s-6.92 5.38-10.48 8.34c5 1 10.46 4.28 8.32 10.67-1.64 4.93-8.11 5.83-11.88 8.55 3.7-.07 7.68-.55 11 .8 2 12.3-15.75 18.54-24.11 21.91-11.8 4.76-23.81 9.27-35.54 13.55zM93 187.27c-3.1-2.48-6.45-4.83-7.35-9.08-1.24-5.88 2.48-6.07 5.41-10.63-8.1-4.28-15.55-5.47-20.52-14.78s.7-15.06 10.11-13c1.29.28-6.88-7.09-8.27-8.35a25.49 25.49 0 01-6.61-10.87c-2.26-7.1-.58-16.18 8.53-16.13 7.9 0 10.94 8.84 13.6 15.06a45.77 45.77 0 013.1 9.43c4.29-3.06 6.22-9.07 11.71-4.33 3.83 3.3 4.46 11.15 2.26 15.43 6.2 0 9.67-1.32 14.46 3 3.1 2.78 6.08 7.48 8 11.58 4.37 9.33 10.46 43.27 11.17 54.27-.01-.01-39.11-16.41-45.6-21.6zM109.36 97.69c-5.79-3.86-6.67 3.58-6.67 3.58s-.88-7.44-6.67-3.58 6.61 12.67 6.61 12.67h.12s12.4-8.82 6.61-12.67zM157.92 40.83l-2.73-1.32-2.65 1.5.42-3.01-2.25-2.05 3-.54 1.25-2.77 1.44 2.68 3.02.34-2.11 2.19.61 2.98zM169.07 40.83l-2.74-1.32-2.64 1.5.41-3.01-2.25-2.05 3-.54 1.25-2.77 1.44 2.68 3.02.34-2.11 2.19.62 2.98zM180.21 40.83l-2.74-1.32-2.64 1.5.41-3.01-2.24-2.05 2.99-.54 1.26-2.77 1.43 2.68 3.02.34-2.1 2.19.61 2.98zM191.35 40.83l-2.73-1.32-2.65 1.5.42-3.01-2.25-2.05 2.99-.54 1.26-2.77 1.43 2.68 3.03.34-2.11 2.19.61 2.98zM202.93 40.83l-2.73-1.32-2.65 1.5.42-3.01-2.25-2.05 2.99-.54 1.26-2.77 1.43 2.68 3.03.34-2.11 2.19.61 2.98zM195.4 54.91A13.08 13.08 0 00182.32 68c0 7.23 13.08 27 13.08 27s13.09-19.76 13.09-27a13.09 13.09 0 00-13.09-13.09zm0 21.27a8.18 8.18 0 118.18-8.18 8.18 8.18 0 01-8.18 8.18z"/><path class="dcls-9" d="M236.51 154.08a8.23 8.23 0 00.37-1l-25.3 4.09L234 109.78c-.07-.17-.14-.35-.22-.53h-.45L221.4 134.4l-5.12-18.29c-.24.2-.48.4-.71.61l5.31 18.12-2.53 5.47-6-20.25c-.26.27-.52.54-.76.81l6.17 20.76-10.53 22.82-6.23-22.18-.81.27 6.43 23.13-25.83 54.7 1.15-.43 8.35-17.69v.26l36.56-4.25c.24-.31.46-.62.68-.94l-37 4.3 6.33-13.41 27.06-3c.76-.34 1.52-.7 2.23-1.09l-28.87 3.16 3.08-6.52 30.37-3.65a7.26 7.26 0 000-.94l-29.83 3.63 10.21-21.62z"/><path class="dcls-10" d="M133.27 204.81l-4.64-1.45a58.85 58.85 0 00-17.88-2.4c-2.65 0-5.34.1-7.94.2s-5.34.19-8 .19a69.53 69.53 0 01-12.06-.92l-1.1-.19c-4.54-.75-13-2.15-14.87-6.72-.82-2 .72-6 2.58-8.8a9 9 0 013.08-3.07 53.47 53.47 0 01-21.19-27.13l-.21-.65c-1.54-4.58-2.65-7.88.59-12.89 1.82-2.81 3.63-4.18 5.54-4.18 2.54 0 4.81 2.39 7.21 4.92.75.8 1.54 1.62 2.34 2.39 2.58 2.45 5.08 5.06 7.5 7.59s5.18 5.42 7.9 8c4.63 4.35 9.17 9.11 13.56 13.72 10.17 10.66 20.69 21.68 33.42 29zm-22.52-4.92a63.63 63.63 0 0114.55 1.47c-11.43-7.31-21.08-17.42-30.43-27.23-4.38-4.59-8.92-9.34-13.52-13.67-2.74-2.59-5.39-5.35-7.94-8-2.41-2.52-4.9-5.12-7.46-7.56-.83-.78-1.62-1.62-2.39-2.42-2.23-2.36-4.35-4.59-6.43-4.59-1.52 0-3 1.21-4.65 3.69-3 4.58-2 7.36-.47 12l.22.65a52.61 52.61 0 0022.18 27.5l-.56.9c-.81-.5-2.25.66-3.65 2.74-1.9 2.85-3 6.41-2.47 7.79 1.65 4 9.72 5.36 14 6.08l1.12.18a67.19 67.19 0 0011.87.92c2.68 0 5.39-.1 8-.2s5.36-.25 8.03-.25z"/><path class="dcls-9" d="M99.32 158.58l.7.08.1-.85-1.33-.16-4.38-7.52V150h-.11l-1.62-2.79 6.51-25.44a5 5 0 00-.8-.3L92 145.9l-9.17-15.74 3.33-12.86-.6-1.3-3.42 13-2.69-4.62 3.31-14.36c-.19-.35-.4-.7-.61-1l-3.62 13.81-10.85-18.61a6.8 6.8 0 00-.71.48l7 12-.17-.15-10.3-1.23c0 .29.07.58.11.87l10.84 1.34 18.82 32.33-25.85-3.1c0 .29.12.58.19.88l26.2 3.15 3.93 6.76L71 154.31c.25.34.5.65.76 1l26.54 3.18 25 43 1.33.58z"/><path class="dcls-11" d="M129 91.72s-4-23.42 20-22.31c22.65 1 15.67 22.12 15.67 22.12S139.62 95 129 91.72z"/><path class="dcls-12" d="M150.35 87.41a2.89 2.89 0 11-2.89-2.89 2.89 2.89 0 012.89 2.89z"/><path class="dcls-5" d="M146.52 110s-7.81-3.9-14.32-.87c0 0-2.6 22.13 14.32 22.13 19.53 0 15.19-22.56 15.19-22.56a20.88 20.88 0 00-15.19 1.3z"/><path class="dcls-12" d="M138.87 112.27s7.27 4.29 14.85-.21c0 0-7.08 14.94-14.85.21z"/><path class="dcls-13" d="M205.09 199.2l4.6 16.74s5.57 8.2 3.28 14.76-10.17 14.44-21.33 8.21l.33-17.72a6.49 6.49 0 002.62-.66c1.32-.65-3.61-5.58-8.86-14.76s17.07-8.53 19.36-6.57z"/><path class="dcls-3" d="M209.58 215.48c-7.56-2.81-14 5.09-14.36 5.29a6.29 6.29 0 01-2.54.64l-.31 17.13c10.78 6 18.4-1.59 20.62-7.93s-3.18-14.28-3.18-14.28z"/><path class="dcls-14" d="M129 91.72s-10.86 6.38 5.41 6.1c25.17-.43 30.26-6.29 30.26-6.29s-28.55 2.11-35.67.19z"/><path class="dcls-13" d="M88.57 199.78L84 216.52s-5.57 8.2-3.28 14.76 10.17 14.44 21.33 8.21l-.33-17.72a6.49 6.49 0 01-2.62-.66c-1.32-.65 3.61-5.58 8.86-14.76s-17.1-8.54-19.39-6.57z"/><path class="dcls-3" d="M84.22 215.64c8.07-2.62 14.43 5.26 14.85 5.47a6.49 6.49 0 002.62.66l.33 17.72c-11.16 6.23-19-1.64-21.33-8.21S84 216.52 84 216.52z"/><path class="dcls-11" d="M190 149.66l-19.18-9.75a15.53 15.53 0 00-1.84 1.45 49.27 49.27 0 01-13 4.84c-17.07 3.05-30.47-6.17-31.62-6.94l-20.73 11s-15.42 18-17.72 48.89a37.76 37.76 0 0022.64 9.19s3.29-5.58 4.6-5.26c.66.17.82 7.19.82 14.27l.12-10.86c.94 18.13 1.64 33.52 1.64 33.52l33.55-.29 28.6-.29s.69-15.39 1.63-33.52l.12 10.86c0-7.08.17-14.1.82-14.26 1.32-.33 4.6 5.25 4.6 5.25a37.76 37.76 0 0022.64-9.19c-2.27-30.86-17.69-48.91-17.69-48.91z"/><path class="dcls-9" d="M147.39 195s-13-4.34-4.77-15.18 3-23.87 3-23.87 10 4.78 7.81 13.45-10.81 20.84-6.04 25.6zM133.37 195.52s-9.78-6-2.39-14.58 1.79-16.33 1.79-16.33 5.76 5.07 6 11.16-9.16 17.09-5.4 19.75zM159.54 196.31s-8.25-8.24-2.17-14.32 1.73-8.24 1.73-8.24 4.78 2.6 3 8.68-3.86 10.85-2.56 13.88z"/><path class="dcls-12" d="M118.55 142.36l-.9.47c3 1.82 16.42 9.3 31.34 9.3A36.11 36.11 0 00174.81 142l-.77-.39c-20.65 19.39-49.6 4.18-55.49.75z"/><ellipse class="dcls-7" cx="96.74" cy="51.09" rx="28.65" ry="27.18"/><path class="dcls-12" d="M123.12 51.29a23.77 23.77 0 11-23.77-23.77 23.77 23.77 0 0123.77 23.77z"/><path class="dcls-5" d="M99.46 49.42l12.55-12.54-11.71 17.98-.84-5.44z"/><path class="dcls-5" d="M99.46 49.42l-10.04-4.18 10.88 9.62 1.67-2.51-2.51-2.93z"/><path class="dcls-15" d="M100.88 33.11a1.53 1.53 0 11-1.53-1.53 1.53 1.53 0 011.53 1.53zM100.88 68.8a1.53 1.53 0 11-1.53-1.53 1.53 1.53 0 011.53 1.53zM117.19 52.49a1.53 1.53 0 111.53-1.49 1.54 1.54 0 01-1.53 1.49zM81.5 52.49A1.53 1.53 0 1183 51a1.54 1.54 0 01-1.5 1.49z"/><path class="dcls-7" d="M66.29 38.05v5.78l-44.44-3.47 44.44-2.31zM55.09 47.8v5.78l-44.44-3.47 44.44-2.31zM256.37 178.77a.91.91 0 11-1.79 0v-3.56a.91.91 0 111.79 0zM256.37 164.78a.91.91 0 11-1.79 0v-3.56a.91.91 0 111.79 0zM263.52 173.61a.91.91 0 11-.89 1.55l-3.09-1.79a.91.91 0 11.89-1.54zM251.41 166.62a.91.91 0 11-.89 1.54l-3.09-1.78a.91.91 0 11.89-1.55zM262.63 164.83a.91.91 0 11.89 1.55l-3.09 1.78a.91.91 0 11-.89-1.54zM250.52 171.83a.91.91 0 11.89 1.54l-3.09 1.79a.91.91 0 11-.89-1.55zM35.87 191.25A8.21 8.21 0 0134 191a8.56 8.56 0 013.8-16.7.65.65 0 01-.28 1.26 7.25 7.25 0 105.41 5.19.63.63 0 01.45-.78.64.64 0 01.79.45 8.57 8.57 0 01-8.27 10.8z"/><path class="dcls-7" d="M35.77 184.53a.63.63 0 01-.43-.17l-4.67-4.23a.64.64 0 11.86-.95l4.19 3.82 10.6-11.83a.64.64 0 011 .86l-11 12.31a.63.63 0 01-.44.22z"/><path class="dcls-14" d="M243.14 192a6 6 0 00-5.95 5.95c0 3.28 5.95 12.26 5.95 12.26s5.94-9 5.94-12.26a5.94 5.94 0 00-5.94-5.95zm0 9.66a3.72 3.72 0 113.71-3.71 3.71 3.71 0 01-3.71 3.73z"/><ellipse class="dcls-8" cx="98.49" cy="52.85" rx="28.65" ry="27.18"/><path class="dcls-8" d="M124.87 53a23.77 23.77 0 11-23.77-23.73A23.77 23.77 0 01124.87 53zM146.23 101.1s-2.18 3.54-1.66 4.41 2.52.63 2.52.63"/><path class="dcls-5" d="M48.09 172.22a.64.64 0 01.43.16.65.65 0 010 .91l-11 12.31a.63.63 0 01-.44.22.63.63 0 01-.43-.17L32 181.43a.66.66 0 01-.05-.91.67.67 0 01.48-.22.63.63 0 01.43.17l4.14 3.79 10.6-11.83a.64.64 0 01.48-.21m-10.93 3.19a8.78 8.78 0 011.9.21.64.64 0 01-.14 1.27h-.14a6.89 6.89 0 00-1.62-.19 7.28 7.28 0 00-1.62 14.38 7.59 7.59 0 001.62.18 7.28 7.28 0 007.09-5.66 7.19 7.19 0 00-.06-3.51.63.63 0 01.45-.79.51.51 0 01.17 0 .65.65 0 01.62.48 8.57 8.57 0 01-8.27 10.8 8.27 8.27 0 01-1.9-.22 8.56 8.56 0 011.9-16.91m10.93-3.69a1.13 1.13 0 00-.85.38L37 183.55l-3.82-3.45a1.14 1.14 0 00-.77-.3 1.19 1.19 0 00-.81.34 6.85 6.85 0 015.58-2.95 7 7 0 011.51.17 1.07 1.07 0 00.25 0 1.14 1.14 0 001.06-.86 1.19 1.19 0 00-.15-.86 1.14 1.14 0 00-.72-.51 9.08 9.08 0 106.74 6.48 1.14 1.14 0 00-1.1-.85 1.54 1.54 0 00-.3 0 1.1 1.1 0 00-.69.54 1.06 1.06 0 00-.11.87 7 7 0 01.06 3.27 6.78 6.78 0 01-13.22-3 6.72 6.72 0 01.77-1.92 1 1 0 00-.07.46 1.15 1.15 0 00.37.79l4.71 4.23a1.18 1.18 0 00.77.3 1.19 1.19 0 00.8-.38l11-12.32a1.08 1.08 0 00.29-.82 1.14 1.14 0 00-1.14-1.08z"/><path class="dcls-8" d="M150.35 87.41a2.89 2.89 0 11-2.89-2.89 2.89 2.89 0 012.89 2.89zM244.65 193.53a6 6 0 00-6 5.95c0 3.28 6 12.26 6 12.26s5.95-9 5.95-12.26a6 6 0 00-5.95-5.95zm0 9.67a3.72 3.72 0 113.72-3.72 3.73 3.73 0 01-3.72 3.72zM130.47 93.23s-10.86 6.39 5.42 6.11c25.16-.44 30.25-6.3 30.25-6.3s-28.51 2.12-35.67.19z"/><path class="dcls-5" d="M67.8 39.56v5.78l-44.44-3.47 44.44-2.31m.5-.53h-.52l-44.45 2.34v1l44.44 3.47h.54V39zM56.6 49.32v5.78l-44.44-3.47 44.44-2.31m.5-.53h-.52l-44.45 2.34v1l44.44 3.46h.54v-6.8z"/><path class="dcls-8" d="M148.9 196.52s-13-4.33-4.77-15.18 3-23.86 3-23.86 10 4.77 7.81 13.45-10.81 20.82-6.04 25.59zM134.89 197s-9.79-6-2.39-14.58 1.78-16.32 1.78-16.32 5.77 5.07 6 11.15-9.16 17.12-5.39 19.75zM161.05 197.83s-8.24-8.25-2.17-14.32 1.74-8.25 1.74-8.25 4.77 2.61 3 8.68-3.87 10.85-2.57 13.89z"/><path class="dcls-16" d="M192.37 250.91l-93.14.63 9.25-50.02h75.79l8.1 49.39z"/><path class="dcls-12" d="M189.16 250.32l-86.73.56 8.62-44.28h70.57l7.54 43.72z"/><path class="dcls-17" d="M183.72 233c0 14.51-16.37 26.26-36.56 26.26S110.6 247.49 110.6 233s16.37-26.25 36.56-26.25 36.56 11.73 36.56 26.25z"/><path class="dcls-18" d="M179.79 231.41c0 13.78-15.15 24.94-33.84 24.94s-33.84-11.16-33.84-24.94 15.15-24.93 33.84-24.93 33.84 11.16 33.84 24.93z"/><path class="dcls-19" d="M174.63 231.41c0 11.68-12.84 21.14-28.68 21.14s-28.69-9.46-28.69-21.14 12.85-21.13 28.69-21.13 28.68 9.46 28.68 21.13z"/><path class="dcls-9" d="M173 231.41c0 11-12.12 20-27.07 20s-27.07-8.93-27.07-20S131 211.46 146 211.46s27 8.94 27 19.95z"/><path class="dcls-8" d="M174.53 232.93c0 11-12.12 19.94-27.07 19.94s-27.07-8.93-27.07-19.94 12.12-20 27.07-20 27.07 8.98 27.07 20z"/><path class="dcls-20" d="M144.34 219.78c0 1.83-2 3.32-4.52 3.32s-4.51-1.49-4.51-3.32 2-3.33 4.51-3.33 4.52 1.49 4.52 3.33zM168.83 232.84c0 1.83-2 3.32-4.51 3.32s-4.51-1.49-4.51-3.32 2-3.33 4.51-3.33 4.51 1.49 4.51 3.33zM142.73 241.63c0 1.83-2 3.32-4.52 3.32s-4.51-1.49-4.51-3.32 2-3.33 4.51-3.33 4.52 1.49 4.52 3.33zM129.83 231.18c0 1.83-2 3.32-4.51 3.32s-4.51-1.49-4.51-3.32 2-3.33 4.51-3.33 4.51 1.49 4.51 3.33zM162.71 218.59c0 1.84-2 3.32-4.51 3.32s-4.52-1.48-4.52-3.32 2-3.32 4.52-3.32 4.51 1.48 4.51 3.32zM158.84 245.9c0 1.84-2 3.33-4.51 3.33s-4.51-1.49-4.51-3.33 2-3.32 4.51-3.32 4.51 1.48 4.51 3.32z"/><path class="dcls-5" d="M145 236.4c0 .66-.72 1.19-1.61 1.19s-1.61-.53-1.61-1.19.72-1.19 1.61-1.19 1.61.54 1.61 1.19zM137.57 234c0 .65-.72 1.18-1.61 1.18s-1.61-.53-1.61-1.18.72-1.19 1.61-1.19 1.61.56 1.61 1.19zM156.58 226c0 .66-.72 1.19-1.61 1.19s-1.61-.53-1.61-1.19.72-1.19 1.61-1.19 1.61.49 1.61 1.19zM132.09 221.91c0 .66-.72 1.19-1.61 1.19s-1.61-.53-1.61-1.19.72-1.18 1.61-1.18 1.61.53 1.61 1.18zM161.42 239c0 .66-.72 1.19-1.61 1.19s-1.61-.53-1.61-1.19.72-1.18 1.61-1.18 1.61.54 1.61 1.18zM143.69 248.51c0 .66-.72 1.19-1.61 1.19s-1.61-.53-1.61-1.19.72-1.19 1.61-1.19 1.61.54 1.61 1.19zM130.16 241.86c0 .66-.73 1.19-1.61 1.19s-1.62-.53-1.62-1.19.73-1.18 1.62-1.18 1.61.53 1.61 1.18z"/><path class="dcls-20" d="M152.07 231.89c0 1.05-1.15 1.9-2.58 1.9s-2.57-.85-2.57-1.9 1.15-1.9 2.57-1.9 2.58.85 2.58 1.9zM150.46 214.43c0 .86-.94 1.55-2.09 1.55s-2.1-.69-2.1-1.55.94-1.54 2.1-1.54 2.09.69 2.09 1.54zM137.89 230.58c0 .59-.65 1.07-1.45 1.07s-1.45-.48-1.45-1.07.65-1.07 1.45-1.07 1.45.49 1.45 1.07zM165.29 241c0 .46-.51.83-1.13.83s-1.16-.34-1.16-.83.51-.83 1.13-.83 1.16.4 1.16.83zM166.9 225.83c0 .72-.8 1.31-1.78 1.31s-1.77-.59-1.77-1.31.8-1.3 1.77-1.3 1.78.58 1.78 1.3z"/><path class="dcls-10" d="M145.63 226.43s-4.51-6.89 4.83-8.32c0 0 5.16 4.99-4.83 8.32zM149.17 235.93s5.16-2.38 7.09 3.32c0 0-4.19 1.9-7.09-3.32zM132.26 226.46s-1-3.79-6.83-1a5.51 5.51 0 006.83 1z"/><path class="dcls-21" d="M151 233.21a5.09 5.09 0 005.5-.32c1.59-1.17 1.77-3 .42-4a.39.39 0 00-.1-.08 1.66 1.66 0 00-1.86 0 .8.8 0 000 1.37l-.13.09c-.77-.12-1.66-.63-1.55-2.29 0 0-.25-.34-2.06 1s-1.45 1.6-1.45 1.6c2.26-.09 2.94.57 3.11 1.14l-.13.1a1.64 1.64 0 00-1.85 0 .8.8 0 000 1.36zM164.85 224.54c1-1.28.3-3-1.61-3.89s-4.32-.62-5.45.59l-.09.08a.83.83 0 00.41 1.34 1.62 1.62 0 001.81-.3l.16.07c0 .59-.47 1.34-2.71 1.62 0 0-.38.25 1.78 1.26s2.42.7 2.42.7c-.61-1.61.12-2.24.83-2.49l.16.07a.83.83 0 00.41 1.34 1.62 1.62 0 001.81-.3zM125.88 235.89c-.72 1.37.34 3 2.41 3.65s4.39.12 5.26-1.2l.07-.09c.28-.5 0-1.07-.69-1.28a1.52 1.52 0 00-1.72.51l-.17-.06c-.13-.58.17-1.37 2.32-1.91 0 0 .33-.29-2-1s-2.54-.41-2.54-.41c.95 1.52.36 2.23-.29 2.55l-.17-.05c.29-.49 0-1.06-.69-1.27a1.5 1.5 0 00-1.72.5.47.47 0 00-.07.06zM133.21 223.89c-.71 1.37.34 3 2.41 3.65s4.39.12 5.26-1.2l.07-.09c.29-.49 0-1.06-.69-1.28a1.54 1.54 0 00-1.73.51l-.16-.06c-.13-.58.18-1.37 2.33-1.91 0 0 .32-.29-2-1s-2.55-.41-2.55-.41c1 1.52.37 2.23-.29 2.56l-.17-.06c.29-.49 0-1.06-.68-1.27a1.53 1.53 0 00-1.73.5zM144.17 239.8c-.72 1.37.33 3 2.41 3.65s4.39.12 5.26-1.2l.06-.09c.29-.49 0-1.06-.68-1.28a1.54 1.54 0 00-1.73.51l-.17-.06c-.12-.57.18-1.37 2.33-1.9 0 0 .33-.3-2-1.05s-2.54-.41-2.54-.41c.94 1.52.36 2.23-.3 2.56l-.16-.06c.29-.49 0-1.06-.69-1.27a1.51 1.51 0 00-1.72.5z"/><path class="dcls-22" d="M144.06 232.68a3.43 3.43 0 01-1.53-.3l-.6-.29.41-.52a8.26 8.26 0 011.57-1.3c.73-.52 2.43-1.74 2.22-2.19-.33-.67-2-.2-3.22.14a11.37 11.37 0 01-1.74.4l-.11-1.06a10.56 10.56 0 001.56-.37c1.67-.47 3.75-1.05 4.47.43.6 1.25-1.08 2.46-2.56 3.52l-.65.47a6.54 6.54 0 00.75 0l.06 1.07zM164.77 239v-.77a2.34 2.34 0 00-.54-1.93c-.57-.55-1.73-.74-3.44-.57l-.11-1.06c2.09-.21 3.46.06 4.29.86a2.93 2.93 0 01.86 2l.9-.2c.44-.09.88-.19 1.27-.3l.29 1c-.41.12-.87.22-1.34.32s-1.06.22-1.49.36zM143 248.46l-.06-.64v-1a5.72 5.72 0 00-.15-1.53 4.34 4.34 0 00-.8.15l-.3-1a6.78 6.78 0 011.41-.23h.36l.16.33a5.17 5.17 0 01.39 2.32v.14a6.33 6.33 0 001.21-.9 10 10 0 011.15-.92l.3-.2.3.21a5.5 5.5 0 011.47 1.41l-1 .48a3.72 3.72 0 00-.83-.8 9.13 9.13 0 00-.73.62 5.44 5.44 0 01-2.28 1.37zM133.2 217.66l-.93-.52a6.73 6.73 0 011-1.23c.15-.16.3-.31.43-.47l.23-.28.35.12a4 4 0 00.8.11 6.63 6.63 0 011.06.16c.62-.78 1.39-1.69 2.35-2.78l.8.71a91.708 91.708 0 00-2.55 3l-.27.35-.4-.2a3.06 3.06 0 00-1.09-.21c-.23 0-.46 0-.68-.08l-.25.26a5.73 5.73 0 00-.85 1.06zM122.36 228.08l-.52-.93a2 2 0 00.58-.42c-.73-.08-1.74-.33-1.81-1.21-.11-1.36 2.47-2.71 3.64-2.94l.21 1c-1.19.23-2.78 1.41-2.79 1.8a2.51 2.51 0 001.36.27h.41l.1.4c.28 1.23-.78 1.81-1.18 2.03zM132.88 247.05a4.64 4.64 0 00-1.15-1.46l-.17.11a2.71 2.71 0 00-1 .89l-.15.28h-.32A3.94 3.94 0 01127 245l-.12-.15.83-.67.12.15a3.11 3.11 0 002 1.49 4.26 4.26 0 011.16-1l.48-.32.32-.24.32.25a6.26 6.26 0 011.77 2.15zM171.07 230.76a11.83 11.83 0 01-3-.53l-.31-.09-.07-.31a3 3 0 010-1.36l.07-.29.29-.08a2.36 2.36 0 001.78-1.73l-.54-.2c-.64-.24-1.29-.48-1.92-.65l.29-1c.67.18 1.35.44 2 .68l.87.32.31.11v.32a3 3 0 01-2.2 3.08 1.5 1.5 0 000 .3 9.79 9.79 0 002.39.39z"/><path class="dcls-8" d="M152.56 234.72a5.09 5.09 0 005.49-.31c1.6-1.18 1.77-3 .42-4l-.09-.08a1.66 1.66 0 00-1.86 0 .8.8 0 000 1.37l-.13.1c-.78-.13-1.67-.63-1.55-2.3 0 0-.25-.33-2.06 1s-1.46 1.59-1.46 1.59c2.27-.09 3 .57 3.12 1.14l-.13.1a1.66 1.66 0 00-1.86 0 .8.8 0 000 1.37zM166.36 226.05c1-1.27.3-3-1.61-3.88s-4.31-.63-5.45.58l-.08.09a.83.83 0 00.4 1.33 1.6 1.6 0 001.81-.3l.16.07c0 .59-.47 1.34-2.7 1.62 0 0-.39.26 1.77 1.26s2.42.7 2.42.7c-.61-1.61.12-2.24.84-2.49l.15.07a.84.84 0 00.41 1.34 1.61 1.61 0 001.81-.3zM127.39 237.4c-.71 1.38.34 3 2.41 3.65s4.39.12 5.26-1.2l.07-.09c.29-.49 0-1.06-.69-1.27a1.5 1.5 0 00-1.72.5l-.17-.06c-.13-.57.18-1.37 2.33-1.9 0 0 .33-.3-2-1.05s-2.54-.41-2.54-.41c.94 1.52.36 2.23-.3 2.56l-.17-.06c.29-.49 0-1.06-.68-1.27a1.53 1.53 0 00-1.73.5zM134.72 225.4c-.71 1.38.34 3 2.41 3.65s4.39.13 5.27-1.2l.06-.09c.29-.49 0-1.06-.68-1.27a1.51 1.51 0 00-1.73.5l-.17-.05c-.13-.58.18-1.38 2.33-1.91 0 0 .33-.3-2-1.05s-2.54-.41-2.54-.41c.94 1.52.36 2.23-.3 2.56l-.17-.06c.29-.49 0-1.06-.68-1.27a1.53 1.53 0 00-1.73.5.93.93 0 01-.07.1zM145.68 241.32c-.71 1.37.34 3 2.41 3.64s4.39.13 5.26-1.19l.07-.1c.29-.49 0-1.06-.69-1.27a1.5 1.5 0 00-1.72.5l-.17-.05c-.13-.58.18-1.38 2.33-1.91 0 0 .32-.3-2-1s-2.55-.42-2.55-.42c1 1.52.37 2.23-.29 2.56h-.17c.29-.49 0-1.06-.68-1.28a1.53 1.53 0 00-1.73.51.31.31 0 00-.07.01z"/><path class="dcls-16" d="M99.23 251.09l-.29 8.97 94.29.58-.86-10.13-93.14.58z"/><path class="dcls-8" d="M193.88 252.43l-93.14.63 9.26-50.03h75.78l8.1 49.4z"/><path class="dcls-8" d="M100.74 252.6l-.29 8.97 94.3.58-.87-10.12-93.14.57z"/><path class="dcls-13" d="M94.37 227.54c.43-5.1 13-10.69 13-10.69 3.47 2-1.16 3.76-1.45 6.65s.58 2.9.58 2.9c2 3-1.74 4.91-1.74 4.91 2.18 4.05-1.44 5.21-1.44 5.21 1.74 4.42-.25 4.54-1.1 4.41.19 1.21.34 3.11-.64 3.4-1.39.42-4.81-5.59-4.9-6-.55-1.85-2.68-5.99-2.31-10.79zM198.28 226.12c-.43-5.1-12-9.85-12-9.85-3.47 2 1.16 3.76 1.45 6.65s-.58 2.9-.58 2.9c-2 3 1.74 4.91 1.74 4.91-2.17 4.05 1.44 5.21 1.44 5.21-1.74 4.42.26 4.54 1.1 4.41-.19 1.21-.33 3.11.64 3.4 1.39.42 4.34-4.2 4.42-4.64.56-1.83 2.19-8.2 1.79-12.99z"/></g></g></svg><svg viewBox="0 0 512 512" id="delivery" xmlns="http://www.w3.org/2000/svg"><g data-name="02-car"><g data-name="linear color"><path d="M484.973 287.049l-93.5-40.877-55.953-68.861A35.824 35.824 0 00307.58 164H83.78a43.76 43.76 0 00-39.353 24.323L8.642 259.884A44.279 44.279 0 004 279.55V376a36.04 36.04 0 0036 36h13.207a60.006 60.006 0 00117.586 0h186.415a60 60 0 00117.606-.12A36.041 36.041 0 00508 376v-55.37a36.168 36.168 0 00-23.027-33.581zm-168.086-94.611L358.786 244H268v-56h39.58a11.927 11.927 0 019.307 4.438zM196 188v56H94.08l26.909-56zM65.893 199.057A19.891 19.891 0 0183.78 188h10.582l-26.909 56H43.418zM112 436a36 36 0 1136-36 36.04 36.04 0 01-36 36zm304 0a36 36 0 1136-36 36.04 36.04 0 01-36 36zm68-60a12.013 12.013 0 01-9.278 11.677 60 60 0 00-117.514.323H170.793a60.006 60.006 0 00-117.586 0H40a12.013 12.013 0 01-12-12v-96.45a20.147 20.147 0 012.113-8.943l1.3-2.607H208a12 12 0 0012-12v-68h24v68a12 12 0 0012 12h125.491l94.132 41.155q.294.129.594.241A12.053 12.053 0 01484 320.63z"/><circle cx="112" cy="400" r="12"/><circle cx="416" cy="400" r="12"/><path d="M272 292h-15a12 12 0 000 24h15a12 12 0 000-24zM128 292h-24a12 12 0 000 24h24a12 12 0 000-24z"/></g></g></svg><svg viewBox="0 0 512 512" id="pizza" xmlns="http://www.w3.org/2000/svg"><path d="M462.302 245.151c-12.958-37.266-31.816-72.044-56.051-103.367-3.381-4.369-9.662-5.169-14.028-1.79-4.368 3.38-5.17 9.66-1.79 14.028 47.146 60.937 72.067 134.001 72.067 211.294 0 11.522-9.359 20.897-20.864 20.897-8.591 0-15.981-5.23-19.175-12.676-.02-.042-.037-.085-.057-.126a20.81 20.81 0 01-1.631-8.095c0-100.24-49.407-193.936-132.164-250.635a10 10 0 00-15.652 8.25v9.581c0 9.35-7.594 16.957-16.928 16.957s-16.928-7.606-16.928-16.957v-30.67c0-5.523-4.478-10-10-10s-10 4.477-10 10v73.614c0 9.334-7.581 16.929-16.9 16.929-9.334 0-16.928-7.594-16.928-16.929V77.492a10 10 0 00-8.031-9.804c-19.473-3.911-39.551-5.894-59.676-5.894-2.863 0-5.592-.582-8.078-1.632-.044-.021-.089-.04-.133-.06-7.432-3.2-12.652-10.602-12.652-19.205 0-11.522 9.359-20.897 20.863-20.897 77.397 0 150.521 25.06 211.464 72.471 4.358 3.391 10.643 2.607 14.033-1.753 3.392-4.359 2.606-10.642-1.752-14.033-31.322-24.367-66.12-43.331-103.426-56.365C199.293 6.837 158.812 0 117.566 0 95.033 0 76.702 18.346 76.702 40.897c0 13.804 6.876 26.024 17.373 33.434L29.65 441.739a10.002 10.002 0 002.78 8.8 9.993 9.993 0 008.803 2.775l52.819-9.294c3.128-.544 5.542-.336 6.624.574.962.809 1.99 3.193 1.99 7.461v16.837c0 19.565 15.893 35.483 35.428 35.483 19.534 0 35.427-15.917 35.427-35.483v-27.879c-.002-3.745-.003-7.617.888-9.249.712-1.303 3.548-2.479 7.771-3.223l30.901-5.416c3.123-.55 5.532-.347 6.609.557.96.806 1.985 3.187 1.985 7.453v45.382c0 19.565 15.893 35.483 35.428 35.483 19.534 0 35.427-15.917 35.427-35.483v-56.424c-.002-3.745-.003-7.617.888-9.249.712-1.304 3.548-2.479 7.774-3.224l107.034-18.799c7.403 10.508 19.614 17.391 33.408 17.391 22.532 0 40.864-18.346 40.864-40.897.002-41.189-6.794-81.618-20.196-120.164zM86.966 230.669a43.875 43.875 0 0113.869 9.395c17.186 17.204 17.186 45.197 0 62.4-7.734 7.743-18.001 12.228-28.707 12.825zm210.763 157.255c-25.209 4.441-25.202 21.804-25.197 32.178v56.416c0 8.537-6.921 15.483-15.427 15.483-8.507 0-15.428-6.946-15.428-15.483v-45.382c0-12.49-4.964-19.278-9.129-22.773-4.033-3.384-11.283-6.986-22.928-4.935l-30.901 5.416c-25.209 4.441-25.202 21.804-25.197 32.178v27.871c0 8.537-6.921 15.483-15.427 15.483-8.507 0-15.428-6.946-15.428-15.483v-16.837c0-12.481-4.959-19.271-9.118-22.769-4.029-3.388-11.272-7-22.945-4.966l-38.791 6.826 16.798-95.799c.356.006.712.023 1.067.023 16.84 0 33.205-6.656 45.308-18.771 24.97-24.997 24.97-65.671-.001-90.669-6.979-6.986-15.323-12.181-24.501-15.317l22.632-129.066c1.463.159 2.946.247 4.451.247 16.049 0 32.059 1.348 47.707 4.013v89.648c0 20.363 16.565 36.929 36.928 36.929 20.347 0 36.9-16.566 36.9-36.929v-10.104a36.68 36.68 0 0016.928 4.117c17.164 0 31.631-11.78 35.752-27.686a283.791 283.791 0 01100.448 154.42 66.46 66.46 0 00-17.389-2.311c-36.568 0-66.319 29.778-66.319 66.38 0 8.646 1.646 17.067 4.82 24.911zm35.969-6.318c-3.396-6.548-5.178-13.816-5.178-21.336 0-25.574 20.778-46.38 46.319-46.38a46.226 46.226 0 0122.218 5.665 283.846 283.846 0 013.714 45.76c0 1.51.088 2.999.248 4.466z"/><path d="M316.818 208.61c-7.422-7.43-17.291-11.521-27.788-11.521s-20.366 4.092-27.788 11.521c-15.313 15.331-15.313 40.275 0 55.605 7.422 7.43 17.291 11.521 27.788 11.521s20.366-4.092 27.788-11.521c15.314-15.33 15.314-40.274 0-55.605zm-14.15 41.471c-3.644 3.647-8.486 5.656-13.638 5.656s-9.994-2.009-13.638-5.656c-7.528-7.536-7.528-19.799 0-27.335 3.644-3.647 8.486-5.656 13.638-5.656s9.994 2.009 13.638 5.656c7.528 7.536 7.528 19.798 0 27.335zM192.035 272.165a9.968 9.968 0 007.084-2.942l10.901-10.941c3.898-3.913 3.887-10.244-.026-14.142-3.911-3.897-10.244-3.887-14.142.026l-10.901 10.941c-3.898 3.913-3.887 10.244.026 14.142a9.971 9.971 0 007.058 2.916zM98.255 366.966c-5.522 0-10 4.477-10 10v15.477c0 5.523 4.478 10 10 10s10-4.477 10-10v-15.477c0-5.523-4.478-10-10-10zM130.591 157.008c-5.522 0-10 4.477-10 10v15.477c0 5.523 4.478 10 10 10s10-4.477 10-10v-15.477c0-5.523-4.478-10-10-10zM208.284 318.054c-6.983-6.991-16.27-10.841-26.146-10.841s-19.161 3.851-26.145 10.841c-14.408 14.424-14.408 37.893 0 52.316 6.983 6.991 16.269 10.841 26.145 10.841h.001c9.876 0 19.162-3.85 26.146-10.841 14.408-14.423 14.408-37.892-.001-52.316.001 0 .001 0 0 0zm-14.148 38.182c-3.206 3.209-7.467 4.976-11.997 4.976s-8.79-1.767-11.995-4.976c-6.623-6.63-6.623-17.417 0-24.047 3.205-3.208 7.465-4.976 11.995-4.976s8.791 1.767 11.996 4.976c6.623 6.63 6.623 17.417.001 24.047zM269.673 324.914c-3.903-3.907-10.235-3.911-14.143-.007-3.907 3.903-3.91 10.235-.008 14.142l10.93 10.941a9.97 9.97 0 007.075 2.933 9.967 9.967 0 007.067-2.925c3.907-3.903 3.91-10.235.008-14.142zM361.511 121.157a9.937 9.937 0 007.051 2.922 9.98 9.98 0 007.077-2.936c3.905-3.905 3.892-10.251-.014-14.157-3.906-3.905-10.236-3.905-14.143 0-3.905 3.905-3.905 10.237 0 14.143z"/></svg><svg viewBox="0 0 512 512" id="sauce" xmlns="http://www.w3.org/2000/svg"><path d="M512 133.05c0-5.577-4.522-10.1-10.1-10.1H10.1c-5.578 0-10.1 4.523-10.1 10.1 0 68.38 26.628 132.669 74.98 181.021 23.657 23.657 51.135 42.098 81.035 54.779H85.64c-5.578 0-10.1 4.523-10.1 10.1s4.522 10.1 10.1 10.1h340.72c5.578 0 10.1-4.523 10.1-10.1s-4.522-10.1-10.1-10.1h-70.375c29.9-12.682 57.377-31.123 81.035-54.779C485.372 265.719 512 201.431 512 133.05zM71.843 143.151h113.93v72.238c0 8.155-3.174 15.814-8.945 21.577-5.753 5.762-13.413 8.936-21.568 8.936-16.825 0-30.513-13.688-30.513-30.513v-20.858c0-5.578-4.522-10.1-10.1-10.1s-10.1 4.523-10.1 10.1c0 4.369-1.701 8.477-4.789 11.565s-7.194 4.788-11.564 4.788c-9.016 0-16.352-7.336-16.352-16.352v-51.381zM256 368.85c-126.64 0-230.282-100.342-235.586-225.7h31.229v51.38c0 20.155 16.398 36.553 36.553 36.553 6.255 0 12.269-1.56 17.599-4.495 5.113 22.593 25.351 39.512 49.467 39.512 13.555 0 26.292-5.278 35.852-14.851 9.584-9.57 14.861-22.305 14.861-35.862v-72.238h285.612C486.282 268.51 382.64 368.85 256 368.85z"/><path d="M406.379 168.439h-69.082c-5.578 0-10.1 4.523-10.1 10.1s4.522 10.1 10.1 10.1h69.081c5.578 0 10.1-4.523 10.1-10.1s-4.521-10.1-10.099-10.1zM437.016 167.82c-12.998 0-13.019 20.2 0 20.2 12.998 0 13.019-20.2 0-20.2z"/></svg><svg viewBox="0 0 24 24" id="yummy" xmlns="http://www.w3.org/2000/svg"><path d="M12 24C5.383 24 0 18.617 0 12S5.383 0 12 0s12 5.383 12 12-5.383 12-12 12zm0-23C5.935 1 1 5.935 1 12s4.935 11 11 11 11-4.935 11-11S18.065 1 12 1z"/><path d="M9.5 10a.5.5 0 01-.5-.5C9 8.673 8.327 8 7.5 8S6 8.673 6 9.5a.5.5 0 01-1 0C5 8.122 6.122 7 7.5 7S10 8.122 10 9.5a.5.5 0 01-.5.5zM18.5 10a.5.5 0 01-.5-.5c0-.827-.673-1.5-1.5-1.5S15 8.673 15 9.5a.5.5 0 01-1 0C14 8.122 15.122 7 16.5 7S19 8.122 19 9.5a.5.5 0 01-.5.5zM12 19c-2.732 0-5.265-1.394-6.773-3.729a.5.5 0 01.839-.543C7.39 16.777 9.608 18 12 18s4.61-1.223 5.934-3.271a.5.5 0 01.839.543C17.265 17.606 14.732 19 12 19z"/><path d="M12.5 18.98a.5.5 0 01-.5-.5V14.5c0-.402-.156-.776-.439-1.052A1.465 1.465 0 0010.5 13c-.827 0-1.5.673-1.5 1.5v3.13a.5.5 0 01-1 0V14.5c0-1.378 1.122-2.5 2.5-2.5.674 0 1.302.263 1.768.741A2.44 2.44 0 0113 14.5v3.98a.5.5 0 01-.5.5z"/></svg></svg>