<?xml version="1.0" encoding="utf-8"?><svg viewBox="0 0 64.68 65.16" xmlns="http://www.w3.org/2000/svg" xmlns:xlink="http://www.w3.org/1999/xlink"><style>:root>svg{display:none}:root>svg:target{display:block}</style><svg viewBox="0 0 64 64" id="dish" xmlns="http://www.w3.org/2000/svg"><path d="M45.32 21.57l-.684-2.254a4.896 4.896 0 00-9.272 0l-.684 2.254a12.66 12.66 0 00-.354 5.867 5.518 5.518 0 002.842 3.845l-.767 17.145a3.378 3.378 0 00.853 2.626 3.726 3.726 0 005.5 0c.631-.694.941-1.621.854-2.555l-.772-17.218a5.516 5.516 0 002.838-3.843 12.66 12.66 0 00-.353-5.867zm-1.748 5.496a3.382 3.382 0 01-2.213 2.548c-.433.162-.711.585-.69 1.046l.81 18.007c.038.353-.079.705-.32.966a1.648 1.648 0 01-2.319 0 1.28 1.28 0 01-.313-1.037l.804-17.936a1.066 1.066 0 00-.69-1.046 3.382 3.382 0 01-2.213-2.548 10.518 10.518 0 01.293-4.87l.685-2.256a2.766 2.766 0 015.188 0l.685 2.255c.477 1.578.578 3.247.293 4.87zM28.8 16c-.59 0-1.067.478-1.067 1.067v9.158l-2.887 2.887a1.067 1.067 0 00-.313.808l.934 18.667c.022.402-.124.796-.403 1.087a1.502 1.502 0 01-2.125.009l-.009-.01a1.453 1.453 0 01-.403-1.086l.94-18.667a1.067 1.067 0 00-.312-.808l-2.888-2.887v-9.158a1.067 1.067 0 00-2.134 0v9.6c0 .283.113.554.313.754l2.865 2.866-.91 18.196a3.603 3.603 0 107.198 0l-.91-18.196 2.865-2.866c.2-.2.313-.471.313-.754v-9.6c0-.59-.478-1.067-1.067-1.067z"/><path d="M22.4 16c-.59 0-1.067.478-1.067 1.067V25.6a1.067 1.067 0 002.134 0v-8.533c0-.59-.478-1.067-1.067-1.067zM25.6 16c-.59 0-1.067.478-1.067 1.067V25.6a1.067 1.067 0 002.134 0v-8.533c0-.59-.478-1.067-1.067-1.067z"/><path d="M32 0C14.327 0 0 14.327 0 32c0 17.673 14.327 32 32 32 17.673 0 32-14.327 32-32C63.98 14.335 49.665.02 32 0zm0 61.867C15.505 61.867 2.133 48.495 2.133 32S15.505 2.133 32 2.133 61.867 15.505 61.867 32C61.847 48.487 48.487 61.848 32 61.867z"/><path d="M35.462 52.023a1.067 1.067 0 00-1.206-.953l.004-.001a19.595 19.595 0 01-4.52 0 1.067 1.067 0 10-.249 2.12c1.666.194 3.348.194 5.014 0a1.066 1.066 0 00.957-1.166zM48.32 18.255a1.067 1.067 0 00-1.503-.132l-.004.004a1.067 1.067 0 00-.128 1.503c6.431 7.635 5.94 18.924-1.132 25.97a1.067 1.067 0 001.506 1.511c7.858-7.828 8.406-20.372 1.261-28.856zM24.851 14.1h-.002-.002.004zM37.032 11.263c-4.17-1-8.541-.73-12.556.771a1.067 1.067 0 00.748 1.996 19.378 19.378 0 0111.306-.693 1.067 1.067 0 10.502-2.074zM18.399 45.547A19.076 19.076 0 0112.8 32a19.058 19.058 0 013.67-11.294 1.067 1.067 0 10-1.723-1.256c-6.167 8.478-5.26 20.18 2.14 27.607a1.068 1.068 0 101.512-1.51z"/></svg><svg viewBox="0 0 64.68 65.16" id="pizza" xmlns="http://www.w3.org/2000/svg"><g clip-path="url(#bclip0)"><path d="M55.82 22.04a1.068 1.068 0 00-1.44-.454l-4.892 2.542h-.007l-17.329 9.017 5.874-18.605c0-.008.008-.013.01-.022l1.656-5.275a1.068 1.068 0 00-.7-1.337C23.904 3.042 7.73 11.329 2.865 26.417-1.999 41.505 6.29 57.68 21.376 62.544l.347.11A28.819 28.819 0 0030.404 64a28.762 28.762 0 0027.338-20.076A28.478 28.478 0 0055.82 22.04zM29.34 34.962a1.068 1.068 0 001.512 1.268l18.616-9.686c.082.178.17.354.247.534.107.258.213.518.32.78.138.36.262.723.378 1.089.089.277.175.556.252.836.098.357.18.718.259 1.08.063.29.127.58.177.872.062.362.107.725.15 1.09.035.293.073.585.096.88.027.373.034.748.041 1.12.007.288.02.574.014.861-.007.396-.041.792-.071 1.189-.022.264-.031.534-.061.794-.054.453-.136.904-.214 1.354-.037.207-.06.416-.107.622-.14.659-.31 1.315-.517 1.967a20.916 20.916 0 01-10.358 12.337c-.438.229-.887.42-1.336.615-10.642 4.641-23.032-.224-27.673-10.866-4.05-9.286-.9-20.14 7.49-25.816.674-.46 1.374-.882 2.096-1.262a21.419 21.419 0 011.726-.795c.101-.042.203-.085.305-.125a22.79 22.79 0 011.718-.595c.098-.03.198-.055.297-.083.564-.159 1.131-.297 1.704-.408.045-.008.09-.02.135-.028.598-.107 1.202-.19 1.807-.25l.353-.031a20.642 20.642 0 011.799-.067c.093 0 .185.006.277.008.539.01 1.08.045 1.619.098.123.012.246.022.37.036.596.07 1.191.166 1.786.286.125.025.25.057.374.085.247.056.493.13.74.194l-6.32 20.017zm26.36 8.316c-4.42 13.995-19.348 21.757-33.342 17.338A26.573 26.573 0 016.79 47.549C-.006 34.557 5.017 18.516 18.008 11.72a26.548 26.548 0 0119.318-2.08l-1.016 3.242c-.22-.058-.443-.092-.663-.144a24.3 24.3 0 00-.974-.213 22.918 22.918 0 00-1.195-.191 21.657 21.657 0 00-1.009-.124 23.28 23.28 0 00-1.185-.073c-.338-.014-.676-.03-1.013-.03-.399 0-.795.024-1.192.046-.333.018-.664.03-.995.063-.406.04-.81.107-1.212.167-.32.048-.641.087-.955.15-.419.082-.833.192-1.248.298-.296.076-.594.139-.888.226-.443.133-.88.296-1.318.457-.258.094-.52.171-.775.276-.534.214-1.052.466-1.57.722-.151.075-.307.132-.457.214-.62.32-1.215.678-1.797 1.048C7.774 22.221 4.266 35.3 9.774 45.93c.01.017.016.035.024.05.022.041.048.077.069.118a23.006 23.006 0 0013.521 11.29c.032.01.064.016.095.025a23.3 23.3 0 001.909.501c.23.051.462.09.694.136.454.085.909.16 1.365.213.254.032.507.063.76.088.476.045.951.071 1.427.086.213.008.427.024.632.025h.115a22.603 22.603 0 002.271-.123 22.595 22.595 0 001.875-.257c.106-.02.213-.046.32-.068a20.506 20.506 0 001.68-.402c.146-.04.292-.078.438-.122a23.207 23.207 0 002.225-.797c.63-.261 1.255-.54 1.867-.854a23.025 23.025 0 0011.4-13.582c.031-.1.05-.203.08-.303.186-.619.355-1.238.489-1.863.052-.245.08-.492.124-.739.088-.485.178-.968.234-1.455.032-.278.041-.556.063-.834.036-.456.074-.911.083-1.366.006-.295-.01-.589-.015-.883-.009-.437-.016-.874-.05-1.31-.024-.306-.067-.61-.102-.916-.05-.42-.1-.837-.172-1.254-.055-.32-.127-.63-.195-.945a24.538 24.538 0 00-.285-1.19c-.09-.32-.194-.648-.297-.97-.121-.374-.246-.747-.386-1.115a23.691 23.691 0 00-.41-.998c-.082-.19-.146-.383-.234-.57l3.013-1.568a26.343 26.343 0 011.298 19.3z"/><path d="M62.41 14.252A28.377 28.377 0 0045.606.05a1.068 1.068 0 00-1.34.698L42.59 6.066l-6.72 21.3a1.068 1.068 0 001.516 1.265l19.66-10.358 4.912-2.59c.517-.272.72-.91.453-1.43zM44.897 10.6a1.602 1.602 0 110 3.204 1.602 1.602 0 010-3.204zm-6.21 14.931l1.43-4.53a3.723 3.723 0 001.698 2.883l-3.127 1.647zm5.142-3.184a1.602 1.602 0 110-3.204 1.602 1.602 0 010 3.204zm3.738-1.489c0-.04.012-.076.012-.115a3.722 3.722 0 00-6.633-2.335l1.168-3.736a3.745 3.745 0 101.928-6.1l.252-.796c.182.067.367.129.546.201.246.1.49.2.73.308.368.164.727.343 1.082.528.222.115.448.227.666.35.378.214.747.447 1.107.684.177.116.36.222.534.344a21.02 21.02 0 011.495 1.14l.04.03c.492.416.962.855 1.411 1.32.144.147.278.307.419.459.298.32.591.65.87.993.156.192.302.393.452.591.244.32.483.652.709.99.145.214.285.441.427.666.107.17.2.347.3.52l-7.515 3.958zm9.416-4.964c-.118-.206-.254-.398-.378-.6a18.23 18.23 0 00-.475-.747c-.247-.37-.509-.728-.776-1.082-.167-.223-.33-.45-.507-.666a23.118 23.118 0 00-.952-1.087c-.16-.172-.31-.353-.474-.52a22.93 22.93 0 00-1.545-1.444l-.016-.015c-.543-.46-1.111-.89-1.697-1.296-.19-.133-.393-.25-.587-.376-.404-.264-.81-.522-1.231-.76-.242-.136-.49-.258-.737-.386a23.81 23.81 0 00-1.197-.584c-.268-.119-.54-.229-.813-.338-.22-.088-.433-.192-.658-.274l1.038-3.297a26.224 26.224 0 0114.035 11.876l-3.03 1.596zM25.675 17.008a3.737 3.737 0 100 7.475 3.737 3.737 0 000-7.475zm0 5.339a1.602 1.602 0 110-3.204 1.602 1.602 0 010 3.204zM14.996 26.619a3.738 3.738 0 100 7.475 3.738 3.738 0 000-7.476zm0 5.339a1.602 1.602 0 110-3.204 1.602 1.602 0 010 3.204zM25.675 26.619a3.738 3.738 0 100 7.475 3.738 3.738 0 000-7.476zm0 5.339a1.602 1.602 0 110-3.204 1.602 1.602 0 010 3.204zM36.353 45.84a3.738 3.738 0 100 7.476 3.738 3.738 0 000-7.475zm0 5.34a1.602 1.602 0 110-3.204 1.602 1.602 0 010 3.204zM43.829 38.365a3.738 3.738 0 100 7.476 3.738 3.738 0 000-7.476zm0 5.34a1.602 1.602 0 110-3.204 1.602 1.602 0 010 3.204zM47.032 29.822a3.738 3.738 0 100 7.475 3.738 3.738 0 000-7.475zm0 5.34a1.602 1.602 0 110-3.204 1.602 1.602 0 010 3.204zM16.064 37.297a3.738 3.738 0 100 7.476 3.738 3.738 0 000-7.476zm0 5.34a1.602 1.602 0 110-3.204 1.602 1.602 0 010 3.204zM33.15 36.23a3.738 3.738 0 100 7.475 3.738 3.738 0 000-7.475zm0 5.34a1.602 1.602 0 110-3.205 1.602 1.602 0 010 3.204zM23.539 45.84a3.738 3.738 0 100 7.476 3.738 3.738 0 000-7.475zm0 5.34a1.602 1.602 0 110-3.204 1.602 1.602 0 010 3.204zM17.665 22.347a1.068 1.068 0 000 2.136c.59 0 1.068.478 1.068 1.068a1.068 1.068 0 102.136 0 3.204 3.204 0 00-3.204-3.204zM31.548 44.773a3.204 3.204 0 00-3.204 3.203 1.068 1.068 0 002.136 0c0-.59.478-1.068 1.068-1.068a1.068 1.068 0 000-2.135zM33.813 16.252a1.068 1.068 0 00-1.51 0 1.093 1.093 0 01-1.51 0 1.068 1.068 0 10-1.511 1.51 3.204 3.204 0 004.53.002l.002-.001a1.068 1.068 0 000-1.511zM41.159 34.094a3.204 3.204 0 00-3.204 3.203 1.068 1.068 0 002.136 0c0-.59.478-1.067 1.068-1.067a1.068 1.068 0 100-2.136zM24.83 36.1l-.002-.002a1.068 1.068 0 10-1.51 1.511 1.068 1.068 0 010 1.51 1.068 1.068 0 101.51 1.511 3.204 3.204 0 00.001-4.53z"/><path d="M50.77 13.804c-.59 0-1.068.478-1.068 1.068 0 .59-.478 1.068-1.068 1.068a1.068 1.068 0 000 2.136 3.204 3.204 0 003.204-3.204c0-.59-.478-1.068-1.068-1.068z"/></g><defs><clipPath id="bclip0"><path fill="#fff" d="M0 0h64v64H0z"/></clipPath></defs></svg><svg viewBox="0 0 64 54.39" id="truck" xmlns="http://www.w3.org/2000/svg"><g clip-path="url(#cclip0)"><path d="M19.198 49.602a3.2 3.2 0 100 6.4 3.2 3.2 0 000-6.4zm0 4.266a1.067 1.067 0 110-2.134 1.067 1.067 0 010 2.134zM50.127 49.602a3.2 3.2 0 100 6.399 3.2 3.2 0 000-6.4zm0 4.266a1.067 1.067 0 110-2.134 1.067 1.067 0 010 2.134zM3.2 21.872h2.133v2.133H3.2v-2.133zM0 26.138h2.133v2.133H0v-2.133zM52.26 11.206h6.4v2.133h-6.4v-2.133zM47.994 11.206h2.133v2.133h-2.133v-2.133zM34.13 4.807h10.665V6.94H34.129V4.807zM29.863 4.807h2.133V6.94h-2.133V4.807z"/><path d="M63.992 59.2v-2.133h-9.108a6.373 6.373 0 001.611-3.626l6.964-3.98c.05-.034.097-.072.14-.114a.982.982 0 00.107-.084c.08-.085.145-.183.194-.29.005-.01.012-.016.017-.025.048-.12.075-.25.077-.38 0-.012.006-.021.006-.033v-9.599a.82.82 0 00-.02-.093.773.773 0 000-.083l-2.133-12.798a.492.492 0 00-.016-.047v-.036l-1.067-4.266a1.067 1.067 0 00-1.038-.808H46.79a3.179 3.179 0 00-.799-1.38l-7.282-7.282a3.178 3.178 0 00-2.262-.937h-25.78c-.59 0-1.067.478-1.067 1.067v4.266H0v2.133h9.599v3.2H7.466v2.133h2.133v2.133H4.266v2.133H9.6v9.599c-.59 0-1.067.477-1.067 1.066v9.599c0 .022.012.042.013.065.007.096.026.192.058.283.01.034.022.067.035.1.05.112.119.214.204.302l3.976 3.976a6.365 6.365 0 001.623 3.806H0V59.2h63.992zm-19.89-8.532H25.224a6.344 6.344 0 00-.493-1.066h19.863c-.197.34-.362.696-.492 1.066zm-18.505 2.133h18.131c0 1.577.586 3.097 1.643 4.266H23.954a6.368 6.368 0 001.643-4.266zm20.264 0a4.266 4.266 0 118.533 0 4.266 4.266 0 01-8.533 0zm10.429-1.706a6.327 6.327 0 00-.63-1.493h3.25l-2.62 1.493zm5.376-13.225H51.194V27.204h8.695l1.777 10.666zm-2.24-12.799h-9.299c-.589 0-1.066.478-1.066 1.067v12.798c0 .59.477 1.067 1.066 1.067H61.86v2.133h-3.2v2.133h3.2v3.2h-8.201a6.375 6.375 0 00-7.06 0h-23.87a6.376 6.376 0 00-7.06 0h-5.003v-4.267h4.267V41.07h-4.267v-1.066h35.196c.59 0 1.067-.478 1.067-1.067V22.938h11.966l.533 2.133zm-47.694 3.2h8.532v-2.133h-8.532v-2.133h9.599v-2.133h-9.599v-3.2h5.333v-2.133h-5.333v-3.2h24.714c.282.001.553.114.754.313l7.282 7.282c.2.2.313.472.313.755v16.18H11.732v-9.598zm1.933 21.33a6.31 6.31 0 00-.475 1.017l-1.016-1.016h1.49zm1.267 3.2a4.266 4.266 0 118.532 0 4.266 4.266 0 01-8.532 0z"/></g><defs><clipPath id="cclip0"><path fill="#fff" d="M0 0h64v64H0z"/></clipPath></defs></svg></svg>