<svg height="512" viewBox="0 0 512 512" width="512" xmlns="http://www.w3.org/2000/svg"><g id="Flat"><path d="m488 432v48a64 64 0 0 1 -51.2-25.6l-28.8-38.4h-36.92a63.625 63.625 0 0 1 -59.08-40h-184l-5.71-40-18.29-152-42.68-16-5.75-2.16a24.027 24.027 0 0 1 -15.57-22.47v-23.37h104l8.97-8.97a24.01 24.01 0 0 1 16.97-7.03h30.06l-9.97 24.91a23.985 23.985 0 0 1 -22.28 15.09h-7.75l40 112h176l40-16v24a31.991 31.991 0 0 1 -32 32h-8a155.867 155.867 0 0 1 8 49.3v30.7h48l32 56z" fill="#98543a"/><path d="m56 376h80v-40h-80a32 32 0 0 0 -32 32v54.059a81.941 81.941 0 0 0 24 57.941h24v-32l-16-16z" fill="#7e4530"/><circle cx="40" cy="112" fill="#de5540" r="16"/><path d="m112 136h16v16h-16z" fill="#7e4530"/><path d="m83.4 147.94a47.511 47.511 0 0 1 -7.78 10.21 48.962 48.962 0 0 1 -14.3 9.85l-5.75-2.16a23.925 23.925 0 0 1 -11.5-9.11l4.23-1.06a34.379 34.379 0 0 0 16.01-8.84 31.742 31.742 0 0 0 5.17-6.77z" fill="#7e4530"/><path d="m88 54.7a15.943 15.943 0 0 1 -5.749 12.29c-.045-.015-.087-.035-.132-.05l-18.854-6.285a31.936 31.936 0 0 0 8.735-21.955v-14.7h-16v14.7a15.988 15.988 0 0 1 -10.947 15.183l-1.053.351-1.06-.354a15.977 15.977 0 0 1 -10.94-15.18v-14.7h-16v14.7a31.96 31.96 0 0 0 21.881 30.36l39.179 13.06a15.977 15.977 0 0 1 10.94 15.18v22.7h16v-22.7a31.933 31.933 0 0 0 -8.124-21.287 31.9 31.9 0 0 0 8.124-21.313v-22.7h-16z" fill="#ffb431"/><path d="m192 24v14.7a15.977 15.977 0 0 1 -10.94 15.18l-1.06.354-1.056-.353a15.985 15.985 0 0 1 -10.944-15.181v-14.7h-16v14.7a31.94 31.94 0 0 0 8.734 21.956l-18.853 6.284c-.045.015-.087.035-.132.05a15.943 15.943 0 0 1 -5.749-12.29v-22.7h-16v22.7a31.9 31.9 0 0 0 8.124 21.311 31.933 31.933 0 0 0 -8.124 21.289v22.7h16v-22.7a15.977 15.977 0 0 1 10.94-15.18l39.179-13.06a31.96 31.96 0 0 0 21.881-30.36v-14.7z" fill="#ffb431"/><path d="m311.98 376h-16.86l-14.81-44.74 15.19-5.02z" fill="#7e4530"/><path d="m264 320.01v8.68a63.693 63.693 0 0 1 -21.26 47.31h-41.53a47.3 47.3 0 0 0 46.79-47.31v-8.68z" fill="#7e4530"/><path d="m200 376v-40h-64a32 32 0 0 0 -32 32v54.059a81.941 81.941 0 0 0 24 57.941h24v-32l-16-16v-56z" fill="#98543a"/><path d="m104 224h91.998l12.002 32h-104z" fill="#de5540"/><path d="m144 304h-56l2.633-5.267a50.819 50.819 0 0 0 5.367-22.733 20 20 0 0 1 20-20 20 20 0 0 1 20 20 50.819 50.819 0 0 0 5.367 22.733z" fill="#ffb431"/><path d="m200 320v16h-64a31.765 31.765 0 0 0 -13.3 2.89l-.41-2.89-1.56-12.96a39.586 39.586 0 0 1 15.27-3.04z" fill="#7e4530"/></g></svg>