<svg id="Capa_1" enable-background="new 0 0 512 512" height="512" viewBox="0 0 512 512" width="512" xmlns="http://www.w3.org/2000/svg"><g><path d="m462.302 245.151c-12.958-37.266-31.816-72.044-56.051-103.367-3.381-4.369-9.662-5.169-14.028-1.79-4.368 3.38-5.17 9.66-1.79 14.028 47.146 60.937 72.067 134.001 72.067 211.294 0 11.522-9.359 20.897-20.864 20.897-8.591 0-15.981-5.23-19.175-12.676-.02-.042-.037-.085-.057-.126-1.049-2.491-1.631-5.226-1.631-8.095 0-100.24-49.407-193.936-132.164-250.635-3.062-2.097-7.032-2.327-10.314-.597-3.283 1.73-5.338 5.136-5.338 8.847v9.581c0 9.35-7.594 16.957-16.928 16.957s-16.928-7.606-16.928-16.957v-30.67c0-5.523-4.478-10-10-10s-10 4.477-10 10v30.67 42.944c0 9.334-7.581 16.929-16.9 16.929-9.334 0-16.928-7.594-16.928-16.929v-97.964c0-4.764-3.36-8.866-8.031-9.804-19.473-3.911-39.551-5.894-59.676-5.894-2.863 0-5.592-.582-8.078-1.632-.044-.021-.089-.04-.133-.06-7.432-3.2-12.652-10.602-12.652-19.205 0-11.522 9.359-20.897 20.863-20.897 77.397 0 150.521 25.06 211.464 72.471 4.358 3.391 10.643 2.607 14.033-1.753 3.392-4.359 2.606-10.642-1.752-14.033-31.322-24.367-66.12-43.331-103.426-56.365-38.592-13.483-79.073-20.32-120.319-20.32-22.533 0-40.864 18.346-40.864 40.897 0 13.804 6.876 26.024 17.373 33.434l-64.425 367.408c-.563 3.211.475 6.496 2.78 8.8 2.306 2.304 5.583 3.341 8.803 2.775l52.819-9.294c3.128-.544 5.542-.336 6.624.574.962.809 1.99 3.193 1.99 7.461v16.837c0 19.565 15.893 35.483 35.428 35.483 19.534 0 35.427-15.917 35.427-35.483v-27.879c-.002-3.745-.003-7.617.888-9.249.712-1.303 3.548-2.479 7.771-3.223l30.901-5.416c3.123-.55 5.532-.347 6.609.557.96.806 1.985 3.187 1.985 7.453v45.382c0 19.565 15.893 35.483 35.428 35.483 19.534 0 35.427-15.917 35.427-35.483v-56.424c-.002-3.745-.003-7.617.888-9.249.712-1.304 3.548-2.479 7.774-3.224l107.034-18.799c7.403 10.508 19.614 17.391 33.408 17.391 22.532 0 40.864-18.346 40.864-40.897.002-41.189-6.794-81.618-20.196-120.164zm-375.336-14.482c5.139 2.188 9.834 5.356 13.869 9.395 17.186 17.204 17.186 45.197 0 62.4-7.734 7.743-18.001 12.228-28.707 12.825zm210.763 157.255c-25.209 4.441-25.202 21.804-25.197 32.178v56.416c0 8.537-6.921 15.483-15.427 15.483-8.507 0-15.428-6.946-15.428-15.483v-45.382c0-12.49-4.964-19.278-9.129-22.773-4.033-3.384-11.283-6.986-22.928-4.935l-30.901 5.416c-25.209 4.441-25.202 21.804-25.197 32.178v27.871c0 8.537-6.921 15.483-15.427 15.483-8.507 0-15.428-6.946-15.428-15.483v-16.837c0-12.481-4.959-19.271-9.118-22.769-4.029-3.388-11.272-7-22.945-4.966l-38.791 6.826 16.798-95.799c.356.006.712.023 1.067.023 16.84 0 33.205-6.656 45.308-18.771 24.97-24.997 24.97-65.671-.001-90.669-6.979-6.986-15.323-12.181-24.501-15.317l22.632-129.066c1.463.159 2.946.247 4.451.247 16.049 0 32.059 1.348 47.707 4.013v89.648c0 20.363 16.565 36.929 36.928 36.929 20.347 0 36.9-16.566 36.9-36.929v-10.104c5.073 2.63 10.831 4.117 16.928 4.117 17.164 0 31.631-11.78 35.752-27.686 50.116 39.188 85.197 93.698 100.448 154.42-5.627-1.524-11.463-2.311-17.389-2.311-36.568 0-66.319 29.778-66.319 66.38 0 8.646 1.646 17.067 4.82 24.911zm35.969-6.318c-3.396-6.548-5.178-13.816-5.178-21.336 0-25.574 20.778-46.38 46.319-46.38 7.822 0 15.421 1.952 22.218 5.665 2.45 15.002 3.714 30.297 3.714 45.76 0 1.51.088 2.999.248 4.466z"/><path d="m316.818 208.61c-7.422-7.43-17.291-11.521-27.788-11.521s-20.366 4.092-27.788 11.521c-15.313 15.331-15.313 40.275 0 55.605 7.422 7.43 17.291 11.521 27.788 11.521s20.366-4.092 27.788-11.521c15.314-15.33 15.314-40.274 0-55.605zm-14.15 41.471c-3.644 3.647-8.486 5.656-13.638 5.656s-9.994-2.009-13.638-5.656c-7.528-7.536-7.528-19.799 0-27.335 3.644-3.647 8.486-5.656 13.638-5.656s9.994 2.009 13.638 5.656c7.528 7.536 7.528 19.798 0 27.335z"/><path d="m192.035 272.165c2.565 0 5.131-.981 7.084-2.942l10.901-10.941c3.898-3.913 3.887-10.244-.026-14.142-3.911-3.897-10.244-3.887-14.142.026l-10.901 10.941c-3.898 3.913-3.887 10.244.026 14.142 1.952 1.944 4.505 2.916 7.058 2.916z"/><path d="m98.255 366.966c-5.522 0-10 4.477-10 10v15.477c0 5.523 4.478 10 10 10s10-4.477 10-10v-15.477c0-5.523-4.478-10-10-10z"/><path d="m130.591 157.008c-5.522 0-10 4.477-10 10v15.477c0 5.523 4.478 10 10 10s10-4.477 10-10v-15.477c0-5.523-4.478-10-10-10z"/><path d="m208.284 318.054c-6.983-6.991-16.27-10.841-26.146-10.841s-19.161 3.851-26.145 10.841c-14.408 14.424-14.408 37.893 0 52.316 6.983 6.991 16.269 10.841 26.145 10.841h.001c9.876 0 19.162-3.85 26.146-10.841 14.408-14.423 14.408-37.892-.001-52.316.001 0 .001 0 0 0zm-14.148 38.182c-3.206 3.209-7.467 4.976-11.997 4.976s-8.79-1.767-11.995-4.976c-6.623-6.63-6.623-17.417 0-24.047 3.205-3.208 7.465-4.976 11.995-4.976s8.791 1.767 11.996 4.976c6.623 6.63 6.623 17.417.001 24.047z"/><path d="m269.673 324.914c-3.903-3.907-10.235-3.911-14.143-.007-3.907 3.903-3.91 10.235-.008 14.142l10.93 10.941c1.953 1.955 4.514 2.933 7.075 2.933 2.558 0 5.115-.975 7.067-2.925 3.907-3.903 3.91-10.235.008-14.142z"/><path d="m361.511 121.157c1.949 1.949 4.499 2.922 7.051 2.922 2.56 0 5.121-.98 7.077-2.936 3.905-3.905 3.892-10.251-.014-14.157-3.906-3.905-10.236-3.905-14.143 0-3.905 3.905-3.905 10.237 0 14.143z"/></g></svg>