<svg height="512" viewBox="0 0 64 64" width="512" xmlns="http://www.w3.org/2000/svg"><g id="Document-files-foder"><g fill="#78b9eb"><path d="m50 7v13l-9-9h-29v-4z"/><path d="m50 20 1 1h-8a2.006 2.006 0 0 1 -2-2v-8z"/><path d="m11 21v16h-1.31a2.006 2.006 0 0 0 -1.97 1.67l-3.72 22.33v-38a2.006 2.006 0 0 1 2-2z"/><path d="m57 23.12v13.91a2.1 2.1 0 0 0 -.36-.03h-5.64v-16h4a2.066 2.066 0 0 1 2 2.12z"/><path d="m58.61 39.33-3.33 20a2.006 2.006 0 0 1 -1.97 1.67h-49.31l3.72-22.33a2.006 2.006 0 0 1 1.97-1.67h46.95a2.1 2.1 0 0 1 .36.03 2 2 0 0 1 1.61 2.3z"/></g><path d="m58.93 37.06a2.95 2.95 0 0 0 -.93-.72v-13.22a3.068 3.068 0 0 0 -3-3.12h-3.59l-.41-.41v-12.59a1 1 0 0 0 -1-1h-1v-3a1 1 0 0 0 -1-1h-34a1 1 0 0 0 -1 1v3h-1a1 1 0 0 0 -1 1v3a1 1 0 0 0 -1 1v9h-4a3.009 3.009 0 0 0 -3 3v38a1 1 0 0 0 1 1h49.31a2.978 2.978 0 0 0 2.95-2.51l3.34-20a3.019 3.019 0 0 0 -.67-2.43zm-6.93-15.06h3a1.066 1.066 0 0 1 1 1.12v12.88h-4zm-37-18h32v2h-32zm-2 4h36v9.59l-7.29-7.3a1.033 1.033 0 0 0 -.71-.29h-28zm35.59 12h-5.59a1 1 0 0 1 -1-1v-5.59zm-36.59-8h28v7a3.009 3.009 0 0 0 3 3h7v14h-38zm-7 11a1 1 0 0 1 1-1h4v14h-.31a2.978 2.978 0 0 0 -2.95 2.51l-1.74 10.41zm49.29 36.17a.989.989 0 0 1 -.98.83h-48.13l3.53-21.17a.989.989 0 0 1 .98-.83h46.95a1 1 0 0 1 .76.35 1.014 1.014 0 0 1 .23.82z" fill="#006df0"/></g></svg>