<svg width="186" height="42" viewBox="0 0 186 42" fill="none" xmlns="http://www.w3.org/2000/svg">
<path d="M82.3127 24.3235V19.085C82.3127 17.1083 81.0062 15.7777 78.9035 15.7602C78.3047 15.7229 77.7064 15.8412 77.1711 16.1029C76.6358 16.3645 76.183 16.76 75.8599 17.248C75.5655 16.7745 75.1442 16.3864 74.6404 16.1245C74.1366 15.8627 73.5689 15.7368 72.9972 15.7602C72.4994 15.737 72.0039 15.8395 71.5596 16.0575C71.1154 16.2756 70.7377 16.6016 70.4639 17.0035V15.9558H68.5784V24.3235H70.482V19.6891C70.482 18.2363 71.3144 17.468 72.6028 17.468C73.8911 17.468 74.4883 18.2538 74.4883 19.6717V24.3235H76.381V19.6891C76.381 18.2363 77.2496 17.468 78.5018 17.468C79.754 17.468 80.4054 18.2538 80.4054 19.6717V24.3235H82.3127ZM110.48 15.9628H107.4V13.4273H105.496V15.9628H103.737V17.6252H105.496V21.4353C105.496 23.3771 106.274 24.533 108.504 24.533C109.336 24.5356 110.153 24.3117 110.86 23.887L110.317 22.3294C109.811 22.6201 109.237 22.7823 108.648 22.8008C107.708 22.8008 107.396 22.2421 107.396 21.4039V17.6252H110.476L110.48 15.9628ZM126.559 15.7533C126.099 15.7403 125.645 15.8474 125.243 16.0631C124.841 16.2789 124.507 16.5953 124.276 16.9791V15.9628H122.408V24.3235H124.294V19.6368C124.294 18.2398 124.909 17.4855 126.143 17.4855C126.547 17.4798 126.948 17.551 127.323 17.695L127.902 15.9803C127.471 15.8315 127.017 15.7548 126.559 15.7533ZM102.25 16.6263C101.182 16.0143 99.9552 15.7113 98.7142 15.7533C96.521 15.7533 95.0951 16.7695 95.0951 18.4284C95.0951 19.7939 96.1447 20.6321 98.0845 20.894L98.9712 21.0162C100.003 21.1559 100.495 21.4179 100.495 21.8893C100.495 22.5354 99.8072 22.9056 98.5188 22.9056C97.4793 22.9375 96.4592 22.6298 95.6235 22.0325L94.7658 23.4469C95.8638 24.1878 97.1795 24.5685 98.5188 24.533C101.02 24.533 102.471 23.3945 102.471 21.8055C102.471 20.3352 101.327 19.5669 99.4452 19.305L98.5586 19.1828C97.7443 19.078 97.0892 18.9208 97.0892 18.362C97.0892 17.7509 97.7045 17.3842 98.7395 17.3842C99.6879 17.3977 100.617 17.6441 101.439 18.1001L102.25 16.6263ZM152.743 15.7533C152.283 15.7403 151.828 15.8474 151.426 16.0631C151.025 16.2789 150.69 16.5953 150.459 16.9791V15.9628H148.592V24.3235H150.477V19.6368C150.477 18.2398 151.093 17.4855 152.327 17.4855C152.731 17.4798 153.131 17.551 153.507 17.695L154.086 15.9803C153.655 15.8315 153.201 15.7548 152.743 15.7533ZM128.463 20.1431C128.463 22.6786 130.294 24.533 133.084 24.533C134.216 24.5871 135.327 24.2308 136.2 23.5342L135.296 22.0639C134.644 22.5429 133.849 22.8063 133.03 22.8148C131.525 22.8148 130.421 21.7461 130.421 20.1397C130.421 18.5332 131.528 17.482 133.03 17.4645C133.849 17.4731 134.644 17.7364 135.296 18.2154L136.2 16.7451C135.327 16.0485 134.216 15.6923 133.084 15.7463C130.294 15.7463 128.463 17.6007 128.463 20.1362V20.1431ZM146.117 20.1431V15.9523H144.231V16.9686C143.91 16.5683 143.493 16.2481 143.017 16.0348C142.541 15.8216 142.019 15.7214 141.495 15.7428C139.067 15.7428 137.152 17.5798 137.152 20.1327C137.152 22.6856 139.056 24.5226 141.495 24.5226C142.019 24.5439 142.541 24.4438 143.017 24.2305C143.493 24.0172 143.91 23.6971 144.231 23.2967V24.3095H146.117V20.1431ZM139.103 20.1431C139.103 18.6729 140.098 17.468 141.73 17.468C143.29 17.468 144.34 18.624 144.34 20.1431C144.34 21.6623 143.29 22.8183 141.73 22.8183C140.098 22.8183 139.103 21.6099 139.103 20.1431ZM116.353 15.7533C113.82 15.7533 112.04 17.5379 112.04 20.1431C112.04 22.8008 113.889 24.533 116.48 24.533C117.774 24.5768 119.039 24.159 120.034 23.3596L119.111 22.0116C118.391 22.5673 117.5 22.8746 116.578 22.8847C115.362 22.8847 114.258 22.3433 113.987 20.8381H120.421C120.439 20.6111 120.457 20.3841 120.457 20.1397C120.457 17.5344 118.771 15.7498 116.343 15.7498L116.353 15.7533ZM116.317 17.3807C117.533 17.3807 118.311 18.1141 118.51 19.4098H114.019C114.218 18.2014 114.978 17.3807 116.321 17.3807H116.317ZM163.6 20.1431V12.6031H161.715V16.9756C161.393 16.5753 160.977 16.2551 160.501 16.0418C160.025 15.8286 159.503 15.7284 158.979 15.7498C156.55 15.7498 154.636 17.5867 154.636 20.1397C154.636 22.6926 156.539 24.5296 158.979 24.5296C159.503 24.5509 160.025 24.4508 160.501 24.2375C160.977 24.0242 161.393 23.704 161.715 23.3037V24.3165H163.6V20.1431ZM165.804 23.5517C165.879 23.5514 165.953 23.5657 166.021 23.5936C166.087 23.6208 166.148 23.6599 166.199 23.7088C166.249 23.7568 166.29 23.8137 166.318 23.8765C166.347 23.9416 166.362 24.0117 166.362 24.0825C166.362 24.1534 166.347 24.2235 166.318 24.2886C166.29 24.3513 166.249 24.4082 166.199 24.4562C166.147 24.5049 166.087 24.544 166.021 24.5715C165.953 24.5997 165.879 24.6139 165.804 24.6134C165.694 24.6147 165.586 24.5846 165.493 24.5268C165.4 24.4691 165.327 24.3862 165.283 24.2886C165.254 24.2235 165.239 24.1534 165.239 24.0825C165.239 24.0117 165.254 23.9416 165.283 23.8765C165.34 23.7482 165.446 23.6466 165.58 23.5936C165.653 23.5642 165.732 23.5499 165.811 23.5517H165.804ZM165.804 24.4946C165.861 24.4955 165.918 24.4848 165.971 24.4632C166.02 24.4424 166.066 24.4128 166.105 24.3759C166.185 24.298 166.23 24.1925 166.23 24.0825C166.23 23.9726 166.185 23.8671 166.105 23.7892C166.066 23.7521 166.021 23.7225 165.971 23.7019C165.918 23.6805 165.861 23.6698 165.804 23.6704C165.746 23.6697 165.688 23.6804 165.634 23.7019C165.57 23.7285 165.513 23.7699 165.469 23.8225C165.424 23.8751 165.394 23.9373 165.381 24.0038C165.367 24.0702 165.371 24.1389 165.391 24.2037C165.411 24.2686 165.447 24.3277 165.497 24.3759C165.536 24.4133 165.583 24.4429 165.634 24.4632C165.69 24.4857 165.751 24.4964 165.811 24.4946H165.804ZM165.837 23.8311C165.891 23.8274 165.945 23.8422 165.989 23.873C166.007 23.8867 166.021 23.9043 166.03 23.9243C166.04 23.9444 166.044 23.9663 166.043 23.9882C166.044 24.0071 166.04 24.0259 166.033 24.0434C166.025 24.0609 166.014 24.0766 166 24.0895C165.966 24.118 165.924 24.1352 165.88 24.1384L166.047 24.3235H165.916L165.761 24.1384H165.71V24.3235H165.601V23.8346L165.837 23.8311ZM165.71 23.9219V24.0546H165.837C165.859 24.0609 165.883 24.0609 165.905 24.0546C165.914 24.0492 165.92 24.0419 165.925 24.0333C165.929 24.0248 165.931 24.0153 165.931 24.0057C165.931 23.9961 165.929 23.9866 165.925 23.9781C165.92 23.9695 165.914 23.9622 165.905 23.9568C165.883 23.9505 165.859 23.9505 165.837 23.9568L165.71 23.9219ZM156.594 20.1431C156.594 18.6729 157.589 17.468 159.221 17.468C160.781 17.468 161.83 18.624 161.83 20.1431C161.83 21.6623 160.781 22.8183 159.221 22.8183C157.589 22.8183 156.594 21.6099 156.594 20.1431ZM92.9346 20.1431V15.9523H91.049V16.9686C90.7275 16.5717 90.3126 16.2544 89.8387 16.0431C89.3648 15.8317 88.8455 15.7324 88.3239 15.7533C85.8955 15.7533 83.981 17.5902 83.981 20.1431C83.981 22.6961 85.8847 24.533 88.3239 24.533C88.8482 24.5544 89.3703 24.4543 89.8463 24.241C90.3223 24.0277 90.7384 23.7075 91.0599 23.3072V24.32H92.9454L92.9346 20.1431ZM85.9209 20.1431C85.9209 18.6729 86.9161 17.468 88.5483 17.468C90.1081 17.468 91.1576 18.624 91.1576 20.1431C91.1576 21.6623 90.1081 22.8183 88.5483 22.8183C86.9161 22.8183 85.9209 21.6134 85.9209 20.1431Z" fill="white"/>
<path d="M44.5191 10.2037H33.1191V29.974H44.5191V10.2037Z" fill="#FF5F00"/>
<path d="M33.8428 20.0947C33.8413 18.191 34.2885 16.3119 35.1506 14.5996C36.0127 12.8873 37.2672 11.3867 38.819 10.2113C36.897 8.75367 34.5888 7.84725 32.1582 7.59565C29.7276 7.34405 27.2726 7.75741 25.0739 8.78849C22.8753 9.81957 21.0215 11.4268 19.7246 13.4264C18.4277 15.426 17.74 17.7374 17.74 20.0964C17.74 22.4554 18.4277 24.7668 19.7246 26.7664C21.0215 28.7661 22.8753 30.3733 25.0739 31.4044C27.2726 32.4354 29.7276 32.8488 32.1582 32.5972C34.5888 32.3456 36.897 31.4392 38.819 29.9815C37.2667 28.8058 36.012 27.3046 35.1498 25.5917C34.2877 23.8788 33.8407 21.999 33.8428 20.0947Z" fill="#EB001B"/>
<path d="M59.8998 20.0941C59.8998 22.4533 59.2119 24.7648 57.9147 26.7645C56.6176 28.7642 54.7636 30.3714 52.5646 31.4023C50.3657 32.4333 47.9105 32.8464 45.4797 32.5944C43.049 32.3424 40.7407 31.4356 38.8188 29.9775C40.3701 28.8011 41.6242 27.3 42.4865 25.5877C43.3489 23.8753 43.797 21.9963 43.797 20.0924C43.797 18.1885 43.3489 16.3095 42.4865 14.5971C41.6242 12.8847 40.3701 11.3837 38.8188 10.2073C40.741 8.74899 43.0496 7.84209 45.4806 7.59026C47.9117 7.33842 50.3672 7.75182 52.5663 8.78318C54.7654 9.81454 56.6193 11.4222 57.9162 13.4225C59.213 15.4227 59.9004 17.7347 59.8998 20.0941Z" fill="#F79E1B"/>
<path d="M58.6476 27.8786V27.4735H58.8177V27.3931H58.3943V27.477H58.5644V27.8821L58.6476 27.8786ZM59.4836 27.8786V27.3896H59.3714L59.2194 27.7389L59.0674 27.3896H58.9335V27.8786H59.0095V27.5119L59.1507 27.8297H59.2484L59.3895 27.5119V27.8821L59.4836 27.8786Z" fill="#F79E1B"/>
</svg>
