<?xml version="1.0" encoding="iso-8859-1"?><svg viewBox="0 0 512 512" xmlns="http://www.w3.org/2000/svg" xmlns:xlink="http://www.w3.org/1999/xlink"><style>:root>svg{display:none}:root>svg:target{display:block}</style><svg viewBox="0 0 480.182 480.182" id="analytics" xmlns="http://www.w3.org/2000/svg"><path d="M200.182 32.106c-92.784 0-168 75.216-168 168s75.216 168 168 168 168-75.216 168-168c-.101-92.742-75.258-167.899-168-168zm0 16a151.839 151.839 0 01124.128 64.56l-20 20a31.571 31.571 0 00-16.128-4.56c-17.673 0-32 14.327-32 32a31.573 31.573 0 004.536 16.152l-52.384 52.384a31.025 31.025 0 00-32.304 0l-36.384-36.384a31.573 31.573 0 004.536-16.152c.022-17.638-14.258-31.954-31.896-31.976-14.587-.018-27.332 9.849-30.968 23.976h-29.68c15.147-69.947 76.976-119.895 148.544-120zm104 112c0 8.837-7.163 16-16 16s-16-7.163-16-16 7.163-16 16-16 16 7.163 16 16zm-96 96c0 8.837-7.163 16-16 16s-16-7.163-16-16 7.163-16 16-16 16 7.163 16 16zm-80-80c0 8.837-7.163 16-16 16s-16-7.163-16-16 7.163-16 16-16 16 7.163 16 16zm145.854 156.906a151.863 151.863 0 01-73.854 19.093c-83.89.057-151.943-67.902-152-151.792-.004-5.414.282-10.825.856-16.208h32.28c3.637 14.085 16.317 23.945 30.864 24a31.573 31.573 0 0016.152-4.536l36.384 36.384a31.573 31.573 0 00-4.536 16.152c0 17.673 14.327 32 32 32s32-14.327 32-32a31.573 31.573 0 00-4.536-16.152l52.384-52.384a31.573 31.573 0 0016.152 4.536c17.673 0 32-14.327 32-32a31.573 31.573 0 00-4.536-16.152l17.44-17.432c40.715 73.328 14.277 165.777-59.05 206.491z"/><path d="M400.182 80.106c14.547-.055 27.227-9.914 30.864-24h49.136v-16h-49.136c-3.637-14.086-16.317-23.945-30.864-24-17.673 0-32 14.327-32 32a31.573 31.573 0 004.536 16.152l-14.056 14.056C291.407-9.307 165.855-25.817 78.234 41.438S-25.897 234.246 41.358 321.867c63.484 82.707 179.855 102.77 267.368 46.095l24.144 24.144 11.312 11.312 64.4 64.4c16.379 16.379 42.933 16.379 59.312 0 16.379-16.379 16.379-42.933 0-59.312l-64.4-64.4-11.312-11.312-24.144-24.144c42.859-66.016 42.859-151.071 0-217.088l16-16a31.581 31.581 0 0016.144 4.544zm0-48c8.837 0 16 7.163 16 16s-7.163 16-16 16-16-7.163-16-16 7.164-16 16-16zm56.4 387.712c10.246 10.016 10.433 26.442.417 36.688-10.016 10.246-26.442 10.433-36.688.417a23.421 23.421 0 01-.417-.417l-64.4-64.4 36.688-36.688 64.4 64.4zm-75.712-75.712l-36.688 36.688-22.144-22.144c1.128-.864 2.184-1.816 3.296-2.704s2.4-1.952 3.592-2.952c1.752-1.472 3.48-2.96 5.176-4.488.872-.8 1.704-1.6 2.56-2.4a205.802 205.802 0 009.528-9.528c.8-.856 1.6-1.688 2.4-2.56a198.055 198.055 0 004.488-5.176 154.965 154.965 0 002.952-3.592c.88-1.104 1.832-2.16 2.696-3.288l22.144 22.144zm-31.024-37.16c-2.52 3.52-5.12 6.968-7.864 10.288-.8.968-1.656 1.904-2.48 2.856a180.23 180.23 0 01-7.584 8.288 152.889 152.889 0 01-3.464 3.464 169.917 169.917 0 01-8.288 7.584c-.952.8-1.888 1.672-2.856 2.48-3.32 2.744-6.768 5.344-10.288 7.864-82.816 59.165-197.915 39.992-257.08-42.824S9.95 109.031 92.766 49.866 290.681 9.873 349.846 92.69c45.781 64.082 45.781 150.174 0 214.256z"/></svg><svg viewBox="0 0 329.269 329" id="close" xmlns="http://www.w3.org/2000/svg"><path d="M194.8 164.77L323.013 36.555c8.343-8.34 8.343-21.825 0-30.164-8.34-8.34-21.825-8.34-30.164 0L164.633 134.605 36.422 6.391c-8.344-8.34-21.824-8.34-30.164 0-8.344 8.34-8.344 21.824 0 30.164l128.21 128.215L6.259 292.984c-8.344 8.34-8.344 21.825 0 30.164a21.266 21.266 0 0015.082 6.25c5.46 0 10.922-2.09 15.082-6.25l128.21-128.214 128.216 128.214a21.273 21.273 0 0015.082 6.25c5.46 0 10.922-2.09 15.082-6.25 8.343-8.34 8.343-21.824 0-30.164zm0 0"/></svg><svg viewBox="0 0 64 64" id="framework" xmlns="http://www.w3.org/2000/svg"><path d="M35 8c0-1.654-1.346-3-3-3s-3 1.346-3 3 1.346 3 3 3 3-1.346 3-3zm-4 0a1.001 1.001 0 111 1c-.551 0-1-.448-1-1zM6.5 41.4a3.005 3.005 0 00-1.099 4.099A3.002 3.002 0 009.5 46.598a3.006 3.006 0 001.098-4.099A3.006 3.006 0 006.5 41.4zm2 3.465a1 1 0 11-1-1.732 1 1 0 011 1.732zM57.5 41.4a3.007 3.007 0 00-4.098 1.099 3.005 3.005 0 001.098 4.099h.001a3.003 3.003 0 004.098-1.099A3.005 3.005 0 0057.5 41.4zm-.633 3.099a.999.999 0 11-1.731-1 .997.997 0 011.365-.366c.477.275.642.888.366 1.366z"/><path d="M59.501 37.937a6.94 6.94 0 00-5.312-.699 6.947 6.947 0 00-3.935 2.771L43 36.381v-8.763l11.082-5.542a4.951 4.951 0 003.926 1.926c.866 0 1.721-.228 2.492-.672 1.157-.668 1.984-1.746 2.33-3.036s.168-2.638-.5-3.794-1.746-1.983-3.036-2.329a4.956 4.956 0 00-3.794.499 4.943 4.943 0 00-2.312 5.617L43 25.382V19H33v-4.08c3.387-.488 6-3.401 6-6.92 0-3.859-3.14-7-7-7s-7 3.141-7 7c0 3.519 2.613 6.432 6 6.92V19H21v6.381l-10.188-5.094A4.943 4.943 0 008.5 14.67a4.956 4.956 0 00-3.794-.499c-1.29.346-2.368 1.173-3.036 2.329s-.846 2.504-.5 3.794 1.173 2.368 2.33 3.036a4.98 4.98 0 003.794.499 4.945 4.945 0 002.623-1.753L21 27.617v8.763l-7.255 3.627a6.944 6.944 0 00-3.935-2.771 6.95 6.95 0 00-5.312.699c-3.342 1.931-4.492 6.22-2.563 9.563a7.004 7.004 0 009.562 2.562c2.923-1.688 4.169-5.181 3.145-8.266L21 38.617V45h10v8.101A5.009 5.009 0 0027 58c0 2.757 2.243 5 5 5s5-2.243 5-5a5.01 5.01 0 00-4-4.899V45h10v-6.383l6.356 3.178c-1.024 3.086.222 6.578 3.145 8.266a7.005 7.005 0 009.562-2.562c1.93-3.343.78-7.632-2.562-9.562zm-4.399-19.713a2.982 2.982 0 011.398-1.821 3.002 3.002 0 014.398 3.374 3.002 3.002 0 01-5.796-1.553zM27 8c0-2.757 2.243-5 5-5s5 2.243 5 5-2.243 5-5 5-5-2.243-5-5zM8.598 20.5a3.002 3.002 0 01-5.496-.723 3.002 3.002 0 015.796-1.553 2.98 2.98 0 01-.3 2.276zm1.901 27.829c-2.389 1.378-5.452.558-6.83-1.83a5.007 5.007 0 014.322-7.503c.435 0 .872.058 1.302.173a4.968 4.968 0 013.036 2.33 5.006 5.006 0 01-1.83 6.83zM35 58c0 1.654-1.346 3-3 3s-3-1.346-3-3 1.346-3 3-3 3 1.346 3 3zm6-15H23V21h18zm19.331 3.499c-1.377 2.389-4.443 3.209-6.83 1.83s-3.208-4.442-1.83-6.83a4.968 4.968 0 013.036-2.33 4.966 4.966 0 013.794.5 5.007 5.007 0 011.83 6.83z"/><path d="M39 31h-6v2h-4v2h-4v6h14zm-12 6h2v2h-2zm4 2v-4h2v4zm6 0h-2v-6h2zM25 23h2v2h-2zM29 23h10v2H29zM25 27h14v2H25z"/></svg><svg viewBox="0 0 502.664 502.664" id="html" xmlns="http://www.w3.org/2000/svg"><path d="M153.821 358.226L0 274.337v-46.463l153.821-83.414v54.574L46.636 250.523l107.185 53.431v54.272zM180.094 387.584L282.103 115.08h32.227L212.084 387.584h-31.99zM348.843 358.226v-54.272l107.164-52.999-107.164-52.59v-53.927l153.821 83.522v46.183l-153.821 84.083z"/></svg><svg viewBox="0 0 510 510" id="layers" xmlns="http://www.w3.org/2000/svg"><path d="M378.541 300l90-45-90-45 90-45L255 58.229 41.459 165l90 45-90 45 90 45-90 45L255 451.771 468.541 345zm-270-135L255 91.771 401.459 165 255 238.23 108.541 165zm0 90L165 226.77l90 45 90-45L401.459 255 255 328.229 108.541 255zm0 90L165 316.771l90 45 90-45L401.459 345 255 418.229zM375 0v30h105v105h30V0zM30 30h105V0H0v135h30zM480 480H375v30h135V375h-30zM30 375H0v135h135v-30H30z"/></svg><svg viewBox="0 0 24 24" id="programming" xmlns="http://www.w3.org/2000/svg"><path d="M6.75 18a.75.75 0 01-.53-1.281L8.939 14l-2.72-2.72a.75.75 0 111.061-1.061l3.25 3.25a.75.75 0 010 1.061l-3.25 3.25a.744.744 0 01-.53.22zM17.25 18h-4.5a.75.75 0 010-1.5h4.5a.75.75 0 010 1.5z"/><path d="M21.25 23H2.75A2.752 2.752 0 010 20.25V3.75A2.752 2.752 0 012.75 1h18.5A2.752 2.752 0 0124 3.75v16.5A2.752 2.752 0 0121.25 23zM2.75 2.5c-.689 0-1.25.561-1.25 1.25v16.5c0 .689.561 1.25 1.25 1.25h18.5c.689 0 1.25-.561 1.25-1.25V3.75c0-.689-.561-1.25-1.25-1.25z"/><path d="M23.25 6H.75a.75.75 0 010-1.5h22.5a.75.75 0 010 1.5z"/></svg></svg>