<svg xmlns="http://www.w3.org/2000/svg" viewBox="0 0 283.46 283.46"><defs><style>.cls-1{isolation:isolate;}.cls-2{fill:#fbd829;}.cls-3{fill:#ecb49f;}.cls-4{fill:#da905e;}.cls-4,.cls-7{mix-blend-mode:multiply;}.cls-5{fill:#01015e;}.cls-16,.cls-6{fill:#fff;}.cls-7{fill:#f4d7b6;}.cls-8{fill:#596a83;}.cls-9{fill:none;stroke:#01015e;stroke-miterlimit:10;stroke-width:0.5px;}.cls-10{fill:#de6264;}.cls-11{fill:#f2a44c;}.cls-12{fill:#d43e3a;}.cls-13{fill:#5fa469;}.cls-14{fill:#ffd72d;}.cls-15{fill:#ffba32;}.cls-16{opacity:0.4;}.cls-17{fill:#de626b;}.cls-18{fill:#ecefff;}.cls-19{fill:#ffa132;}.cls-20{fill:#d0dcef;}.cls-21{fill:#10c6b6;}</style></defs><title>Artboard 1</title><g class="cls-1"><g id="Layer_1" data-name="Layer 1"><path class="cls-2" d="M30.83,45.88C-13,105.66,12.2,182.55,39.68,214.69c41.56,48.59,165.71,93.36,187.19,31.56,9.43-27.16-62-45.69-9.47-66.24,44-17.19,74.47-75.94,50.64-123.59C239.8,0,74.66-13.9,30.83,45.88Z"/><path class="cls-3" d="M77.42,263h44.8c-1-5.17-3.87-24.15,4.21-36.56,9.43-14.47,20.81-34.12,25.13-53.42s-69.5-38.6-89.53,6.55,3.14,83.06,3.14,83.06Z"/><path class="cls-4" d="M64.33,159.58s28.24,22.36,12.41,65.87C76.74,225.45,98.1,180.8,64.33,159.58Z"/><rect class="cls-5" x="59.5" y="34.86" width="97.39" height="158.13" rx="3.14" ry="3.14"/><path class="cls-6" d="M151.13,167.78a2.65,2.65,0,0,1-2.77,2.51H68a2.65,2.65,0,0,1-2.77-2.51V46.72A2.65,2.65,0,0,1,68,44.21h80.33a2.65,2.65,0,0,1,2.77,2.51Z"/><path class="cls-3" d="M54.53,262.8l9.58.21h11V212.55c15.54-27.42-5.14-45.45-8.28-50.62s-.27-24.13,1-36.77c1.18-11.41-2.22-17.69-8.9-17,0,0-3.93-.69-5.5,13.1s-5.49,25-10.3,32.81c-3,4.9-13.13,27.5-4.1,49.22S54.53,262.8,54.53,262.8Z"/><path class="cls-3" d="M151.45,169.19l-7.54,9.75c-7.54,9.75-3.25,10.28-3.25,10.28s3.76,4.82,17.28-11.71,9.81-21.73,9.81-21.73.4-4.42-10.33-1.28Z"/><path class="cls-4" d="M151.45,169.19l-3.2,4.13c5.21-2.24,12.39-10.79,16.82-19.85-1.52-.24-3.91-.06-7.65,1Z"/><path class="cls-3" d="M157.09,123.17s16.18,8.25,11.73,21.21-17,27.49-23,26.31-2.33-8.2,1.31-14.88,8.39-13.39,8.39-13.39Z"/><path class="cls-4" d="M157.09,123.17l-1.62,19.25s-3.22,4.55-6.39,9.89c5.23-1.89,12.88-11.4,17.31-21.3A30.33,30.33,0,0,0,157.09,123.17Z"/><path class="cls-3" d="M156.67,103.28s15.71,8.24,11.39,21.2-16.5,27.49-22.39,26.31-2.26-8.2,1.27-14.87,8.16-13.4,8.16-13.4Z"/><path class="cls-7" d="M56.63,110.52s4.71,4.71,3.92,11-7.07,4.71-7.07,4.71S54.27,112.88,56.63,110.52Z"/><path class="cls-7" d="M148.25,138s-5,8.64-2.61,11.52,9.16-2.62,9.94-5.5S150.87,137.75,148.25,138Z"/><path class="cls-7" d="M148,157.91s-5,8.64-2.62,11.52,9.17-2.62,9.95-5.5S150.61,157.65,148,157.91Z"/><path class="cls-7" d="M145.31,180.41s-4.37,5.81-2.93,8.1,6.87-1.07,7.7-3.09S147.23,180.45,145.31,180.41Z"/><circle class="cls-8" cx="105.78" cy="180.97" r="8"/><circle class="cls-5" cx="105.78" cy="180.97" r="6.08"/><path class="cls-9" d="M167.08,131.53a50.23,50.23,0,0,0,2.34-5.69c4.32-13-11.39-21.2-11.39-21.2l-1.57,19.24s-4.62,6.72-8.16,13.4S141.14,151,147,152.15c1.5.3,3.4-.42,5.48-1.86-.36.57-7.77,2.9-10.12,17.08a1.36,1.36,0,0,0,0,.64l-1.1,2s-47,1.43-68.36,0c-1.68-2.15-4.12-5.64-4.77-6.71-3.15-5.17-.27-24.13,1-36.77,1.18-11.41-2.22-17.69-8.9-17,0,0-3.93-.69-5.5,13.1s-5.49,25-10.3,32.81c-3,4.9-13.13,27.5-4.1,49.22s15.45,59.51,15.45,59.51l9.58.21h11v-.07l2.3.07h44.8c-1-5.17-3.87-24.15,4.21-36.56,6.93-10.65,14.92-24.1,20.39-38.15,2.62-1.63,6.22-4.81,11.12-10.79,13.52-16.53,9.81-21.73,9.81-21.73s.19-2.07-3.14-2.37a52,52,0,0,0,4.21-9C172.16,140,170,135.12,167.08,131.53Z"/><path class="cls-10" d="M92.37,140.48v2.32c0,2.84-1.37,4.39-4.17,4.39H86.88v6.67H84.09V136.09H88.2C91,136.09,92.37,137.64,92.37,140.48Zm-5.49-1.85v6H88.2c.89,0,1.37-.41,1.37-1.68v-2.66c0-1.27-.48-1.68-1.37-1.68Z"/><path class="cls-10" d="M94.42,136.09h2.8v17.77h-2.8Z"/><path class="cls-10" d="M107.63,136.09v2.49l-5.31,12.75h5.31v2.53H99.45v-2.48l5.31-12.75H99.7v-2.54Z"/><path class="cls-10" d="M117.65,136.09v2.49l-5.3,12.75h5.3v2.53h-8.17v-2.48l5.31-12.75h-5.06v-2.54Z"/><path class="cls-10" d="M129,153.86h-2.82l-.48-3.22h-3.43l-.48,3.22H119.2l2.85-17.77h4.08Zm-6.38-5.63h2.7l-1.35-9Z"/><path class="cls-11" d="M211.77,113.84a5.1,5.1,0,0,1-10.09-.21l-23.11,13.51S187,147.78,208,147.93l3.46-9.21a5,5,0,0,1-.85-.07,5.44,5.44,0,1,1,4.46-9.5L226.37,99.2l-16.57,9.69A5.1,5.1,0,0,1,211.77,113.84Zm-18.45,21.75a4.16,4.16,0,1,1,4.81-3.37A4.16,4.16,0,0,1,193.32,135.59Z"/><path class="cls-12" d="M215.26,49.86c2.55,5.49-.53,12.32-6.87,15.26S194.85,66,192.3,60.5a10.56,10.56,0,0,1,1-10.28c1.34-2,6.29-3.89,6.29-3.89s4.7-2.63,7.13-2.32A10.55,10.55,0,0,1,215.26,49.86Z"/><path class="cls-13" d="M201.12,45.15a1.78,1.78,0,0,0,.41-.95,1.68,1.68,0,0,0-.31-1.12l-1.91,2.45-3.11-.12a1.51,1.51,0,0,0,.67,1,1.73,1.73,0,0,0,1,.3,26.36,26.36,0,0,1-4,1.41c2.78,2.27,4.65.14,4.65.14.41,1.73,2.58,1.22,2.58,1.22l0,0s1.79-1.33.74-2.76c0,0,2.83,0,2.9-3.64A27.37,27.37,0,0,1,201.12,45.15Z"/><ellipse class="cls-8" cx="108.45" cy="88.7" rx="38.7" ry="38.54"/><circle class="cls-14" cx="107.17" cy="87.26" r="35.82" transform="translate(-30.31 101.34) rotate(-45)"/><circle class="cls-9" cx="108.53" cy="88.62" r="35.82" transform="translate(-30.88 102.7) rotate(-45)"/><path class="cls-15" d="M137.53,87.26A30.36,30.36,0,1,1,107.17,56.9,30.36,30.36,0,0,1,137.53,87.26Z"/><path class="cls-9" d="M135.82,87.26A28.66,28.66,0,1,1,107.17,58.6,28.65,28.65,0,0,1,135.82,87.26Z"/><path class="cls-16" d="M135.82,87.26A28.66,28.66,0,1,1,107.17,58.6,28.65,28.65,0,0,1,135.82,87.26Z"/><path class="cls-12" d="M105.46,70.54a4.78,4.78,0,1,1-4.77-4.77A4.78,4.78,0,0,1,105.46,70.54Z"/><path class="cls-12" d="M131.39,89.31a4.78,4.78,0,1,1-4.78-4.78A4.78,4.78,0,0,1,131.39,89.31Z"/><path class="cls-12" d="M103.76,101.93A4.78,4.78,0,1,1,99,97.15,4.78,4.78,0,0,1,103.76,101.93Z"/><path class="cls-12" d="M90.11,86.92a4.78,4.78,0,1,1-4.78-4.78A4.77,4.77,0,0,1,90.11,86.92Z"/><path class="cls-12" d="M124.91,68.84a4.78,4.78,0,1,1-4.78-4.78A4.78,4.78,0,0,1,124.91,68.84Z"/><path class="cls-12" d="M120.81,108.07a4.78,4.78,0,1,1-4.77-4.78A4.77,4.77,0,0,1,120.81,108.07Z"/><path class="cls-5" d="M106.15,94.42a1.71,1.71,0,1,1-1.71-1.7A1.71,1.71,0,0,1,106.15,94.42Z"/><path class="cls-5" d="M98.3,91a1.71,1.71,0,1,1-3.41,0,1.71,1.71,0,0,1,3.41,0Z"/><path class="cls-5" d="M118.43,79.41a1.71,1.71,0,1,1-1.71-1.7A1.71,1.71,0,0,1,118.43,79.41Z"/><path class="cls-5" d="M92.5,73.61a1.71,1.71,0,1,1-1.71-1.7A1.7,1.7,0,0,1,92.5,73.61Z"/><path class="cls-5" d="M123.54,98.18a1.71,1.71,0,1,1-1.7-1.71A1.7,1.7,0,0,1,123.54,98.18Z"/><path class="cls-5" d="M104.78,111.82a1.71,1.71,0,1,1-1.71-1.7A1.71,1.71,0,0,1,104.78,111.82Z"/><path class="cls-5" d="M90.45,102.27a1.71,1.71,0,1,1-1.7-1.71A1.71,1.71,0,0,1,90.45,102.27Z"/><path class="cls-17" d="M113.65,87.94a2.73,2.73,0,1,1-2.73-2.73A2.73,2.73,0,0,1,113.65,87.94Z"/><path class="cls-17" d="M111.94,62.87a2.22,2.22,0,1,1-2.21-2.22A2.21,2.21,0,0,1,111.94,62.87Z"/><path class="cls-17" d="M98.64,86.07a1.54,1.54,0,1,1-1.54-1.54A1.54,1.54,0,0,1,98.64,86.07Z"/><path class="cls-17" d="M127.64,101.08a1.2,1.2,0,1,1-1.2-1.2A1.19,1.19,0,0,1,127.64,101.08Z"/><path class="cls-17" d="M129.34,79.24a1.88,1.88,0,1,1-1.87-1.87A1.88,1.88,0,0,1,129.34,79.24Z"/><path class="cls-13" d="M106.83,80.1s-4.78-9.9,5.12-11.94C112,68.16,117.4,75.32,106.83,80.1Z"/><path class="cls-13" d="M110.58,93.74s5.46-3.41,7.51,4.78C118.09,98.52,113.65,101.25,110.58,93.74Z"/><path class="cls-13" d="M92.68,80.14s-1.11-5.45-7.23-1.48C85.45,78.66,88.45,83.33,92.68,80.14Z"/><path class="cls-18" d="M112.56,89.83a4.48,4.48,0,0,0,6.26-6.26l-.1-.11a1.39,1.39,0,1,0-2,2l-.13.13c-.82-.18-1.77-.9-1.65-3.3,0,0-.26-.47-2.18,1.44S111.25,86,111.25,86c2.4-.12,3.12.83,3.3,1.65l-.13.13a1.39,1.39,0,0,0-2,2Z"/><path class="cls-18" d="M127.17,77.38a4.47,4.47,0,0,0-7.47-4.74l-.09.12A1.39,1.39,0,0,0,122,74.25l.16.11c0,.84-.49,1.92-2.86,2.32,0,0-.41.36,1.88,1.81s2.57,1,2.57,1c-.65-2.31.12-3.23.88-3.58l.16.1a1.39,1.39,0,0,0,2.35,1.49A.83.83,0,0,0,127.17,77.38Z"/><path class="cls-18" d="M85.92,93.69a4.48,4.48,0,0,0,8.13,3.52l.06-.14A1.39,1.39,0,1,0,91.56,96l-.18-.08c-.13-.83.19-2,2.47-2.74,0,0,.34-.42-2.14-1.5S89,91.06,89,91.06c1,2.18.38,3.2-.32,3.67l-.17-.08a1.4,1.4,0,0,0-.73-1.83,1.38,1.38,0,0,0-1.82.73A.59.59,0,0,0,85.92,93.69Z"/><path class="cls-18" d="M93.68,76.45A4.48,4.48,0,0,0,101.81,80l.06-.13a1.38,1.38,0,0,0-.72-1.83,1.39,1.39,0,0,0-1.83.72l-.18-.08c-.13-.83.19-2,2.47-2.74,0,0,.34-.42-2.14-1.5s-2.69-.59-2.69-.59c1,2.18.38,3.2-.32,3.67l-.17-.07a1.39,1.39,0,0,0-2.55-1.11A1.47,1.47,0,0,0,93.68,76.45Z"/><path class="cls-18" d="M105.28,99.31a4.48,4.48,0,0,0,8.12,3.52.91.91,0,0,0,.07-.14,1.39,1.39,0,1,0-2.55-1.1l-.18-.08c-.13-.83.19-2,2.47-2.74,0,0,.34-.42-2.14-1.5s-2.69-.59-2.69-.59c1,2.18.38,3.2-.32,3.67l-.17-.08a1.39,1.39,0,0,0-2.56-1.1Z"/><path class="cls-9" d="M113.92,91.19a4.48,4.48,0,0,0,6.26-6.26l-.1-.11a1.39,1.39,0,0,0-2,2l-.13.13c-.82-.18-1.77-.9-1.65-3.3,0,0-.26-.47-2.18,1.44s-1.54,2.28-1.54,2.28c2.4-.12,3.12.83,3.3,1.65l-.13.13a1.39,1.39,0,0,0-2,2Z"/><path class="cls-9" d="M128.53,78.74A4.47,4.47,0,0,0,121.06,74l-.09.12a1.39,1.39,0,0,0,2.35,1.49l.16.11c0,.84-.49,1.92-2.86,2.32,0,0-.41.36,1.88,1.81s2.57,1,2.57,1c-.65-2.32.12-3.23.88-3.58l.16.1a1.39,1.39,0,0,0,2.35,1.49A.83.83,0,0,0,128.53,78.74Z"/><path class="cls-9" d="M87.28,95.05a4.48,4.48,0,0,0,8.13,3.52l.06-.14a1.39,1.39,0,1,0-2.55-1.1l-.18-.08c-.13-.83.19-2,2.47-2.74,0,0,.34-.42-2.14-1.5s-2.69-.59-2.69-.59c1,2.18.38,3.2-.32,3.67L89.89,96a1.4,1.4,0,0,0-.73-1.83,1.38,1.38,0,0,0-1.82.73A.59.59,0,0,0,87.28,95.05Z"/><path class="cls-9" d="M95,77.81a4.48,4.48,0,0,0,8.13,3.52l.06-.13a1.38,1.38,0,0,0-.72-1.83,1.39,1.39,0,0,0-1.83.72L100.5,80c-.13-.83.19-2,2.47-2.74,0,0,.34-.42-2.14-1.5s-2.69-.59-2.69-.59c1,2.18.38,3.2-.32,3.67l-.17-.07a1.39,1.39,0,0,0-2.55-1.11A1.47,1.47,0,0,0,95,77.81Z"/><path class="cls-9" d="M106.64,100.67a4.48,4.48,0,0,0,8.12,3.52.91.91,0,0,0,.07-.14,1.39,1.39,0,1,0-2.55-1.1l-.18-.08c-.13-.83.19-2,2.47-2.74,0,0,.34-.42-2.14-1.5s-2.69-.59-2.69-.59c1,2.18.38,3.2-.32,3.67l-.17-.08a1.39,1.39,0,0,0-2.56-1.1Z"/><path class="cls-19" d="M105.16,88.79a2.85,2.85,0,0,1-1.63-.44l-.38-.24.23-.4A9.49,9.49,0,0,1,105,85.9c1.15-1.13,2.73-2.67,2.4-3.6a.78.78,0,0,0-.42-.51c-.66-.31-2,.19-3,.59a9.56,9.56,0,0,1-1.85.58L102,82a9,9,0,0,0,1.63-.52c1.29-.49,2.75-1,3.77-.57a1.76,1.76,0,0,1,.93,1.06c.54,1.51-1.16,3.16-2.65,4.61-.43.42-.85.83-1.15,1.17a3.53,3.53,0,0,0,1.25,0l.07,1Z"/><path class="cls-19" d="M104.06,111.43l0-.64c0-.46,0-.92,0-1.38a10.31,10.31,0,0,0-.2-2.48,4.27,4.27,0,0,0-.87.22l-.36-.89a5.49,5.49,0,0,1,1.51-.33l.38,0,.13.35a9.58,9.58,0,0,1,.37,3.16c0,.2,0,.39,0,.59a6.53,6.53,0,0,0,1.37-1.36,11.75,11.75,0,0,1,1.2-1.3l.33-.3.32.31a7.16,7.16,0,0,1,1.49,1.92l-.89.34a5.26,5.26,0,0,0-.93-1.24c-.29.29-.54.59-.79.89a5.57,5.57,0,0,1-2.38,2Z"/><path class="cls-19" d="M93.63,67.31,92.74,67a9.22,9.22,0,0,1,1-1.7l.47-.7.22-.35.38.17a3,3,0,0,0,.83.16,5,5,0,0,1,1.12.23c.66-1.14,1.49-2.46,2.51-4l.8.52c-1.13,1.74-2,3.18-2.7,4.38l-.26.46-.43-.3a2.6,2.6,0,0,0-1.15-.3,5.54,5.54,0,0,1-.71-.12l-.28.42A8.2,8.2,0,0,0,93.63,67.31Z"/><path class="cls-19" d="M122.85,95.76l-.33-.9a10,10,0,0,1,1.93-.4c.29,0,.56-.07.83-.12l.41-.07.13.4a3.21,3.21,0,0,0,.43.73,4.52,4.52,0,0,1,.58,1c1.29-.26,2.83-.54,4.68-.83l.15,1c-2.06.32-3.71.62-5.07.92l-.51.11L126,97a2.54,2.54,0,0,0-.54-1.06,4.74,4.74,0,0,1-.39-.6l-.5.07A8,8,0,0,0,122.85,95.76Z"/><path class="cls-19" d="M82.21,82.19l-.57-.77c.54-.41.78-.74.81-1.16-1.54-.17-2-.86-2-1.43-.17-1.58,2.37-3.6,3.75-4l.25.92c-1.19.32-3.14,2.07-3,3,0,.48,1.09.58,1.53.6l.38,0,.07.38A2.37,2.37,0,0,1,82.21,82.19Z"/><path class="cls-19" d="M93.4,109.57a7.06,7.06,0,0,0-1.28-2.22l-.17.15a3.55,3.55,0,0,0-1.11,1.37l-.12.3h-.33c-1.71,0-2.55-1.43-3.29-2.68l-.13-.22.82-.49.14.22c.61,1,1.18,2,2.17,2.19a4.7,4.7,0,0,1,1.22-1.41c.16-.14.33-.29.5-.46l.35-.35.34.37a8.49,8.49,0,0,1,1.81,3Z"/><path class="cls-19" d="M133.76,86a9.7,9.7,0,0,1-3.18-.76l-.25-.1-.05-.27a5.24,5.24,0,0,1,0-1.77l.05-.25.23-.1a3.31,3.31,0,0,0,2-3l-.68-.34a21.54,21.54,0,0,0-2-.94l.33-.9a22.8,22.8,0,0,1,2.14,1c.31.16.61.32.91.46l.25.12,0,.26a4.19,4.19,0,0,1-2.32,4.13,4.06,4.06,0,0,0,0,.92,8,8,0,0,0,2.6.6Z"/><path class="cls-16" d="M116.82,54.8s-29.75-12-43.18,25.91C73.64,80.71,83.72,49,116.82,54.8Z"/><circle class="cls-16" cx="197.57" cy="53.04" r="2.88"/><path class="cls-12" d="M250.17,127c-2.06,3.86-7.34,5.06-11.8,2.68s-6.4-7.43-4.34-11.29a7.67,7.67,0,0,1,6.38-3.88c1.77-.12,5,1.94,5,1.94s3.57,1.56,4.45,3.1A7.65,7.65,0,0,1,250.17,127Z"/><path class="cls-13" d="M246.72,116.75a1.31,1.31,0,0,0,.73-.18,1.16,1.16,0,0,0,.51-.66l-2.24,0L244.43,114a1.11,1.11,0,0,0-.26.8,1.39,1.39,0,0,0,.25.7,19.83,19.83,0,0,1-2.55-1.69c-.09,2.59,1.95,2.75,1.95,2.75-.82,1,.42,2,.42,2s1.58.48,1.94-.75c0,0,1.27,1.61,3.37.08A18.75,18.75,0,0,1,246.72,116.75Z"/><path class="cls-16" d="M241.88,119.8a2.08,2.08,0,1,1,.41-2.91A2.07,2.07,0,0,1,241.88,119.8Z"/><path class="cls-20" d="M253.3,66.54c3.54-3,3.88-8.57.7-12.72s-8.68-5.27-12.45-2.63l-.28.19A3,3,0,0,0,245,56.2l.26.34c-.63,1.72-2.46,3.56-7.61,2.61,0,0-1.11.43,2.48,5.13s4.51,4,4.51,4c.41-5.23,2.67-6.52,4.5-6.67l.26.33a3,3,0,1,0,3.69,4.82Z"/><path class="cls-20" d="M182.42,71.19c-2.81-3-7.81-3-11.33,0s-4.23,8-1.68,11.2a1.3,1.3,0,0,0,.18.23,2.7,2.7,0,1,0,4.09-3.53l.28-.25c1.57.47,3.3,2,2.72,6.63,0,0,.45,1,4.42-2.48s3.31-4.21,3.31-4.21c-4.66-.09-5.92-2-6.16-3.65l.28-.24a2.7,2.7,0,0,0,4.09-3.54Z"/><path class="cls-5" d="M220.71,80.09c1.23,2,.82,4.55-.92,5.6s-4.15.24-5.38-1.81-.81-4.54.93-5.59S219.48,78.05,220.71,80.09Z"/><path class="cls-5" d="M181.42,30.76c1,2.17.26,4.61-1.6,5.44s-4.14-.27-5.11-2.45-.26-4.61,1.6-5.44S180.45,28.58,181.42,30.76Z"/><path class="cls-6" d="M177.11,30.49a1,1,0,1,1-1-1A1,1,0,0,1,177.11,30.49Z"/><path class="cls-18" d="M216.84,81.19a.64.64,0,0,1-.64.64.64.64,0,0,1-.64-.64.64.64,0,0,1,1.28,0Z"/><path class="cls-5" d="M187.88,171c-1,3.38-4.18,5.42-7.07,4.56s-4.39-4.32-3.37-7.71,4.18-5.43,7.06-4.56S188.9,167.58,187.88,171Z"/><circle class="cls-6" cx="181.24" cy="166.55" r="1.78"/><path class="cls-5" d="M144.52,229.72c2.54,1.76,3.39,4.95,1.88,7.12s-4.78,2.49-7.33.73-3.39-5-1.88-7.12S142,228,144.52,229.72Z"/><circle class="cls-6" cx="139.04" cy="234.06" r="1.56"/><path class="cls-21" d="M186.38,105.65S184.7,89.82,206.77,93.9C206.77,93.9,202.45,110.45,186.38,105.65Z"/><path class="cls-21" d="M36.22,72.07s-3.36,15.35,11,15.35C47.25,87.42,53,78.31,36.22,72.07Z"/><path class="cls-12" d="M36.18,111.72l-.52-.38-.28-.19-.31-.12-.35-.15-.46-.1a5.16,5.16,0,0,0-1.08-.08A4.79,4.79,0,0,0,32,111a3.52,3.52,0,0,0-2,2,13.3,13.3,0,0,0-.39,1.9c0,.21-.09.41-.14.61s-.15.45-.23.67a5,5,0,0,1-.36.68l-.1.17-.16.2-.18.22a3.87,3.87,0,0,1-.54.54,6.68,6.68,0,0,1-.58.47c-.36.29-.71.53-1,.78a4.09,4.09,0,0,0-.73.69,1.45,1.45,0,0,0-.19.33c-.14.18.12-.12.09-.08l-.09.17-.14.29-.15.28-.07.15s0,0,0,.08a1.2,1.2,0,0,1,0,.24s0,.22,0,.32,0,.22,0,.33a4.91,4.91,0,0,0,.39,1.07c.14.12.16.3.3.41a.86.86,0,0,1,.07.1l0,.05-.11-.09.06.06.25.22a.59.59,0,0,1,.11.09l.13,0c.08,0,.16.08.24.12a2.33,2.33,0,0,0,.53.16,2.81,2.81,0,0,1,.29,0h.14c-.09,0,.41-.09-.28.1l.18-.05.32-.09c.1,0,.25-.07.23-.08s0,0,.15-.07l.74-.38a9.56,9.56,0,0,1,1.11-.4l.15,0,.07,0,.26,0h.19l.16,0h.58a3.28,3.28,0,0,1,1.91.74,5.37,5.37,0,0,1,.4.36l.17.19.06.09c-.34-.11-.06,0-.14,0l.58.3c.13.08.09,0,.13.06l.08,0a2.86,2.86,0,0,0,1.48.07,3.19,3.19,0,0,0,1.45-.74l.21-.21a.64.64,0,0,0,.12-.14,2.47,2.47,0,0,0,.23-.28,4.88,4.88,0,0,0,.4-.75,3.89,3.89,0,0,0,.23-1.65V121c0-.12,0,0,0,0V121l0-.13c0-.16-.09-.37-.14-.49l-.13-.3a2.7,2.7,0,0,0-.21-.35,2.56,2.56,0,0,0-.26-.34l-.32-.38-.31-.38A3.38,3.38,0,0,1,37,118a1.78,1.78,0,0,1,0-1.28c.11-.33.22-.58.31-.81s.08-.24.11-.35l0-.15,0-.19.06-.36c0-.11,0-.21,0-.31a3.73,3.73,0,0,0-.18-1.14,4.31,4.31,0,0,0-.8-1.37l-.4-.39Zm.8-.93s.17.2.46.57a5.8,5.8,0,0,1,.8,1.83,6,6,0,0,1,.16,1.41V115l0,.37,0,.19,0,.24c0,.13-.05.28-.08.42s-.14.56-.18.79a.51.51,0,0,0,.09.44c0,.06.12.12.16.19l.37.29.37.28a4.72,4.72,0,0,1,.43.37,4.51,4.51,0,0,1,.43.44l.41.57c.11.19.17.32.26.48l.07.12,0,.06.06.16.1.31a5.66,5.66,0,0,1,.23,2.76,6.91,6.91,0,0,1-.41,1.42,6.33,6.33,0,0,1-.76,1.34,6.81,6.81,0,0,1-6,2.72l-.55-.08-.49-.1-.63-.17-.21-.09-.1-.05-.13-.07-.27-.13A5.21,5.21,0,0,1,31,128l-.33-.23c-.07,0-.11-.06-.12,0a1.1,1.1,0,0,0,.7.29h.26l-.17,0-.16,0,.21,0c-.05.09,0,.09-.12.15l-.39.31c-.28.18-.66.42-1,.6a3.21,3.21,0,0,1-.38.19l-.31.13-.15.07-.39.11-.07,0-.13,0-.51.1a7.41,7.41,0,0,1-1.05.07,7.77,7.77,0,0,1-2.08-.32,5.18,5.18,0,0,1-1-.38,4.55,4.55,0,0,1-.49-.25l-.54-.35-.26-.19-.15-.11-.26-.22-.06,0-.15-.14-.07-.07-.18-.2-.35-.4a7.06,7.06,0,0,1-1.08-1.83,6.72,6.72,0,0,1-.19-4,4.1,4.1,0,0,1,.32-.91,5.32,5.32,0,0,1,.45-.89,9.1,9.1,0,0,1,.62-.87l.16-.2.12-.1.24-.21.25-.2.12-.11s.28-.3.18-.18l.11-.08a5.74,5.74,0,0,1,.75-.47,10.79,10.79,0,0,1,1.33-.58c.4-.15.75-.28,1.05-.41l.39-.19a1,1,0,0,0,.33-.22l.21-.19.05,0c-.1.13,0,0,0,0l.06-.07a3,3,0,0,0,.22-.28l.2-.35.17-.44c.23-.61.41-1.35.74-2.09a4.57,4.57,0,0,1,.67-1L29,111l.08-.09.08-.1.08-.06.43-.34.42-.32.46-.24a3.68,3.68,0,0,1,.9-.38,6.59,6.59,0,0,1,1.73-.29,5.74,5.74,0,0,1,1.47.23l.61.19.52.27.45.25.27.23.49.41Z"/><path class="cls-12" d="M168.49,197.38l-.83.22c-.13,0-.29.07-.44.13l-.39.22-.45.23-.49.39a6.41,6.41,0,0,0-1,1.06,6.23,6.23,0,0,0-.71,1.54,4.73,4.73,0,0,0,.34,3.73,18.5,18.5,0,0,0,1.65,2l.52.66.49.8a6.77,6.77,0,0,1,.4,1l.09.25.08.34.08.38a6,6,0,0,1,.1,1c0,.42,0,.68,0,1,0,.62-.07,1.19-.06,1.71a5.5,5.5,0,0,0,.1,1.35,2.2,2.2,0,0,0,.18.48c.06.3,0-.23,0-.17l.11.25.17.39.17.39.09.2.09,0a1.48,1.48,0,0,1,.29.17s.25.16.36.24.2.2.36.24a6.5,6.5,0,0,0,1.45.51c.24,0,.44.09.67,0h.26l-.19,0h.11l.44-.08.19,0,.17-.08a3.13,3.13,0,0,0,.32-.15,2.82,2.82,0,0,0,.62-.42c.07-.1.18-.19.26-.29l.12-.14c0,.13.25-.5-.13.37l.09-.23.18-.41c.06-.13.14-.32.11-.3s0-.07.05-.22l.24-1.09a12.77,12.77,0,0,1,.53-1.49l.08-.19,0-.09.17-.32.15-.2.13-.18a4.34,4.34,0,0,1,.49-.61,4.45,4.45,0,0,1,2.39-1.36c.28-.06.51-.08.71-.11h.49c-.4.27,0,.09-.14.14l.8-.35c.19-.07.12-.07.17-.09l.11,0a3.64,3.64,0,0,0,1.33-1.47,4.26,4.26,0,0,0,.47-2.14l0-.4a2.35,2.35,0,0,0,0-.24,2.49,2.49,0,0,0-.1-.47,5.78,5.78,0,0,0-.44-1.06,5.16,5.16,0,0,0-1.51-1.64l-.23-.17c-.15-.07.08,0,0,0l-.09,0-.16-.08-.62-.27-.43-.12c-.15,0-.35,0-.53-.07a2.77,2.77,0,0,0-.58,0h-1.33a5.32,5.32,0,0,1-.89-.14,2.45,2.45,0,0,1-1.36-1.05c-.25-.39-.42-.72-.59-1l-.26-.42-.11-.18-.17-.19c-.11-.13-.21-.26-.32-.38l-.31-.27a5.24,5.24,0,0,0-1.33-.78,5.74,5.74,0,0,0-2.12-.33l-.74.08Zm-.28-1.62s.35,0,1,0a7.36,7.36,0,0,1,2.58.73,8.51,8.51,0,0,1,1.61,1l.42.35.36.35.18.18.21.24.37.44c.24.31.46.63.67.87a.73.73,0,0,0,.53.28c.1,0,.23,0,.34,0l.61-.13.61-.14a4.33,4.33,0,0,1,.75-.14c.26,0,.51-.07.81-.07l.95.07a6.86,6.86,0,0,1,.73.13l.17,0,.09,0,.21.07.42.16a7.58,7.58,0,0,1,3.05,2.11,8.33,8.33,0,0,1,1.88,3.56,8.93,8.93,0,0,1,0,4.36,9.09,9.09,0,0,1-2.29,4.19l-.56.51c-.17.15-.44.37-.52.42l-.71.51-.27.14-.13.07-.18.08-.37.16c-.25.1-.46.15-.7.23l-.53.14c-.09,0-.15.07-.14.08a1.41,1.41,0,0,0,.89-.48l.12-.16a.66.66,0,0,0,.07-.12l-.09.2-.09.2.13-.24c.05.13.06.11.05.24v.68c0,.44-.13,1-.22,1.54a5.53,5.53,0,0,1-.13.56l-.12.43-.06.22-.22.5,0,.08-.08.16-.34.61a11.35,11.35,0,0,1-.81,1.15,10.48,10.48,0,0,1-2.1,1.89,7.24,7.24,0,0,1-1.24.71c-.23.1-.41.2-.68.3l-.83.26-.41.11-.25,0-.44.09-.11,0-.27,0h-.13l-.36,0h-.72a8.53,8.53,0,0,1-7.16-3.64,5.16,5.16,0,0,1-.68-1.12,7.7,7.7,0,0,1-.54-1.22c-.15-.46-.28-.93-.38-1.38l-.07-.34v-1.28s-.07-.56,0-.34c0,0,0-.19,0-.19a7,7,0,0,1,.15-1.18,14.61,14.61,0,0,1,.52-1.88c.2-.54.35-1,.47-1.44l.13-.55a1.35,1.35,0,0,0,.06-.53l0-.39v-.09c0,.22,0,0,0,.07l0-.12a4.4,4.4,0,0,0-.1-.47l-.2-.5-.3-.55c-.45-.76-1.06-1.58-1.55-2.54a6.67,6.67,0,0,1-.5-1.59l-.06-.31,0-.16,0-.16v-.14c0-.25,0-.5,0-.74s0-.47,0-.71.1-.45.14-.67a4.62,4.62,0,0,1,.38-1.26,8.59,8.59,0,0,1,1.17-2.05,8.11,8.11,0,0,1,1.48-1.33l.71-.47.74-.31.63-.25c.18-.05.33-.06.47-.09l.84-.15Z"/><path class="cls-21" d="M237.94,94.83A4.93,4.93,0,0,0,239.82,96c1.57.64,3.89,0,4.32-1.56.37-1.21.1-3,1.64-4.5,1.1-.94,2-1.21,2.8-2a1.67,1.67,0,0,1,.12-.23l-.14.14A4.93,4.93,0,0,0,249,87c-.14-.21-.13-.73-.28-1.11a6,6,0,0,0-.63-1.14c-.05-.12-.32-.4-.43-.57l.1.1a3,3,0,0,0-2.08-1.07c.09,0-.23,0,.21,0l-.35,0c.12,0,.2-.07.16-.05a7.41,7.41,0,0,1-3.1.81,4.93,4.93,0,0,1-.92-.11,3.67,3.67,0,0,1-1.92-1.22c-.42-.49-.2-.37-.69-.69l-.21-.12a1.06,1.06,0,0,1-.2-.12,2.74,2.74,0,0,0-2.5.17l.06-.06a7.41,7.41,0,0,0-.61.6c-2.3,3.91,2.32,5,1.31,7.39-.35,1-1.27,2.68,1.07,5.09Zm-2.31-4.5c.09-.58.32-1.19.11-1.35a7.54,7.54,0,0,0-1.2-1.12,5.82,5.82,0,0,1-.71-8.23l.11-.11a6.64,6.64,0,0,1,9-.31.59.59,0,0,0,.16.1c-.18-.37-1.14-.25-.46-.34l-.24,0,0,0a1,1,0,0,1,.2-.15,5.71,5.71,0,0,1,4-1.07c7.68.54,10.3,11.2,2.88,13.5a19.19,19.19,0,0,0-1.88.61c-1.77,1-.32,4-4.14,5.63C240.3,99,234.82,96,235.63,90.33Z"/><path class="cls-9" d="M254.66,67.9c3.54-3,3.88-8.57.7-12.72s-8.68-5.27-12.45-2.63l-.28.19a3,3,0,0,0,3.69,4.82l.26.34c-.63,1.72-2.46,3.56-7.61,2.61,0,0-1.11.43,2.48,5.12s4.51,4,4.51,4c.41-5.23,2.67-6.52,4.5-6.67l.26.33a3,3,0,1,0,3.69,4.82Z"/><path class="cls-9" d="M183.78,72.55c-2.81-3-7.81-3-11.33,0s-4.23,8-1.68,11.2A1.3,1.3,0,0,0,171,84,2.7,2.7,0,1,0,175,80.5l.28-.25c1.57.47,3.3,2,2.72,6.63,0,0,.45,1,4.42-2.48s3.31-4.21,3.31-4.21c-4.66-.09-5.92-2-6.16-3.65l.28-.24A2.7,2.7,0,0,0,184,72.76Z"/><path class="cls-9" d="M213.13,115.2A5.1,5.1,0,0,1,203,115L179.93,128.5s8.38,20.64,29.46,20.79l3.46-9.21A5,5,0,0,1,212,140a5.44,5.44,0,1,1,4.46-9.5l11.27-29.95-16.57,9.69A5.1,5.1,0,0,1,213.13,115.2ZM194.68,137a4.16,4.16,0,1,1,4.81-3.37A4.16,4.16,0,0,1,194.68,137Z"/><path class="cls-9" d="M187.74,107s-1.68-15.83,20.39-11.75C208.13,95.26,203.81,111.81,187.74,107Z"/><path class="cls-9" d="M37.58,73.43s-3.36,15.35,11,15.35C48.61,88.78,54.37,79.67,37.58,73.43Z"/><path class="cls-9" d="M239.3,96.19a4.93,4.93,0,0,0,1.88,1.15c1.57.64,3.89,0,4.32-1.56.37-1.21.1-3,1.64-4.5,1.1-.94,2-1.21,2.8-2a1.67,1.67,0,0,1,.12-.23c-.06.06.15-.16-.14.14a4.93,4.93,0,0,0,.43-.86c-.14-.21-.13-.73-.28-1.11a6,6,0,0,0-.63-1.14c-.05-.12-.32-.4-.43-.57l.1.1A3,3,0,0,0,247,84.54c.1,0-.22,0,.22,0l-.35,0c.12,0,.2-.07.16-.05a7.41,7.41,0,0,1-3.1.81,4.93,4.93,0,0,1-.92-.11A3.64,3.64,0,0,1,241.11,84c-.42-.49-.2-.37-.69-.69l-.21-.12A1.06,1.06,0,0,1,240,83a2.74,2.74,0,0,0-2.5.17l.06-.06a7.41,7.41,0,0,0-.61.6c-2.3,3.91,2.32,5,1.31,7.39-.35,1-1.27,2.68,1.07,5.09ZM237,91.69c.09-.58.31-1.19.11-1.35a7.54,7.54,0,0,0-1.2-1.12,5.82,5.82,0,0,1-.71-8.23c-.07.08.12-.12.11-.11a6.64,6.64,0,0,1,9-.31.59.59,0,0,0,.16.1c-.18-.37-1.14-.25-.46-.34-.11,0,.27,0-.24,0l0,0a1,1,0,0,1,.2-.15,5.71,5.71,0,0,1,4-1.07c7.68.54,10.3,11.2,2.88,13.5a19.19,19.19,0,0,0-1.88.61c-1.77,1-.33,4-4.14,5.63C241.66,100.36,236.18,97.33,237,91.69Z"/></g></g></svg>