<svg xmlns="http://www.w3.org/2000/svg" viewBox="0 0 283.46 283.46"><defs><style>.cls-1{isolation:isolate;}.cls-2{fill:#fbd829;}.cls-3{fill:#d0dcef;}.cls-4,.cls-5{fill:#10c6b6;}.cls-5,.cls-7{opacity:0.6;}.cls-21,.cls-6,.cls-7{fill:none;stroke:#01015e;stroke-miterlimit:10;stroke-width:0.5px;}.cls-17,.cls-8{fill:#fff;}.cls-9{fill:#596a83;}.cls-10{fill:#d43e3a;}.cls-11{fill:#dde4ea;}.cls-12{fill:#de6264;}.cls-13,.cls-17,.cls-21{opacity:0.4;}.cls-14{fill:#01015e;}.cls-15{fill:#ecb49f;}.cls-16{fill:#c79e7a;mix-blend-mode:multiply;}.cls-18{fill:#acd0ef;}.cls-19{fill:#ffba32;}.cls-20{fill:#ffd72d;}</style></defs><title>Artboard 1 copy</title><g class="cls-1"><g id="Layer_1" data-name="Layer 1"><path class="cls-2" d="M272.65,171.05c-12.46,46.21-39.06,84.23-74.54,96.34-21,7.17-42.7,8.76-64.28,9-30.81.32-77.08-14.84-102-40.22C-32.11,171.1,46,152.7,63.93,113.73c23.4-50.88-9.7-68.28,42.31-99C164.32-19.64,300.58,67.42,272.65,171.05Z"/><ellipse class="cls-3" cx="154.13" cy="240.79" rx="83.86" ry="3.37"/><path class="cls-3" d="M94.11,250.39c0,1.43-12.71,2.59-28.38,2.59s-28.39-1.16-28.39-2.59,12.71-2.6,28.39-2.6S94.11,249,94.11,250.39Z"/><path class="cls-3" d="M160,254.28c0,.71-7.37,1.29-16.47,1.29s-16.46-.58-16.46-1.29,7.37-1.3,16.46-1.3S160,253.56,160,254.28Z"/><path class="cls-4" d="M32.49,140.58a16.76,16.76,0,0,1-12.37-17c.25-4.28,2.16-3.75,4.76-6.33,2.76-2.75,1.25-3.78-1.09-6.83-4.27-5.57-8.29-11.83-6.55-19.25,1.64-7,10-6.91,8.12-14.25C23,67.46,23.94,58.08,25,48.38c.64-5.67,2.7-19.51,10.51-19.73,7.35-.19,7,13.53,7.15,18.18.14,4.33-.78,7.33,2.54,9.77,4.26,3.13,9.19,4.16,10.08,10.41,1,7.36-7.11,10.47-7.52,17-.33,5.42,7.44,8.56,10.2,13,5.18,8.38-4.91,8.44-5.76,15.13a3.12,3.12,0,0,1-.53,1.1c2.83,2.14,6.73,3.27,8.34,6.71,1.87,4,.5,8.11-2.26,11.19-5.56,6.19-16,11.65-24.35,9.66Z"/><path class="cls-4" d="M50,238.79c0,.62-6.17,1.12-13.78,1.12s-13.77-.5-13.77-1.12,6.17-1.11,13.77-1.11S50,238.18,50,238.79Z"/><rect class="cls-4" x="35.35" y="141.17" width="0.37" height="93.55"/><path class="cls-5" d="M55.37,118.48,35.72,138.12v-5.4L53.8,114.64l-.33-.2L35.72,132.19V116.9L55.63,97l-.26-.26L35.72,116.38v-6.59L53.28,92.23,53,92,35.72,109.26v-3L51.38,90.57l-.27-.26L35.72,105.7V85.27L55.09,65.9c0-.14-.07-.28-.11-.41L35.72,84.75V79.34L53.05,62l-.25-.27L35.72,78.81V53.64l7-7c0-.16,0-.33,0-.52l-7,7V28.65h-.37V45.8l-8.16-8.16c0,.13-.09.26-.13.4l8.29,8.29v20l-11-11c0,.16,0,.32,0,.48L35.35,66.89v3.42L24,59c0,.17,0,.33,0,.5L35.35,70.84V94.43L23.87,83l-.26.27L35.35,95v3.82L21.57,85l-.28.24L35.35,99.31v26.36l-9.54-9.54-.22.3,9.76,9.77V234.72h.37V138.65l19.91-19.91Z"/><path class="cls-4" d="M37.91,238s-10.79-38.63-17.69-21.77S37.91,238,37.91,238Z"/><path class="cls-4" d="M37.6,239.58l-.07-1.16c-.07-1.24-1.62-30.46,6.11-38.64A6.14,6.14,0,0,1,49,197.7a4.4,4.4,0,0,1,3.73,2.5c4.15,8.7-13.76,37.19-14.53,38.4ZM48.25,198.4a5.47,5.47,0,0,0-4.07,1.89c-6.64,7-6.16,31.19-6,36.88,3.22-5.27,17.39-29.21,13.85-36.65a3.65,3.65,0,0,0-3.14-2.08A5.53,5.53,0,0,0,48.25,198.4Z"/><path class="cls-6" d="M59.08,132.47c-5.07,5.64-14.17,10.66-22.06,10a1.1,1.1,0,0,1-.25,0h-.12a13.49,13.49,0,0,1-1.92-.32c-.31-.07-.63-.15-.94-.25a16.78,16.78,0,0,1-12.37-17c.25-4.28,2.16-3.75,4.76-6.33a9.25,9.25,0,0,0,.7-.78c.09-.11.16-.21.23-.31,1.38-2,0-3.13-2-5.74-4.28-5.57-8.3-11.83-6.56-19.26a10.76,10.76,0,0,1,4.05-5.89l.29-.23c.71-.61,1.42-1.18,2-1.78l.26-.28a5.84,5.84,0,0,0,1.49-6,57.62,57.62,0,0,1-1.34-17.38,4.49,4.49,0,0,1,0-.51c.06-1.06.13-2.12.23-3.19,0-.16,0-.33,0-.49.2-2.31.45-4.62.71-7a56.31,56.31,0,0,1,2-10.33h0c0-.14.08-.26.13-.4,1.51-4.62,4-8.74,8.16-9H37c6.85,0,6.84,12.38,6.95,17.5v0c0,.08,0,.16,0,.24V48a.71.71,0,0,1,0,.14c.14,4.33-.78,7.33,2.55,9.77C49.17,59.84,52.06,61,54.1,63l.25.27a8.92,8.92,0,0,1,2.26,5c1,7.36-7.11,10.46-7.51,17-.16,2.44,1.35,4.44,3.31,6.29l.27.26c.52.47,1.07.95,1.62,1.42l.28.24a22.88,22.88,0,0,1,4.71,4.8c5.18,8.39-4.91,8.44-5.76,15.14a3,3,0,0,1-.53,1.1,18.93,18.93,0,0,0,1.78,1.18l.33.19c2.41,1.42,5,2.7,6.22,5.34C63.22,125.29,61.84,129.39,59.08,132.47Z"/><path class="cls-6" d="M36.77,142.46h-.12v98.42H37v-98.4A1.1,1.1,0,0,1,36.77,142.46Z"/><path class="cls-6" d="M37,142.46v0a1.1,1.1,0,0,1-.25,0Z"/><path class="cls-7" d="M56.67,119.77l.26.27L37,140v2.53a1.1,1.1,0,0,1-.25,0h-.12v-15l-9.77-9.76c.09-.11.16-.21.23-.31L36.65,127V100.61L22.59,86.54l.29-.23,13.77,13.78V96.26L24.91,84.53h0c.09-.09.19-.18.27-.27L36.65,95.74V72.14L25.32,60.81c0-.17,0-.33,0-.5h0l11.3,11.31V68.19L25.57,57.11c0-.16,0-.32.05-.48l11,11v-20l-8.29-8.29c0-.14.08-.26.13-.4l8.16,8.16V30H37V54.42l6.95-7v0c0,.08,0,.16,0,.24s0,.16,0,.23h0l-7,6.95V80.11L54.1,63l.25.27L37,80.65v5.4L56.28,66.78c0,.14.08.28.11.42L37,86.57V107L52.41,91.61l.27.26L37,107.53v3L54.3,93.29l.28.24L37,111.09v6.58L56.67,98l.26.27L37,118.21v15.28l17.76-17.74.33.19L37,134v5.41Z"/><path class="cls-3" d="M98,80.89a3.19,3.19,0,1,1-3.19-3.18A3.18,3.18,0,0,1,98,80.89Z"/><path class="cls-6" d="M99.25,82.19A3.19,3.19,0,1,1,96.07,79,3.18,3.18,0,0,1,99.25,82.19Z"/><path class="cls-8" d="M215.49,76.4a4.67,4.67,0,1,1-4.66-4.66A4.67,4.67,0,0,1,215.49,76.4Z"/><path class="cls-8" d="M114.74,57.94a5.62,5.62,0,1,1-5.62-5.62A5.62,5.62,0,0,1,114.74,57.94Z"/><path class="cls-8" d="M156.5,65.12a2.76,2.76,0,1,1-2.76-2.75A2.76,2.76,0,0,1,156.5,65.12Z"/><path class="cls-3" d="M220.2,58H168a16.83,16.83,0,0,1,17.64-6.76s0-11.64,12.39-12c13.1-.4,9.76,10.88,9.76,10.88S223.21,42.25,220.2,58Z"/><path class="cls-3" d="M149.94,42.73l-36.41.37s3.75-6.38,13.14-5.63c0,0,4.13-12.39,17.26-6S149.94,42.73,149.94,42.73Z"/><path class="cls-6" d="M216.79,77.7A4.67,4.67,0,1,1,212.13,73,4.67,4.67,0,0,1,216.79,77.7Z"/><path class="cls-6" d="M116,59.24a5.62,5.62,0,1,1-5.62-5.62A5.62,5.62,0,0,1,116,59.24Z"/><path class="cls-8" d="M241.05,124.66a3.1,3.1,0,1,1-3.1-3.1A3.1,3.1,0,0,1,241.05,124.66Z"/><path class="cls-6" d="M241.77,125.38a3.1,3.1,0,1,1-3.1-3.1A3.1,3.1,0,0,1,241.77,125.38Z"/><path class="cls-6" d="M157.8,66.42A2.76,2.76,0,1,1,155,63.67,2.76,2.76,0,0,1,157.8,66.42Z"/><path class="cls-3" d="M266.37,242.05c0,.46-4.59.83-10.26.83s-10.27-.37-10.27-.83,4.6-.82,10.27-.82S266.37,241.6,266.37,242.05Z"/><path class="cls-3" d="M254.63,241c-.87-8.71-2.56-17.82-1.67-26.65.25-2.41,2.3-13.2,6.19-10.71,3.12,2,1.07,9.28,1,12.31a92.37,92.37,0,0,1-3.89,24.49Z"/><path class="cls-4" d="M254.5,242.41l.05-.37a53.23,53.23,0,0,1,1.81-7.65c.31-1.07.63-2.18.91-3.25.09-.36.19-.92.31-1.58.55-3.06,1.38-7.7,3.82-7.7a2.34,2.34,0,0,1,1,.26c3.43,1.69,1.59,8.2-.07,12.46a3.1,3.1,0,0,1,1.43-.4,1.72,1.72,0,0,1,1.51.81,3.08,3.08,0,0,1-.27,3c-.92,1.72-2.81,2.6-4.48,3.38l-.38.17Zm6.9-20c-2,0-2.82,4.71-3.28,7.24-.11.67-.22,1.24-.32,1.62-.27,1.08-.6,2.19-.91,3.27a58.79,58.79,0,0,0-1.74,7.2L260,241l.28-.13c1.66-.78,3.38-1.59,4.22-3.15a2.57,2.57,0,0,0,.28-2.42,1.15,1.15,0,0,0-1-.54,3,3,0,0,0-1.84.77l-.83.66.4-1c1.32-3.23,4-10.91.66-12.57A1.8,1.8,0,0,0,261.4,222.42Z"/><path class="cls-4" d="M255.66,242.53c1.22-5.61-1.56-14.71-3.77-20.11-.73-1.77-4.67-7.61-7.15-6.41s.91,7.37,1.82,8.81a4.46,4.46,0,0,0-3.35-1.54c-2.43,0-1.91.51-1.67,2.5.38,3.08,2.71,4.8,4.85,6.62-1.59-.6-4.12-.49-4,1.82S255.66,242.53,255.66,242.53Z"/><path class="cls-6" d="M261.7,242.39c1.65-.77,3.49-1.65,4.4-3.35a3.05,3.05,0,0,0,.26-3,1.7,1.7,0,0,0-1.51-.81,3,3,0,0,0-1.42.39c1.66-4.25,3.5-10.76.06-12.45a2.2,2.2,0,0,0-1-.26,2.07,2.07,0,0,0-1.6.83c.23-2.28.37-4.55.39-6.78,0-3,2.08-10.31-1-12.31-3.88-2.48-5.94,8.3-6.18,10.71a62.93,62.93,0,0,0,0,10.81c-.35-1-.7-1.88-1-2.71-.72-1.76-4.66-7.6-7.14-6.4s.91,7.36,1.81,8.81a4.37,4.37,0,0,0-3.34-1.54c-2.44,0-1.92.51-1.67,2.5.37,3.08,2.71,4.79,4.84,6.61-1.59-.59-4.11-.49-4,1.83.06,1.65,6.76,5.15,10.63,7-4.14.11-7.14.42-7.14.79s4.6.83,10.27.83,10.26-.37,10.26-.83S265.1,242.52,261.7,242.39Z"/><path class="cls-9" d="M140.18,138.94a11.16,11.16,0,0,0-2.67,12.85c3.42,7.66,12.7,13.63,22.18,18.89,7.13,3.95,9.26,6.75,6.12,12.17-3.95,6.79-8.45,5.39-13.77,12.07-1.84,2.57-6.78,10.35-6.78,10.35l4.39,2.79s-.26-1.69,5.12-5.46c5.9-4.14,16.53-9.43,19.78-11.87s8.75-5.59,6.29-13.3-24.24-26.64-24.24-26.64Z"/><path class="cls-10" d="M205.36,196.21c22.12-23.74,6.52-51.91,6.52-51.91l3,.46s20.72,23.05.24,48.19Z"/><path class="cls-10" d="M213.51,145.93a4.19,4.19,0,1,1-4.19-4.19A4.2,4.2,0,0,1,213.51,145.93Z"/><path class="cls-11" d="M122,217.16a20,20,0,1,1-20-20A20,20,0,0,1,122,217.16Z"/><path class="cls-9" d="M122,217.16a20,20,0,1,1-20-20A20,20,0,0,1,122,217.16Z"/><path class="cls-8" d="M111.87,217.16a10.34,10.34,0,1,1-10.34-10.34A10.35,10.35,0,0,1,111.87,217.16Z"/><path class="cls-10" d="M152.28,167.7s-10.71,21.86,1.16,35.87,40.28,9.08,40.28,9.08l-.23,9.58L56.6,227.39s6-50.84,30.5-63.86S144.6,157.39,152.28,167.7Z"/><path class="cls-12" d="M140.64,195.05c-4-14.67-25.14-17-47.72-5.59s-35.16,34-35.16,34l1.07.15,68.45-2.44C138.2,215.55,143.64,206.17,140.64,195.05Z"/><g class="cls-13"><path class="cls-8" d="M65.5,191.3l-.34-.24a90.26,90.26,0,0,1,13.51-14.51c7.67-6.61,19.65-14.44,33.24-14.29,27.17.33,39,1.51,39.15,1.52l0,.41c-.12,0-12-1.19-39.11-1.52h-.43C85.92,162.67,65.7,191,65.5,191.3Z"/></g><path class="cls-14" d="M134.59,142a13.24,13.24,0,0,0-.47,14.43c4.66,7.69,19.09,9.32,25.61,14.67s9.7,7.33,7.51,13.79c-2.74,8.1-7.41,7.42-11.53,15.66-1.38,3.13-4.94,12.49-4.94,12.49l4.8,2.2s-.55-1.77,4.12-6.87c5.12-5.58,14.71-13.29,17.5-16.55s7.68-7.68,4-15.6S160,151.52,160,151.52Z"/><path class="cls-12" d="M242.46,165.6c0,5.85-2,10.59-4.42,10.59s-16.3-2.79-16.3-9.78S235.6,155,238,155,242.46,159.75,242.46,165.6Z"/><path class="cls-10" d="M242.46,165.6c0,5.85-2,10.59-4.42,10.59s-4.42-4.74-4.42-10.59S235.6,155,238,155,242.46,159.75,242.46,165.6Z"/><path class="cls-15" d="M184.17,108s14.44-8.84,8.38-17.69S177.66,81.44,173,93.08s-3.12,10.72-12,15.38S137.61,121,133,131.73s12.57,18.62,25.14,20c0,0,7.92-2.8,9.78-9.32S177.66,113.1,184.17,108Z"/><path class="cls-10" d="M167.62,104.39c-1.48-1.17-3.42,2.21-7,4.08-9,4.68-23.19,12.64-27.92,23.42s12.77,18.73,25.55,20.13c0,0,8-2.81,9.94-9.36,1.74-6,8.71-26,15-33.13C183.7,108.92,171,107.12,167.62,104.39Z"/><path class="cls-14" d="M169.68,101.86s7.83,7.83,14.32,6.6l-1.85,2.67s-11,1.53-17.78-4.71Z"/><path class="cls-16" d="M179.47,128.54c-1.1-7.55.81-11.6-4.33-14.59-4.12-2.4-5.88-2.2-8.44.24-3.43,3.26-1.07,16.05,2.61,24.79C172.48,132.14,178.8,128.48,179.47,128.54Z"/><path class="cls-11" d="M236.79,217.16a20,20,0,1,1-20-20A20,20,0,0,1,236.79,217.16Z"/><path class="cls-9" d="M236.79,217.16a20,20,0,1,1-20-20A20,20,0,0,1,236.79,217.16Z"/><path class="cls-8" d="M227.11,217.16a10.34,10.34,0,1,1-10.34-10.34A10.35,10.35,0,0,1,227.11,217.16Z"/><path class="cls-15" d="M167.73,113.3c-5.41,4.42,1.76,22.22,9.68,29.67s13.35,5.6,23.07,3.09c7.68-2,9.77-3.63,13-.83s1.86-4.19-2.56-6.29-8.15,1.87-16.3,2.8-9.7-4.34-12.07-10.69c-2.9-9.1-.14-14.83-6.41-18C172.05,111,170.29,111.2,167.73,113.3Z"/><path class="cls-10" d="M236.92,199.75a25.26,25.26,0,0,0-43.13,25.37c6.14.31,14.52-1.76,22.92-6.1C227.41,213.51,235.11,205.89,236.92,199.75Z"/><path class="cls-17" d="M228.08,198.8a6.17,6.17,0,1,1-6.17-6.17A6.18,6.18,0,0,1,228.08,198.8Z"/><path class="cls-17" d="M241.64,164.19c0,4.37-1.47,7.92-3.29,7.92s-3.3-3.55-3.3-7.92,1.48-7.93,3.3-7.93S241.64,159.81,241.64,164.19Z"/><path class="cls-17" d="M243.05,160.57c0,2.05-1.35,3.71-3,3.71s-3-1.66-3-3.71,1.35-3.7,3-3.7S243.05,158.53,243.05,160.57Z"/><path class="cls-17" d="M125.07,195.2a4.22,4.22,0,1,1-4.21-4.21A4.21,4.21,0,0,1,125.07,195.2Z"/><path class="cls-17" d="M128.67,190.15a1.74,1.74,0,1,1-1.74-1.74A1.74,1.74,0,0,1,128.67,190.15Z"/><path class="cls-17" d="M228.3,195.92a2.68,2.68,0,1,1-2.68-2.68A2.68,2.68,0,0,1,228.3,195.92Z"/><path class="cls-14" d="M169.68,101.86a90.91,90.91,0,0,1-20.43-6.68c-11.17-5.12-30-12.71-45.39-6.19,0,0,13,5.56,8.62,13.74-.58.67,10.23-4.29,21.18-.8s24.44,7.91,31.19,4.42Z"/><path class="cls-8" d="M153,207.35l-3.15,5.19s4.41,6,8.71,6.71-4.35-4.54-.58-8.41S153,207.35,153,207.35Z"/><path class="cls-12" d="M181.48,126.48c-1.1-6.5-.17-10.82-5.31-13.39-4.12-2.06-5.88-1.89-8.44.21-3.43,2.8-1.8,11,1.87,18.5C172.78,125.92,180.82,126.43,181.48,126.48Z"/><path class="cls-17" d="M112.2,208.59a.81.81,0,0,1-.88.72H76.92a.74.74,0,1,1,0-1.45h34.4a.82.82,0,0,1,.88.73Z"/><path class="cls-17" d="M194.77,219.3c0,.4-.59.72-1.31.72H142.05c-.73,0-1.31-.32-1.31-.72s.58-.72,1.31-.72h51.41c.72,0,1.31.32,1.31.72Z"/><path class="cls-17" d="M99.94,213.74a.72.72,0,0,1-.72.72H71A.72.72,0,1,1,71,213H99.22a.72.72,0,0,1,.72.72Z"/><path class="cls-18" d="M138.07,140.88a27.65,27.65,0,0,1-5.37-9c-.09.21-.17.4-.24.6a28.16,28.16,0,0,0,5.29,8.7c3.82,4.27,10.75,9.16,22.41,9.16.52,0,1,0,1.58,0l.75-.48C149.58,150.51,142.09,145.35,138.07,140.88Z"/><path class="cls-9" d="M112.23,118.87s-.42-.18-1.11-.55a25,25,0,0,1-2.78-1.7,20.82,20.82,0,0,1-1.73-1.36,11.61,11.61,0,0,1-1.75-1.86,7.16,7.16,0,0,1-.75-1.24,4.11,4.11,0,0,1-.4-1.62,3.18,3.18,0,0,1,.51-1.79,3.13,3.13,0,0,1,.56-.69,3.92,3.92,0,0,1,.31-.28l.17-.13.08-.06.09-.07.32-.19.15-.08.23-.1a2.82,2.82,0,0,1,.45-.18l.47-.1a3.11,3.11,0,0,1,1.88.35,4,4,0,0,1,1.24,1.09,7.07,7.07,0,0,1,.77,1.22,12.94,12.94,0,0,1,.91,2.36,18.71,18.71,0,0,1,.5,2.15,29,29,0,0,1,.41,3.22c0,.39,0,.7,0,.91v.33a.4.4,0,0,1-.39.41.33.33,0,0,1-.17,0Zm-.44-1.31a1,1,0,0,0,0-.14c-.19-.74-.46-1.79-.84-3-.19-.62-.42-1.27-.67-2a14.16,14.16,0,0,0-.95-2,5.26,5.26,0,0,0-.61-.88A2.5,2.5,0,0,0,108,109a1,1,0,0,0-.65-.12l-.18.05a.94.94,0,0,0-.15.06l-.08,0a.7.7,0,0,0-.14.08l-.28.17s-.1.06,0,0l-.07,0-.1.08a.9.9,0,0,0-.18.15,1.91,1.91,0,0,0-.27.32,1.13,1.13,0,0,0-.21.69,3.57,3.57,0,0,0,.69,1.8,12.78,12.78,0,0,0,1.4,1.7c.5.52,1,1,1.48,1.43,1,.86,1.81,1.55,2.4,2Z"/><path class="cls-9" d="M112.72,118.39s.11-.41.35-1.1a29.23,29.23,0,0,1,1.17-2.79c.28-.57.59-1.17,1-1.8a15.39,15.39,0,0,1,1.33-1.91,11.13,11.13,0,0,1,.88-1,5,5,0,0,1,1.16-.86,3.38,3.38,0,0,1,1.66-.48,2.87,2.87,0,0,1,1,.18,1.6,1.6,0,0,1,.44.2l.2.11.13.1.09.07.12.1.06,0,.1.11a2.44,2.44,0,0,1,.37.51,2.31,2.31,0,0,1,.21.55,2.91,2.91,0,0,1,.06.57,3.4,3.4,0,0,1-.58,1.67,6.45,6.45,0,0,1-.88,1.08,12.3,12.3,0,0,1-.93.86,17.93,17.93,0,0,1-1.85,1.37c-.6.4-1.19.75-1.74,1-1.09.62-2,1.06-2.69,1.36s-1.06.44-1.06.44a.42.42,0,0,1-.52-.25.39.39,0,0,1,0-.24Zm.17-.19.9-.66c.58-.42,1.39-1,2.36-1.76.48-.37,1-.77,1.52-1.2s1.07-.91,1.6-1.4a8.68,8.68,0,0,0,1.34-1.57,1.2,1.2,0,0,0,.22-.6s0,0,0-.06,0,0,0,0,0-.06,0-.06l-.12-.1-.06,0,0,0-.08,0a.23.23,0,0,0-.12-.06.59.59,0,0,0-.23,0,1.39,1.39,0,0,0-.65.19A6.23,6.23,0,0,0,118,112.1c-.47.52-.92,1.07-1.33,1.61s-.77,1.07-1.11,1.57c-.67,1-1.21,1.86-1.59,2.46s-.59,1-.59,1Z"/><rect class="cls-19" x="106.06" y="100.54" width="7.08" height="43.18" transform="translate(-16.13 227.59) rotate(-88.08)"/><rect class="cls-20" x="85.65" y="126.86" width="41.1" height="6.71"/><rect class="cls-19" x="88.71" y="134.53" width="41.1" height="6.7"/><rect class="cls-20" x="84.49" y="142.2" width="41.48" height="6.71"/><rect class="cls-19" x="89.1" y="149.88" width="41.1" height="6.7"/><polygon class="cls-3" points="82.16 124.7 82.16 127.23 65.71 125.71 82.16 124.7"/><polygon class="cls-3" points="76.94 137.32 76.94 139.57 62.37 138.22 76.94 137.32"/><polygon class="cls-3" points="80.55 131.82 80.55 134.35 55.68 132.83 80.55 131.82"/><path class="cls-9" d="M114.77,157.7a.76.76,0,0,1-.73-.54l-12.28-38.75a.77.77,0,0,1,.5-1,.76.76,0,0,1,1,.5L115.5,156.7a.77.77,0,0,1-.5,1A.66.66,0,0,1,114.77,157.7Z"/><path class="cls-9" d="M106.71,157.7h-.1a.78.78,0,0,1-.66-.87l5.37-38.75a.77.77,0,0,1,.87-.65.76.76,0,0,1,.65.86L107.47,157A.77.77,0,0,1,106.71,157.7Z"/><path class="cls-9" d="M106,120.5c-3.2,0-6.13-1.69-8.85-5.09-4.94-6.15-10-6-17.74-5a.77.77,0,0,1-.86-.67.77.77,0,0,1,.66-.86c8-1,13.71-1.21,19.14,5.55,3.91,4.88,8.1,5.76,13.19,2.76a.77.77,0,1,1,.78,1.32A12.55,12.55,0,0,1,106,120.5Z"/><path class="cls-14" d="M194,90.52s4.51.66,2.16,3.54-7-2.75-11.5-1.17S186.5,90,194,90.52Z"/><path class="cls-14" d="M178.91,99.7s-3,2.4-8.75,1.57l.21-3.92,7.83,2.07Z"/><path class="cls-10" d="M194,90.52c-.79.41-.58.45-2.44.41-3-.06-8.52.46-10.89,6.5-.34.85.26,1.86-1.32,2.68a9.35,9.35,0,0,1-4.38.47l-4.58-.55S160.5,86.4,174.9,80.24c9.77-4.17,16.48,3.25,18.47,7.5C194.31,89.76,194.78,90.11,194,90.52Z"/><path class="cls-8" d="M189.73,83.57c.76.77,1,1.75.56,2.19s-1.42.17-2.18-.6-1-1.75-.56-2.19S189,82.8,189.73,83.57Z"/><path class="cls-8" d="M184.68,89.05a12.2,12.2,0,0,0-5.9,7.18c-.64,2-4.77,2.58-9.78,1.48l.25.47a21.49,21.49,0,0,0,4.37.49c2.95,0,5.07-.81,5.56-2.32a11.64,11.64,0,0,1,5.7-6.94c2.6-1.46,6.63-1.6,8.53-1.57,0,0,0-.06,0-.1s-.11-.21-.16-.32C191.2,87.4,187.31,87.58,184.68,89.05Z"/><path class="cls-6" d="M121.86,226.42a20.38,20.38,0,0,1-8.35,9.51h-.07a20.08,20.08,0,0,1-19.2.46h-.06a20.25,20.25,0,0,1-8.54-8.6l11.8-.46,11.68-.43Z"/><path class="cls-6" d="M121.86,226.42a20.38,20.38,0,0,1-8.35,9.51h-.07a20.08,20.08,0,0,1-19.2.46h-.06a20.25,20.25,0,0,1-8.54-8.6l11.8-.46,11.68-.43Z"/><path class="cls-6" d="M109.12,226.9a10.34,10.34,0,0,1-11.68.43Z"/><path class="cls-6" d="M126.5,196.63a4.22,4.22,0,1,1-4.21-4.21A4.21,4.21,0,0,1,126.5,196.63Z"/><path class="cls-6" d="M130.1,191.57a1.74,1.74,0,1,1-1.74-1.73A1.73,1.73,0,0,1,130.1,191.57Z"/><path class="cls-6" d="M243.89,167c0,5.85-2,10.59-4.42,10.59h-.27c-2.31-.33-4.16-4.94-4.16-10.58s1.85-10.26,4.16-10.59h.27a3.23,3.23,0,0,1,2.53,1.92,15.41,15.41,0,0,1,1.75,6.07A24.33,24.33,0,0,1,243.89,167Z"/><path class="cls-6" d="M243.89,167c0,5.85-2,10.59-4.42,10.59h-.27c-2.31-.33-4.16-4.94-4.16-10.58s1.85-10.26,4.16-10.59h.27a3.23,3.23,0,0,1,2.53,1.92,15.41,15.41,0,0,1,1.75,6.07A24.33,24.33,0,0,1,243.89,167Z"/><path class="cls-6" d="M126.5,196.63a4.22,4.22,0,1,1-4.21-4.21A4.21,4.21,0,0,1,126.5,196.63Z"/><path class="cls-6" d="M130.1,191.57a1.74,1.74,0,1,1-1.74-1.73A1.73,1.73,0,0,1,130.1,191.57Z"/><path class="cls-21" d="M126.5,196.63a4.22,4.22,0,1,1-4.21-4.21A4.21,4.21,0,0,1,126.5,196.63Z"/><path class="cls-21" d="M130.1,191.57a1.74,1.74,0,1,1-1.74-1.73A1.73,1.73,0,0,1,130.1,191.57Z"/><path class="cls-6" d="M239.2,177.61c-2.31-.33-4.16-4.94-4.16-10.58s1.85-10.26,4.16-10.59c-2.35.21-10.74,2.89-14.36,7.26a41.78,41.78,0,0,0-8.13-17.06c-.08.78-.64,1-1.78,0-2.44-2.08-4.22-1.7-8.19-.53a3.88,3.88,0,0,0-.19,1.24,4.18,4.18,0,0,0,8.14,1.35c3,7.2,8.81,26.26-4,44.12a25.27,25.27,0,0,0-17.3,21.5c-5.24.65-21.36,2-32.48-4.36-.22.24-11.66-7.34-9.54-10.57-5.88-13.55,2.31-30.27,2.31-30.27a10.13,10.13,0,0,0-.88-1h0c-2.4-1-4.94-1.91-7.34-3l-1-.47a24.78,24.78,0,0,1-7-4.46A68.77,68.77,0,0,0,124.18,158q-3.6-.25-7.33-.15l-1.59.07c-.45,0-.89,0-1.33.08-1.67.11-3.36.28-5,.53h0l-1.41.21A60.71,60.71,0,0,0,88.53,165c-8.9,4.73-15.37,14.48-20,25h0c-1.26,1.56-2,2.52-2,2.55l.35.24s.35-.51,1-1.29C60.34,209.37,58,228.82,58,228.82l27.62-1,11.8-.46,11.68-.43,12.74-.48,72.38-2.73a26,26,0,0,0,1,2.86,28.26,28.26,0,0,0,4.53-.16,20.11,20.11,0,0,0,9.25,10h0a19.67,19.67,0,0,0,9.17,2.24,20,20,0,0,0,16.65-31.14,19.4,19.4,0,0,0,3.51-6.29,25.23,25.23,0,0,0-19.68-9.59,35.83,35.83,0,0,0,6.89-19.11C229.45,175.94,237,177.49,239.2,177.61ZM100.64,215.88H72.42a.72.72,0,1,1,0-1.44h28.22a.72.72,0,1,1,0,1.44Zm12.11-5.15H78.35a.73.73,0,1,1,0-1.44h34.4a.73.73,0,1,1,0,1.44Zm9.54-9.9a4.21,4.21,0,1,1,4.21-4.2A4.21,4.21,0,0,1,122.29,200.83Zm6.07-7.52a1.74,1.74,0,1,1,1.74-1.74A1.73,1.73,0,0,1,128.36,193.31Z"/><path class="cls-6" d="M183.31,112.59c-1.68.18-11.25.92-17.4-4.64a9.84,9.84,0,0,1-1.85.64c-7.21,1.81-19.13-2.09-29-5.23-11-3.5-21.76,1.47-21.18.8,4.36-8.19-8.62-13.75-8.62-13.75,15.36-6.51,34.22,1.07,45.39,6.2a94.27,94.27,0,0,0,20.24,6.66l.19,0s7.45,7.45,13.85,6.65C184.73,110.18,183.73,112,183.31,112.59Z"/><path class="cls-3" d="M220.36,99.78a1.63,1.63,0,1,1-1.64-1.63A1.64,1.64,0,0,1,220.36,99.78Z"/><path class="cls-6" d="M221.78,101.2a1.63,1.63,0,1,1-1.63-1.63A1.63,1.63,0,0,1,221.78,101.2Z"/><path class="cls-21" d="M113.63,210a.81.81,0,0,1-.88.72H78.35a.73.73,0,1,1,0-1.44h34.4A.82.82,0,0,1,113.63,210Z"/><path class="cls-21" d="M101.37,215.17a.72.72,0,0,1-.73.71H72.42a.72.72,0,1,1,0-1.44h28.22A.72.72,0,0,1,101.37,215.17Z"/><rect class="cls-6" x="85.15" y="135.61" width="45.8" height="5.83"/><rect class="cls-6" x="107.49" y="101.97" width="7.08" height="43.18" transform="translate(-16.1 230.49) rotate(-88.13)"/><rect class="cls-6" x="87.07" y="128.28" width="41.1" height="6.71"/><rect class="cls-6" x="85.92" y="143.63" width="41.48" height="6.71"/><rect class="cls-6" x="90.53" y="151.31" width="41.1" height="6.7"/><polygon class="cls-6" points="83.58 126.13 83.58 128.66 67.14 127.14 83.58 126.13"/><polygon class="cls-6" points="78.37 138.75 78.37 140.99 63.8 139.65 78.37 138.75"/><polygon class="cls-6" points="81.98 133.25 81.98 135.78 57.11 134.26 81.98 133.25"/><path class="cls-6" d="M189.73,83.57c.76.77,1,1.75.56,2.19s-1.42.17-2.18-.6-1-1.75-.56-2.19S189,82.8,189.73,83.57Z"/><path class="cls-6" d="M184.68,89.05a12.2,12.2,0,0,0-5.9,7.18c-.64,2-4.77,2.58-9.78,1.48l.25.47a21.49,21.49,0,0,0,4.37.49c2.95,0,5.07-.81,5.56-2.32a11.64,11.64,0,0,1,5.7-6.94c2.6-1.46,6.63-1.6,8.53-1.57,0,0,0-.06,0-.1s-.11-.21-.16-.32C191.2,87.4,187.31,87.58,184.68,89.05Z"/><path class="cls-6" d="M227.66,214.42h0a60.94,60.94,0,0,1-9.51,6,64.17,64.17,0,0,1-8.62,3.69h0a10.34,10.34,0,0,0,19.06-5.56A10.18,10.18,0,0,0,227.66,214.42Z"/></g></g></svg>