<svg xmlns="http://www.w3.org/2000/svg" viewBox="0 0 283.46 283.46"><defs><style>.cls-1{isolation:isolate;}.cls-2{fill:#fbd829;}.cls-3,.cls-4{fill:#ecb49f;}.cls-17,.cls-4{mix-blend-mode:multiply;}.cls-5{fill:#01015e;}.cls-6{fill:#10c6b6;}.cls-17,.cls-7{fill:#d0dcef;}.cls-8{fill:none;stroke:#01015e;stroke-miterlimit:10;stroke-width:0.5px;}.cls-12,.cls-9{fill:#fff;}.cls-9{opacity:0.4;}.cls-10{fill:#5fa469;}.cls-11{fill:#d43e3a;}.cls-13{fill:#e7a588;}.cls-14{fill:#de6264;}.cls-15{fill:#4f5a79;}.cls-16{fill:#c2c7ff;}.cls-18{fill:#ffd72d;}.cls-19{fill:#ffba32;}.cls-20{fill:#de626b;}.cls-21{fill:#ecefff;}.cls-22{fill:#ffa132;}</style></defs><title>Artboard 1 copy 2</title><g class="cls-1"><g id="Layer_1" data-name="Layer 1"><path class="cls-2" d="M130.29,269.29c-34.94,8.53-79,11.72-104.48-21.92C1.82,215.67,1,172,22.84,140.1c10.28-15,18.08-19.81,11.17-39.28C28.38,85,20.19,72.34,26,54.78,32.71,34.15,52.1,23,69.83,16.76,116.69.38,175.9,5.49,220.85,26.89c19.44,9.27,37.22,23,41.33,47.61,3.45,20.67-15,34.48-10.14,53.78,4.56,18,20.52,26.94,23.56,47,7.58,50.09-41.46,93.28-82.84,100.2C173,278.81,150,271.75,130.29,269.29Z"/><path class="cls-3" d="M158.15,103.69s1.1,25.52,4.06,30.43,15,8.32,25.44,14.11S165.09,176.58,133.27,172s-30.66-19.09-30.66-19.09L131.34,135s8.3-7.59,7.72-18S152.36,97.9,158.15,103.69Z"/><path class="cls-4" d="M158.31,118.64l-.38-9.1c-5.78-5.78-19.67,2.89-19.09,13.31a1.48,1.48,0,0,0,0,.21c1.93,3.24,4.4,5.43,7.55,5.57C152.59,128.91,156.17,124.67,158.31,118.64Z"/><path class="cls-3" d="M129.82,88.93s1.66,35.22,16.7,35.79,16.79-18.58,17.77-32.53c1.1-15.63-.22-20.37-17.77-21.27C129.6,70.06,129.82,88.93,129.82,88.93Z"/><path class="cls-5" d="M164.46,85.24l.31.11c4.2,1.56,5.52,7.52,3.34,11.36-.23.41-1.79,1.7-1.79,2,0,.87,1.69.78,1.47,2.17a4,4,0,0,1-4.94,2.8c-1.51-.57-1.19-2.33-1.41-3.69-.45-2.87-1.7-7.2-5.37-6.92-5.64.43-20,3-20,3s-1.32,4.46-1.51,4.84c-.81,1.62-1.67,2.75-3.42,3-1.24.18-3,.37-3.45-1.06s.18-2.21,1.24-3.18c-.92.85-1.83-1.8-1.83-2.26,0-1.33.94-2.73,1.45-3.91,1.5-3.45,4.12-4,7.47-5a94.47,94.47,0,0,1,11.23-2.79C152.57,84.73,159.26,83.46,164.46,85.24Z"/><path class="cls-6" d="M186.18,191.69c-.24-12.06-4.31-22.63.89-34.86,3.33-7.83,13.91-20.57,23.06-12.24-16.09-9.62,8.72-37.86,23.61-35.34,5.3,11.22,2.72,25.34-6.05,34.64,5.09-1.57,7.36-.47,9,4.4,1.92,5.68-2.18,10.78-4.19,12.32S225.58,166,222,169c5,1,10.46,4.28,8.32,10.67-1.65,4.93-8.11,5.83-11.88,8.54,3.69-.06,7.68-.54,11,.8,2,12.31-15.75,18.55-24.11,21.92-11.8,4.76-23.81,9.27-35.55,13.54Z"/><path class="cls-6" d="M91.49,185.75c-3.09-2.48-6.45-4.82-7.34-9.07-1.24-5.88,2.47-6.07,5.41-10.63C81.46,161.77,74,160.58,69,151.26c-4.89-9.17.7-15.06,10.1-13,1.29.28-6.87-7.1-8.26-8.36a25.3,25.3,0,0,1-6.61-10.86C62,112,63.69,102.88,72.8,102.92c7.9,0,10.93,8.84,13.6,15.06a47.22,47.22,0,0,1,3.08,9.42c4.28-3.06,6.21-9.06,11.71-4.33,3.83,3.31,4.46,11.16,2.26,15.43,6.19,0,9.67-1.31,14.46,3,3.1,2.78,6.08,7.48,8,11.58,4.37,9.32,10.45,43.27,11.16,54.26C137.07,207.34,98,191,91.49,185.75Z"/><path class="cls-7" d="M181.65,165.62c-2.07-10.48-.56-24.12,2.2-35,1.88-7.35,8-26.35,17.4-27.59,10.59-1.39,10.94,19.92,9.4,27-2.27,10.38-7.69,18.79-13.77,27.46-5.76,8.22-10.23,17.47-15.93,25.33Z"/><path class="cls-7" d="M107.55,95.87c-5.79-3.86-6.67,3.58-6.67,3.58S100,92,94.21,95.87s6.61,12.67,6.61,12.67h.11S113.33,99.73,107.55,95.87Z"/><polygon class="cls-7" points="156.11 39.02 153.37 37.69 150.73 39.19 151.14 36.18 148.9 34.13 151.89 33.59 153.15 30.83 154.58 33.51 157.6 33.85 155.5 36.04 156.11 39.02"/><polygon class="cls-7" points="167.25 39.02 164.51 37.69 161.87 39.19 162.29 36.18 160.04 34.13 163.03 33.59 164.29 30.83 165.72 33.51 168.75 33.85 166.64 36.04 167.25 39.02"/><polygon class="cls-7" points="178.39 39.02 175.66 37.69 173.01 39.19 173.43 36.18 171.18 34.13 174.18 33.59 175.43 30.83 176.87 33.51 179.89 33.85 177.78 36.04 178.39 39.02"/><polygon class="cls-7" points="189.53 39.02 186.8 37.69 184.16 39.19 184.57 36.18 182.32 34.13 185.32 33.59 186.57 30.83 188.01 33.51 191.03 33.85 188.92 36.04 189.53 39.02"/><polygon class="cls-7" points="201.12 39.02 198.38 37.69 195.74 39.19 196.15 36.18 193.9 34.13 196.9 33.59 198.16 30.83 199.59 33.51 202.61 33.85 200.5 36.04 201.12 39.02"/><path class="cls-7" d="M192.93,52.44a13.09,13.09,0,0,0-13.09,13.09c0,7.22,13.09,27,13.09,27S206,72.75,206,65.53A13.08,13.08,0,0,0,192.93,52.44Zm0,21.27a8.18,8.18,0,1,1,8.18-8.18A8.18,8.18,0,0,1,192.93,73.71Z"/><path class="cls-8" d="M187.69,193.2c-.24-12.06-4.31-22.63.89-34.86,3.33-7.83,13.92-20.57,23.07-12.24-16.09-9.62,8.71-37.85,23.6-35.33,5.3,11.21,2.72,25.34-6.05,34.64,5.1-1.58,7.36-.47,9,4.4,1.92,5.67-2.17,10.77-4.19,12.31s-6.92,5.38-10.48,8.34c5,1,10.46,4.28,8.32,10.67-1.64,4.93-8.11,5.83-11.88,8.55,3.7-.07,7.68-.55,11,.8,2,12.3-15.75,18.54-24.11,21.91-11.8,4.76-23.81,9.27-35.54,13.55Z"/><path class="cls-8" d="M93,187.27c-3.1-2.48-6.45-4.83-7.35-9.08-1.24-5.88,2.48-6.07,5.41-10.63-8.1-4.28-15.55-5.47-20.52-14.78s.7-15.06,10.11-13c1.29.28-6.88-7.09-8.27-8.35a25.49,25.49,0,0,1-6.61-10.87c-2.26-7.1-.58-16.18,8.53-16.13,7.9,0,10.94,8.84,13.6,15.06A45.77,45.77,0,0,1,91,128.92c4.29-3.06,6.22-9.07,11.71-4.33,3.83,3.3,4.46,11.15,2.26,15.43,6.2,0,9.67-1.32,14.46,3,3.1,2.78,6.08,7.48,8,11.58,4.37,9.33,10.46,43.27,11.17,54.27C138.59,208.86,99.49,192.46,93,187.27Z"/><path class="cls-8" d="M109.36,97.69c-5.79-3.86-6.67,3.58-6.67,3.58s-.88-7.44-6.67-3.58,6.61,12.67,6.61,12.67h.12S115.15,101.54,109.36,97.69Z"/><polygon class="cls-8" points="157.92 40.83 155.19 39.51 152.54 41.01 152.96 38 150.71 35.95 153.71 35.41 154.96 32.64 156.4 35.32 159.42 35.66 157.31 37.85 157.92 40.83"/><polygon class="cls-8" points="169.07 40.83 166.33 39.51 163.69 41.01 164.1 38 161.85 35.95 164.85 35.41 166.1 32.64 167.54 35.32 170.56 35.66 168.45 37.85 169.07 40.83"/><polygon class="cls-8" points="180.21 40.83 177.47 39.51 174.83 41.01 175.24 38 173 35.95 175.99 35.41 177.25 32.64 178.68 35.32 181.7 35.66 179.6 37.85 180.21 40.83"/><polygon class="cls-8" points="191.35 40.83 188.62 39.51 185.97 41.01 186.39 38 184.14 35.95 187.13 35.41 188.39 32.64 189.82 35.32 192.85 35.66 190.74 37.85 191.35 40.83"/><polygon class="cls-8" points="202.93 40.83 200.2 39.51 197.55 41.01 197.97 38 195.72 35.95 198.71 35.41 199.97 32.64 201.4 35.32 204.43 35.66 202.32 37.85 202.93 40.83"/><path class="cls-8" d="M195.4,54.91A13.08,13.08,0,0,0,182.32,68c0,7.23,13.08,27,13.08,27s13.09-19.76,13.09-27A13.09,13.09,0,0,0,195.4,54.91Zm0,21.27A8.18,8.18,0,1,1,203.58,68,8.18,8.18,0,0,1,195.4,76.18Z"/><path class="cls-9" d="M236.51,154.08a8.23,8.23,0,0,0,.37-1l-25.3,4.09L234,109.78c-.07-.17-.14-.35-.22-.53l-.45,0L221.4,134.4l-5.12-18.29c-.24.2-.48.4-.71.61l5.31,18.12-2.53,5.47-6-20.25c-.26.27-.52.54-.76.81l6.17,20.76-10.53,22.82L201,142.27l-.81.27,6.43,23.13-25.83,54.7,1.15-.43,8.35-17.69,0,.26,36.56-4.25c.24-.31.46-.62.68-.94l-37,4.3,6.33-13.41,27.06-3c.76-.34,1.52-.7,2.23-1.09l-28.87,3.16,3.08-6.52,30.37-3.65a7.26,7.26,0,0,0,0-.94L200.9,179.8l10.21-21.62Z"/><path class="cls-10" d="M133.27,204.81l-4.64-1.45a58.85,58.85,0,0,0-17.88-2.4c-2.65,0-5.34.1-7.94.2s-5.34.19-8,.19a69.53,69.53,0,0,1-12.06-.92l-1.1-.19c-4.54-.75-13-2.15-14.87-6.72-.82-2,.72-6,2.58-8.8a9,9,0,0,1,3.08-3.07,53.47,53.47,0,0,1-21.19-27.13l-.21-.65c-1.54-4.58-2.65-7.88.59-12.89,1.82-2.81,3.63-4.18,5.54-4.18,2.54,0,4.81,2.39,7.21,4.92.75.8,1.54,1.62,2.34,2.39,2.58,2.45,5.08,5.06,7.5,7.59s5.18,5.42,7.9,8c4.63,4.35,9.17,9.11,13.56,13.72,10.17,10.66,20.69,21.68,33.42,29Zm-22.52-4.92a63.63,63.63,0,0,1,14.55,1.47c-11.43-7.31-21.08-17.42-30.43-27.23-4.38-4.59-8.92-9.34-13.52-13.67-2.74-2.59-5.39-5.35-7.94-8-2.41-2.52-4.9-5.12-7.46-7.56-.83-.78-1.62-1.62-2.39-2.42-2.23-2.36-4.35-4.59-6.43-4.59-1.52,0-3,1.21-4.65,3.69-3,4.58-2,7.36-.47,12l.22.65a52.61,52.61,0,0,0,22.18,27.5l-.56.9c-.81-.5-2.25.66-3.65,2.74-1.9,2.85-3,6.41-2.47,7.79,1.65,4,9.72,5.36,14,6.08l1.12.18a67.19,67.19,0,0,0,11.87.92c2.68,0,5.39-.1,8-.2S108.08,199.89,110.75,199.89Z"/><path class="cls-9" d="M99.32,158.58l.7.08.1-.85-1.33-.16-4.38-7.52V150h-.11l-1.62-2.79,6.51-25.44a5,5,0,0,0-.8-.3L92,145.9l-9.17-15.74,3.33-12.86L85.56,116l-3.42,13-2.69-4.62,3.31-14.36c-.19-.35-.4-.7-.61-1l-3.62,13.81L67.68,104.22a6.8,6.8,0,0,0-.71.48l7,12-.17-.15-10.3-1.23c0,.29.07.58.11.87l10.84,1.34,18.82,32.33-25.85-3.1c0,.29.12.58.19.88l26.2,3.15,3.93,6.76L71,154.31c.25.34.5.65.76,1l26.54,3.18,25,43,1.33.58Z"/><path class="cls-11" d="M129,91.72s-4-23.42,20-22.31c22.65,1,15.67,22.12,15.67,22.12S139.62,95,129,91.72Z"/><path class="cls-12" d="M150.35,87.41a2.89,2.89,0,1,1-2.89-2.89A2.89,2.89,0,0,1,150.35,87.41Z"/><path class="cls-5" d="M146.52,110s-7.81-3.9-14.32-.87c0,0-2.6,22.13,14.32,22.13,19.53,0,15.19-22.56,15.19-22.56A20.88,20.88,0,0,0,146.52,110Z"/><path class="cls-12" d="M138.87,112.27s7.27,4.29,14.85-.21C153.72,112.06,146.64,127,138.87,112.27Z"/><path class="cls-13" d="M205.09,199.2l4.6,16.74s5.57,8.2,3.28,14.76-10.17,14.44-21.33,8.21l.33-17.72a6.49,6.49,0,0,0,2.62-.66c1.32-.65-3.61-5.58-8.86-14.76S202.8,197.24,205.09,199.2Z"/><path class="cls-3" d="M209.58,215.48c-7.56-2.81-14,5.09-14.36,5.29a6.29,6.29,0,0,1-2.54.64l-.31,17.13c10.78,6,18.4-1.59,20.62-7.93s-3.18-14.28-3.18-14.28Z"/><path class="cls-14" d="M129,91.72s-10.86,6.38,5.41,6.1c25.17-.43,30.26-6.29,30.26-6.29S136.12,93.64,129,91.72Z"/><path class="cls-13" d="M88.57,199.78,84,216.52s-5.57,8.2-3.28,14.76,10.17,14.44,21.33,8.21l-.33-17.72a6.49,6.49,0,0,1-2.62-.66c-1.32-.65,3.61-5.58,8.86-14.76S90.86,197.81,88.57,199.78Z"/><path class="cls-3" d="M84.22,215.64c8.07-2.62,14.43,5.26,14.85,5.47a6.49,6.49,0,0,0,2.62.66l.33,17.72c-11.16,6.23-19-1.64-21.33-8.21S84,216.52,84,216.52Z"/><path class="cls-11" d="M190,149.66l-19.18-9.75a15.53,15.53,0,0,0-1.84,1.45,49.27,49.27,0,0,1-13,4.84c-17.07,3.05-30.47-6.17-31.62-6.94l-20.73,11s-15.42,18-17.72,48.89a37.76,37.76,0,0,0,22.64,9.19s3.29-5.58,4.6-5.26c.66.17.82,7.19.82,14.27l.12-10.86c.94,18.13,1.64,33.52,1.64,33.52l33.55-.29,28.6-.29s.69-15.39,1.63-33.52l.12,10.86c0-7.08.17-14.1.82-14.26,1.32-.33,4.6,5.25,4.6,5.25a37.76,37.76,0,0,0,22.64-9.19C205.42,167.71,190,149.66,190,149.66Z"/><path class="cls-9" d="M147.39,195s-13-4.34-4.77-15.18,3-23.87,3-23.87,10,4.78,7.81,13.45S142.62,190.24,147.39,195Z"/><path class="cls-9" d="M133.37,195.52s-9.78-6-2.39-14.58,1.79-16.33,1.79-16.33,5.76,5.07,6,11.16S129.61,192.86,133.37,195.52Z"/><path class="cls-9" d="M159.54,196.31s-8.25-8.24-2.17-14.32,1.73-8.24,1.73-8.24,4.78,2.6,3,8.68S158.24,193.28,159.54,196.31Z"/><path class="cls-12" d="M118.55,142.36l-.9.47c3,1.82,16.42,9.3,31.34,9.3A36.11,36.11,0,0,0,174.81,142l0,0-.77-.39C153.39,161,124.44,145.79,118.55,142.36Z"/><ellipse class="cls-7" cx="96.74" cy="51.09" rx="28.65" ry="27.18"/><path class="cls-12" d="M123.12,51.29A23.77,23.77,0,1,1,99.35,27.52,23.77,23.77,0,0,1,123.12,51.29Z"/><polygon class="cls-5" points="99.46 49.42 112.01 36.88 100.3 54.86 99.46 49.42"/><polygon class="cls-5" points="99.46 49.42 89.42 45.24 100.3 54.86 101.97 52.35 99.46 49.42"/><path class="cls-15" d="M100.88,33.11a1.53,1.53,0,1,1-1.53-1.53A1.53,1.53,0,0,1,100.88,33.11Z"/><path class="cls-15" d="M100.88,68.8a1.53,1.53,0,1,1-1.53-1.53A1.53,1.53,0,0,1,100.88,68.8Z"/><path class="cls-15" d="M117.19,52.49A1.53,1.53,0,1,1,118.72,51,1.54,1.54,0,0,1,117.19,52.49Z"/><path class="cls-15" d="M81.5,52.49A1.53,1.53,0,1,1,83,51,1.54,1.54,0,0,1,81.5,52.49Z"/><polygon class="cls-7" points="66.29 38.05 66.29 43.83 21.85 40.36 66.29 38.05"/><polygon class="cls-7" points="55.09 47.8 55.09 53.58 10.65 50.11 55.09 47.8"/><path class="cls-7" d="M256.37,178.77a.91.91,0,1,1-1.79,0v-3.56a.91.91,0,1,1,1.79,0Z"/><path class="cls-7" d="M256.37,164.78a.91.91,0,1,1-1.79,0v-3.56a.91.91,0,1,1,1.79,0Z"/><path class="cls-7" d="M263.52,173.61a.91.91,0,1,1-.89,1.55l-3.09-1.79a.91.91,0,1,1,.89-1.54Z"/><path class="cls-7" d="M251.41,166.62a.91.91,0,1,1-.89,1.54l-3.09-1.78a.91.91,0,1,1,.89-1.55Z"/><path class="cls-7" d="M262.63,164.83a.91.91,0,1,1,.89,1.55l-3.09,1.78a.91.91,0,1,1-.89-1.54Z"/><path class="cls-7" d="M250.52,171.83a.91.91,0,1,1,.89,1.54l-3.09,1.79a.91.91,0,1,1-.89-1.55Z"/><path class="cls-7" d="M35.87,191.25A8.21,8.21,0,0,1,34,191a8.56,8.56,0,0,1,3.8-16.7.65.65,0,0,1-.28,1.26,7.25,7.25,0,1,0,5.41,5.19.63.63,0,0,1,.45-.78.64.64,0,0,1,.79.45,8.57,8.57,0,0,1-8.27,10.8Z"/><path class="cls-7" d="M35.77,184.53a.63.63,0,0,1-.43-.17l-4.67-4.23a.64.64,0,1,1,.86-.95L35.72,183l10.6-11.83a.64.64,0,0,1,1,.86l-11,12.31a.63.63,0,0,1-.44.22Z"/><path class="cls-14" d="M243.14,192a6,6,0,0,0-5.95,5.95c0,3.28,5.95,12.26,5.95,12.26s5.94-9,5.94-12.26A5.94,5.94,0,0,0,243.14,192Zm0,9.66a3.72,3.72,0,1,1,3.71-3.71A3.71,3.71,0,0,1,243.14,201.68Z"/><ellipse class="cls-8" cx="98.49" cy="52.85" rx="28.65" ry="27.18"/><path class="cls-8" d="M124.87,53A23.77,23.77,0,1,1,101.1,29.27,23.77,23.77,0,0,1,124.87,53Z"/><path class="cls-8" d="M146.23,101.1s-2.18,3.54-1.66,4.41,2.52.63,2.52.63"/><path class="cls-5" d="M48.09,172.22a.64.64,0,0,1,.43.16.65.65,0,0,1,0,.91l-11,12.31a.63.63,0,0,1-.44.22h0a.63.63,0,0,1-.43-.17L32,181.43a.66.66,0,0,1-.05-.91.67.67,0,0,1,.48-.22.63.63,0,0,1,.43.17L37,184.26l10.6-11.83a.64.64,0,0,1,.48-.21m-10.93,3.19a8.78,8.78,0,0,1,1.9.21.64.64,0,0,1-.14,1.27h-.14a6.89,6.89,0,0,0-1.62-.19,7.28,7.28,0,0,0-1.62,14.38,7.59,7.59,0,0,0,1.62.18,7.28,7.28,0,0,0,7.09-5.66,7.19,7.19,0,0,0-.06-3.51.63.63,0,0,1,.45-.79.51.51,0,0,1,.17,0,.65.65,0,0,1,.62.48,8.57,8.57,0,0,1-8.27,10.8,8.27,8.27,0,0,1-1.9-.22,8.56,8.56,0,0,1,1.9-16.91m10.93-3.69a1.13,1.13,0,0,0-.85.38L37,183.55l-3.82-3.45a1.14,1.14,0,0,0-.77-.3,1.19,1.19,0,0,0-.81.34,6.85,6.85,0,0,1,5.58-2.95,7,7,0,0,1,1.51.17,1.07,1.07,0,0,0,.25,0A1.14,1.14,0,0,0,40,176.5a1.19,1.19,0,0,0-.15-.86,1.14,1.14,0,0,0-.72-.51,9.08,9.08,0,1,0,6.74,6.48,1.14,1.14,0,0,0-1.1-.85,1.54,1.54,0,0,0-.3,0,1.1,1.1,0,0,0-.69.54,1.06,1.06,0,0,0-.11.87,7,7,0,0,1,.06,3.27,6.78,6.78,0,0,1-13.22-3,6.72,6.72,0,0,1,.77-1.92,1,1,0,0,0-.07.46,1.15,1.15,0,0,0,.37.79L36.29,186a1.18,1.18,0,0,0,.77.3h0a1.19,1.19,0,0,0,.8-.38l11-12.32a1.08,1.08,0,0,0,.29-.82,1.14,1.14,0,0,0-1.14-1.08Z"/><path class="cls-8" d="M150.35,87.41a2.89,2.89,0,1,1-2.89-2.89A2.89,2.89,0,0,1,150.35,87.41Z"/><path class="cls-8" d="M244.65,193.53a6,6,0,0,0-6,5.95c0,3.28,6,12.26,6,12.26s5.95-9,5.95-12.26A6,6,0,0,0,244.65,193.53Zm0,9.67a3.72,3.72,0,1,1,3.72-3.72A3.73,3.73,0,0,1,244.65,203.2Z"/><path class="cls-8" d="M130.47,93.23s-10.86,6.39,5.42,6.11c25.16-.44,30.25-6.3,30.25-6.3S137.63,95.16,130.47,93.23Z"/><path class="cls-5" d="M67.8,39.56v5.78L23.36,41.87,67.8,39.56m.5-.53-.52,0L23.33,41.37v1l44.44,3.47.54,0V39Z"/><path class="cls-5" d="M56.6,49.32V55.1L12.16,51.63,56.6,49.32m.5-.53-.52,0L12.13,51.13v1l44.44,3.46.54,0V48.79Z"/><path class="cls-8" d="M148.9,196.52s-13-4.33-4.77-15.18,3-23.86,3-23.86,10,4.77,7.81,13.45S144.13,191.75,148.9,196.52Z"/><path class="cls-8" d="M134.89,197s-9.79-6-2.39-14.58,1.78-16.32,1.78-16.32,5.77,5.07,6,11.15S131.12,194.37,134.89,197Z"/><path class="cls-8" d="M161.05,197.83s-8.24-8.25-2.17-14.32,1.74-8.25,1.74-8.25,4.77,2.61,3,8.68S159.75,194.79,161.05,197.83Z"/><polygon class="cls-16" points="192.37 250.91 99.23 251.54 108.48 201.52 184.27 201.52 192.37 250.91"/><polygon class="cls-12" points="189.16 250.32 102.43 250.88 111.05 206.6 181.62 206.6 189.16 250.32"/><path class="cls-17" d="M183.72,233c0,14.51-16.37,26.26-36.56,26.26S110.6,247.49,110.6,233s16.37-26.25,36.56-26.25S183.72,218.48,183.72,233Z"/><path class="cls-18" d="M179.79,231.41c0,13.78-15.15,24.94-33.84,24.94s-33.84-11.16-33.84-24.94,15.15-24.93,33.84-24.93S179.79,217.64,179.79,231.41Z"/><path class="cls-19" d="M174.63,231.41c0,11.68-12.84,21.14-28.68,21.14s-28.69-9.46-28.69-21.14,12.85-21.13,28.69-21.13S174.63,219.74,174.63,231.41Z"/><path class="cls-9" d="M173,231.41c0,11-12.12,20-27.07,20s-27.07-8.93-27.07-20S131,211.46,146,211.46,173,220.4,173,231.41Z"/><path class="cls-8" d="M174.53,232.93c0,11-12.12,19.94-27.07,19.94s-27.07-8.93-27.07-19.94,12.12-20,27.07-20S174.53,221.91,174.53,232.93Z"/><path class="cls-20" d="M144.34,219.78c0,1.83-2,3.32-4.52,3.32s-4.51-1.49-4.51-3.32,2-3.33,4.51-3.33S144.34,217.94,144.34,219.78Z"/><path class="cls-20" d="M168.83,232.84c0,1.83-2,3.32-4.51,3.32s-4.51-1.49-4.51-3.32,2-3.33,4.51-3.33S168.83,231,168.83,232.84Z"/><path class="cls-20" d="M142.73,241.63c0,1.83-2,3.32-4.52,3.32s-4.51-1.49-4.51-3.32,2-3.33,4.51-3.33S142.73,239.79,142.73,241.63Z"/><path class="cls-20" d="M129.83,231.18c0,1.83-2,3.32-4.51,3.32s-4.51-1.49-4.51-3.32,2-3.33,4.51-3.33S129.83,229.34,129.83,231.18Z"/><path class="cls-20" d="M162.71,218.59c0,1.84-2,3.32-4.51,3.32s-4.52-1.48-4.52-3.32,2-3.32,4.52-3.32S162.71,216.75,162.71,218.59Z"/><path class="cls-20" d="M158.84,245.9c0,1.84-2,3.33-4.51,3.33s-4.51-1.49-4.51-3.33,2-3.32,4.51-3.32S158.84,244.06,158.84,245.9Z"/><path class="cls-5" d="M145,236.4c0,.66-.72,1.19-1.61,1.19s-1.61-.53-1.61-1.19.72-1.19,1.61-1.19S145,235.75,145,236.4Z"/><path class="cls-5" d="M137.57,234c0,.65-.72,1.18-1.61,1.18s-1.61-.53-1.61-1.18.72-1.19,1.61-1.19S137.57,233.37,137.57,234Z"/><path class="cls-5" d="M156.58,226c0,.66-.72,1.19-1.61,1.19s-1.61-.53-1.61-1.19.72-1.19,1.61-1.19S156.58,225.3,156.58,226Z"/><path class="cls-5" d="M132.09,221.91c0,.66-.72,1.19-1.61,1.19s-1.61-.53-1.61-1.19.72-1.18,1.61-1.18S132.09,221.26,132.09,221.91Z"/><path class="cls-5" d="M161.42,239c0,.66-.72,1.19-1.61,1.19s-1.61-.53-1.61-1.19.72-1.18,1.61-1.18S161.42,238.36,161.42,239Z"/><path class="cls-5" d="M143.69,248.51c0,.66-.72,1.19-1.61,1.19s-1.61-.53-1.61-1.19.72-1.19,1.61-1.19S143.69,247.86,143.69,248.51Z"/><path class="cls-5" d="M130.16,241.86c0,.66-.73,1.19-1.61,1.19s-1.62-.53-1.62-1.19.73-1.18,1.62-1.18S130.16,241.21,130.16,241.86Z"/><path class="cls-20" d="M152.07,231.89c0,1.05-1.15,1.9-2.58,1.9s-2.57-.85-2.57-1.9,1.15-1.9,2.57-1.9S152.07,230.84,152.07,231.89Z"/><path class="cls-20" d="M150.46,214.43c0,.86-.94,1.55-2.09,1.55s-2.1-.69-2.1-1.55.94-1.54,2.1-1.54S150.46,213.58,150.46,214.43Z"/><path class="cls-20" d="M137.89,230.58c0,.59-.65,1.07-1.45,1.07s-1.45-.48-1.45-1.07.65-1.07,1.45-1.07S137.89,230,137.89,230.58Z"/><path class="cls-20" d="M165.29,241c0,.46-.51.83-1.13.83S163,241.49,163,241s.51-.83,1.13-.83S165.29,240.57,165.29,241Z"/><path class="cls-20" d="M166.9,225.83c0,.72-.8,1.31-1.78,1.31s-1.77-.59-1.77-1.31.8-1.3,1.77-1.3S166.9,225.11,166.9,225.83Z"/><path class="cls-10" d="M145.63,226.43s-4.51-6.89,4.83-8.32C150.46,218.11,155.62,223.1,145.63,226.43Z"/><path class="cls-10" d="M149.17,235.93s5.16-2.38,7.09,3.32C156.26,239.25,152.07,241.15,149.17,235.93Z"/><path class="cls-10" d="M132.26,226.46s-1-3.79-6.83-1A5.51,5.51,0,0,0,132.26,226.46Z"/><path class="cls-21" d="M151,233.21a5.09,5.09,0,0,0,5.5-.32c1.59-1.17,1.77-3,.42-4a.39.39,0,0,0-.1-.08,1.66,1.66,0,0,0-1.86,0,.8.8,0,0,0,0,1.37l-.13.09c-.77-.12-1.66-.63-1.55-2.29,0,0-.25-.34-2.06,1s-1.45,1.6-1.45,1.6c2.26-.09,2.94.57,3.11,1.14l-.13.1a1.64,1.64,0,0,0-1.85,0,.8.8,0,0,0,0,1.36Z"/><path class="cls-21" d="M164.85,224.54c1-1.28.3-3-1.61-3.89s-4.32-.62-5.45.59l-.09.08a.83.83,0,0,0,.41,1.34,1.62,1.62,0,0,0,1.81-.3l.16.07c0,.59-.47,1.34-2.71,1.62,0,0-.38.25,1.78,1.26s2.42.7,2.42.7c-.61-1.61.12-2.24.83-2.49l.16.07a.83.83,0,0,0,.41,1.34,1.62,1.62,0,0,0,1.81-.3Z"/><path class="cls-21" d="M125.88,235.89c-.72,1.37.34,3,2.41,3.65s4.39.12,5.26-1.2l.07-.09c.28-.5,0-1.07-.69-1.28a1.52,1.52,0,0,0-1.72.51l-.17-.06c-.13-.58.17-1.37,2.32-1.91,0,0,.33-.29-2-1s-2.54-.41-2.54-.41c.95,1.52.36,2.23-.29,2.55l-.17-.05c.29-.49,0-1.06-.69-1.27a1.5,1.5,0,0,0-1.72.5A.47.47,0,0,0,125.88,235.89Z"/><path class="cls-21" d="M133.21,223.89c-.71,1.37.34,3,2.41,3.65s4.39.12,5.26-1.2l.07-.09c.29-.49,0-1.06-.69-1.28a1.54,1.54,0,0,0-1.73.51l-.16-.06c-.13-.58.18-1.37,2.33-1.91,0,0,.32-.29-2-1s-2.55-.41-2.55-.41c1,1.52.37,2.23-.29,2.56l-.17-.06c.29-.49,0-1.06-.68-1.27a1.53,1.53,0,0,0-1.73.5Z"/><path class="cls-21" d="M144.17,239.8c-.72,1.37.33,3,2.41,3.65s4.39.12,5.26-1.2l.06-.09c.29-.49,0-1.06-.68-1.28a1.54,1.54,0,0,0-1.73.51l-.17-.06c-.12-.57.18-1.37,2.33-1.9,0,0,.33-.3-2-1.05s-2.54-.41-2.54-.41c.94,1.52.36,2.23-.3,2.56l-.16-.06c.29-.49,0-1.06-.69-1.27a1.51,1.51,0,0,0-1.72.5Z"/><path class="cls-22" d="M144.06,232.68a3.43,3.43,0,0,1-1.53-.3l-.6-.29.41-.52a8.26,8.26,0,0,1,1.57-1.3c.73-.52,2.43-1.74,2.22-2.19-.33-.67-2-.2-3.22.14a11.37,11.37,0,0,1-1.74.4l-.11-1.06a10.56,10.56,0,0,0,1.56-.37c1.67-.47,3.75-1.05,4.47.43.6,1.25-1.08,2.46-2.56,3.52l-.65.47a6.54,6.54,0,0,0,.75,0l.06,1.07Z"/><path class="cls-22" d="M164.77,239l0-.77a2.34,2.34,0,0,0-.54-1.93c-.57-.55-1.73-.74-3.44-.57l-.11-1.06c2.09-.21,3.46.06,4.29.86a2.93,2.93,0,0,1,.86,2l.9-.2c.44-.09.88-.19,1.27-.3l.29,1c-.41.12-.87.22-1.34.32s-1.06.22-1.49.36Z"/><path class="cls-22" d="M143,248.46l-.06-.64c0-.32,0-.65,0-1a5.72,5.72,0,0,0-.15-1.53,4.34,4.34,0,0,0-.8.15l-.3-1a6.78,6.78,0,0,1,1.41-.23l.36,0,.16.33a5.17,5.17,0,0,1,.39,2.32V247a6.33,6.33,0,0,0,1.21-.9,10,10,0,0,1,1.15-.92l.3-.2.3.21a5.5,5.5,0,0,1,1.47,1.41l-1,.48a3.72,3.72,0,0,0-.83-.8,9.13,9.13,0,0,0-.73.62,5.44,5.44,0,0,1-2.28,1.37Z"/><path class="cls-22" d="M133.2,217.66l-.93-.52a6.73,6.73,0,0,1,1-1.23c.15-.16.3-.31.43-.47l.23-.28.35.12a4,4,0,0,0,.8.11,6.63,6.63,0,0,1,1.06.16c.62-.78,1.39-1.69,2.35-2.78l.8.71c-1.07,1.21-1.91,2.21-2.55,3l-.27.35-.4-.2a3.06,3.06,0,0,0-1.09-.21c-.23,0-.46,0-.68-.08l-.25.26A5.73,5.73,0,0,0,133.2,217.66Z"/><path class="cls-22" d="M122.36,228.08l-.52-.93a2,2,0,0,0,.58-.42c-.73-.08-1.74-.33-1.81-1.21-.11-1.36,2.47-2.71,3.64-2.94l.21,1c-1.19.23-2.78,1.41-2.79,1.8a2.51,2.51,0,0,0,1.36.27h.41l.1.4C123.82,227.28,122.76,227.86,122.36,228.08Z"/><path class="cls-22" d="M132.88,247.05a4.64,4.64,0,0,0-1.15-1.46l-.17.11a2.71,2.71,0,0,0-1,.89l-.15.28h-.32A3.94,3.94,0,0,1,127,245l-.12-.15.83-.67.12.15a3.11,3.11,0,0,0,2,1.49,4.26,4.26,0,0,1,1.16-1l.48-.32.32-.24.32.25a6.26,6.26,0,0,1,1.77,2.15Z"/><path class="cls-22" d="M171.07,230.76a11.83,11.83,0,0,1-3-.53l-.31-.09-.07-.31a3,3,0,0,1,0-1.36l.07-.29.29-.08a2.36,2.36,0,0,0,1.78-1.73l-.54-.2c-.64-.24-1.29-.48-1.92-.65l.29-1c.67.18,1.35.44,2,.68l.87.32.31.11,0,.32a3,3,0,0,1-2.2,3.08,1.5,1.5,0,0,0,0,.3,9.79,9.79,0,0,0,2.39.39Z"/><path class="cls-8" d="M152.56,234.72a5.09,5.09,0,0,0,5.49-.31c1.6-1.18,1.77-3,.42-4l-.09-.08a1.66,1.66,0,0,0-1.86,0,.8.8,0,0,0,0,1.37l-.13.1c-.78-.13-1.67-.63-1.55-2.3,0,0-.25-.33-2.06,1s-1.46,1.59-1.46,1.59c2.27-.09,3,.57,3.12,1.14l-.13.1a1.66,1.66,0,0,0-1.86,0,.8.8,0,0,0,0,1.37Z"/><path class="cls-8" d="M166.36,226.05c1-1.27.3-3-1.61-3.88s-4.31-.63-5.45.58l-.08.09a.83.83,0,0,0,.4,1.33,1.6,1.6,0,0,0,1.81-.3l.16.07c0,.59-.47,1.34-2.7,1.62,0,0-.39.26,1.77,1.26s2.42.7,2.42.7c-.61-1.61.12-2.24.84-2.49l.15.07a.84.84,0,0,0,.41,1.34,1.61,1.61,0,0,0,1.81-.3Z"/><path class="cls-8" d="M127.39,237.4c-.71,1.38.34,3,2.41,3.65s4.39.12,5.26-1.2l.07-.09c.29-.49,0-1.06-.69-1.27a1.5,1.5,0,0,0-1.72.5l-.17-.06c-.13-.57.18-1.37,2.33-1.9,0,0,.33-.3-2-1.05s-2.54-.41-2.54-.41c.94,1.52.36,2.23-.3,2.56l-.17-.06c.29-.49,0-1.06-.68-1.27a1.53,1.53,0,0,0-1.73.5Z"/><path class="cls-8" d="M134.72,225.4c-.71,1.38.34,3,2.41,3.65s4.39.13,5.27-1.2l.06-.09c.29-.49,0-1.06-.68-1.27a1.51,1.51,0,0,0-1.73.5l-.17-.05c-.13-.58.18-1.38,2.33-1.91,0,0,.33-.3-2-1.05s-2.54-.41-2.54-.41c.94,1.52.36,2.23-.3,2.56l-.17-.06c.29-.49,0-1.06-.68-1.27a1.53,1.53,0,0,0-1.73.5A.93.93,0,0,1,134.72,225.4Z"/><path class="cls-8" d="M145.68,241.32c-.71,1.37.34,3,2.41,3.64s4.39.13,5.26-1.19l.07-.1c.29-.49,0-1.06-.69-1.27a1.5,1.5,0,0,0-1.72.5l-.17-.05c-.13-.58.18-1.38,2.33-1.91,0,0,.32-.3-2-1s-2.55-.42-2.55-.42c1,1.52.37,2.23-.29,2.56l-.17,0c.29-.49,0-1.06-.68-1.28a1.53,1.53,0,0,0-1.73.51A.31.31,0,0,0,145.68,241.32Z"/><polygon class="cls-16" points="99.23 251.09 98.94 260.06 193.23 260.64 192.37 250.51 99.23 251.09"/><polygon class="cls-8" points="193.88 252.43 100.74 253.06 110 203.03 185.78 203.03 193.88 252.43"/><polygon class="cls-8" points="100.74 252.6 100.45 261.57 194.75 262.15 193.88 252.03 100.74 252.6"/><path class="cls-13" d="M94.37,227.54c.43-5.1,13-10.69,13-10.69,3.47,2-1.16,3.76-1.45,6.65s.58,2.9.58,2.9c2,3-1.74,4.91-1.74,4.91,2.18,4.05-1.44,5.21-1.44,5.21,1.74,4.42-.25,4.54-1.1,4.41.19,1.21.34,3.11-.64,3.4-1.39.42-4.81-5.59-4.9-6C96.13,236.48,94,232.34,94.37,227.54Z"/><path class="cls-13" d="M198.28,226.12c-.43-5.1-12-9.85-12-9.85-3.47,2,1.16,3.76,1.45,6.65s-.58,2.9-.58,2.9c-2,3,1.74,4.91,1.74,4.91-2.17,4.05,1.44,5.21,1.44,5.21-1.74,4.42.26,4.54,1.1,4.41-.19,1.21-.33,3.11.64,3.4,1.39.42,4.34-4.2,4.42-4.64C197.05,237.28,198.68,230.91,198.28,226.12Z"/></g></g></svg>