<svg id="light" enable-background="new 0 0 24 24" height="512" viewBox="0 0 24 24" width="512" xmlns="http://www.w3.org/2000/svg"><g><path d="m12 24c-6.617 0-12-5.383-12-12s5.383-12 12-12 12 5.383 12 12-5.383 12-12 12zm0-23c-6.065 0-11 4.935-11 11s4.935 11 11 11 11-4.935 11-11-4.935-11-11-11z"/></g><g><path d="m9.5 10c-.276 0-.5-.224-.5-.5 0-.827-.673-1.5-1.5-1.5s-1.5.673-1.5 1.5c0 .276-.224.5-.5.5s-.5-.224-.5-.5c0-1.378 1.122-2.5 2.5-2.5s2.5 1.122 2.5 2.5c0 .276-.224.5-.5.5z"/></g><g><path d="m18.5 10c-.276 0-.5-.224-.5-.5 0-.827-.673-1.5-1.5-1.5s-1.5.673-1.5 1.5c0 .276-.224.5-.5.5s-.5-.224-.5-.5c0-1.378 1.122-2.5 2.5-2.5s2.5 1.122 2.5 2.5c0 .276-.224.5-.5.5z"/></g><g><path d="m12 19c-2.732 0-5.265-1.394-6.773-3.729-.15-.232-.083-.542.148-.691.232-.15.541-.083.691.148 1.324 2.049 3.542 3.272 5.934 3.272s4.61-1.223 5.934-3.271c.15-.231.459-.298.691-.148s.298.459.148.691c-1.508 2.334-4.041 3.728-6.773 3.728z"/></g><g><path d="m12.5 18.98c-.276 0-.5-.224-.5-.5v-3.98c0-.402-.156-.776-.439-1.052-.285-.292-.659-.448-1.061-.448-.827 0-1.5.673-1.5 1.5v3.13c0 .276-.224.5-.5.5s-.5-.224-.5-.5v-3.13c0-1.378 1.122-2.5 2.5-2.5.674 0 1.302.263 1.768.741.469.457.732 1.085.732 1.759v3.98c0 .276-.224.5-.5.5z"/></g></svg>