<?xml version="1.0" encoding="utf-8"?><!DOCTYPE svg PUBLIC "-//W3C//DTD SVG 1.1//EN" "http://www.w3.org/Graphics/SVG/1.1/DTD/svg11.dtd"><svg viewBox="0 0 512 512" xmlns="http://www.w3.org/2000/svg" xmlns:xlink="http://www.w3.org/1999/xlink"><style>:root>svg{display:none}:root>svg:target{display:block}</style><svg viewBox="0 0 448 448" id="add" xmlns="http://www.w3.org/2000/svg"><path d="M408 184H272a8 8 0 01-8-8V40c0-22.09-17.91-40-40-40s-40 17.91-40 40v136a8 8 0 01-8 8H40c-22.09 0-40 17.91-40 40s17.91 40 40 40h136a8 8 0 018 8v136c0 22.09 17.91 40 40 40s40-17.91 40-40V272a8 8 0 018-8h136c22.09 0 40-17.91 40-40s-17.91-40-40-40zm0 0"/></svg><svg viewBox="0 0 507.974 507.974" id="bottle" xmlns="http://www.w3.org/2000/svg"><path d="M350.574 142.448l-55.621-71.526V49.159h8.193a8.193 8.193 0 008.193-8.193V8.193A8.193 8.193 0 00303.146 0h-98.318a8.193 8.193 0 00-8.193 8.193v32.773a8.193 8.193 0 008.193 8.193h8.193v21.763L157.4 142.448a8.134 8.134 0 00-1.731 5.029v311.339c.029 27.138 22.021 49.13 49.159 49.159h98.318c27.138-.029 49.13-22.021 49.159-49.159v-311.34a8.14 8.14 0 00-1.731-5.028zM213.021 16.386h81.931v16.386h-81.931zm122.897 442.429c-.02 18.091-14.681 32.752-32.773 32.773h-98.318c-18.091-.02-32.752-14.681-32.773-32.773V217.374a88.452 88.452 0 0119.694 3.554c7.906 2.151 16.079 4.383 32.199 4.383s24.282-2.233 32.189-4.383a90.553 90.553 0 0127.887-3.81 90.458 90.458 0 0127.887 3.81 103.238 103.238 0 0024.006 4.168v233.719zm0-250.146a88.338 88.338 0 01-19.694-3.554c-7.906-2.151-16.079-4.383-32.199-4.383s-24.293 2.233-32.199 4.383a90.43 90.43 0 01-27.877 3.81 90.458 90.458 0 01-27.887-3.81 103.238 103.238 0 00-24.006-4.168v-50.654l55.621-71.526a8.134 8.134 0 001.731-5.029V49.159h49.159v24.579a8.134 8.134 0 001.731 5.029l55.621 71.526v58.376z"/><path d="M253.987 450.622h-57.352a8.193 8.193 0 100 16.386h57.352a8.193 8.193 0 100-16.386zM286.76 450.622h-8.193a8.193 8.193 0 100 16.386h8.193a8.193 8.193 0 100-16.386zM245.794 73.738h16.386a8.193 8.193 0 100-16.386h-16.386a8.193 8.193 0 100 16.386z"/></svg><svg viewBox="0 0 124 124" id="burger" xmlns="http://www.w3.org/2000/svg"><path d="M112 6H12C5.4 6 0 11.4 0 18s5.4 12 12 12h100c6.6 0 12-5.4 12-12s-5.4-12-12-12zM112 50H12C5.4 50 0 55.4 0 62s5.4 12 12 12h100c6.6 0 12-5.4 12-12s-5.4-12-12-12zM112 94H12c-6.6 0-12 5.4-12 12s5.4 12 12 12h100c6.6 0 12-5.4 12-12s-5.4-12-12-12z"/></svg><svg viewBox="0 0 348.333 348.334" id="delete" xmlns="http://www.w3.org/2000/svg"><path d="M336.559 68.611L231.016 174.165l105.543 105.549c15.699 15.705 15.699 41.145 0 56.85-7.844 7.844-18.128 11.769-28.407 11.769-10.296 0-20.581-3.919-28.419-11.769L174.167 231.003 68.609 336.563c-7.843 7.844-18.128 11.769-28.416 11.769-10.285 0-20.563-3.919-28.413-11.769-15.699-15.698-15.699-41.139 0-56.85l105.54-105.549L11.774 68.611c-15.699-15.699-15.699-41.145 0-56.844 15.696-15.687 41.127-15.687 56.829 0l105.563 105.554L279.721 11.767c15.705-15.687 41.139-15.687 56.832 0 15.705 15.699 15.705 41.145.006 56.844z"/></svg><svg viewBox="0 0 512 512" id="delivery" xmlns="http://www.w3.org/2000/svg"><g data-name="02-car"><g data-name="linear color"><path d="M484.973 287.049l-93.5-40.877-55.953-68.861A35.824 35.824 0 00307.58 164H83.78a43.76 43.76 0 00-39.353 24.323L8.642 259.884A44.279 44.279 0 004 279.55V376a36.04 36.04 0 0036 36h13.207a60.006 60.006 0 00117.586 0h186.415a60 60 0 00117.606-.12A36.041 36.041 0 00508 376v-55.37a36.168 36.168 0 00-23.027-33.581zm-168.086-94.611L358.786 244H268v-56h39.58a11.927 11.927 0 019.307 4.438zM196 188v56H94.08l26.909-56zM65.893 199.057A19.891 19.891 0 0183.78 188h10.582l-26.909 56H43.418zM112 436a36 36 0 1136-36 36.04 36.04 0 01-36 36zm304 0a36 36 0 1136-36 36.04 36.04 0 01-36 36zm68-60a12.013 12.013 0 01-9.278 11.677 60 60 0 00-117.514.323H170.793a60.006 60.006 0 00-117.586 0H40a12.013 12.013 0 01-12-12v-96.45a20.147 20.147 0 012.113-8.943l1.3-2.607H208a12 12 0 0012-12v-68h24v68a12 12 0 0012 12h125.491l94.132 41.155q.294.129.594.241A12.053 12.053 0 01484 320.63z"/><circle cx="112" cy="400" r="12"/><circle cx="416" cy="400" r="12"/><path d="M272 292h-15a12 12 0 000 24h15a12 12 0 000-24zM128 292h-24a12 12 0 000 24h24a12 12 0 000-24z"/></g></g></svg><svg viewBox="0 0 512 512" id="pizza" xmlns="http://www.w3.org/2000/svg"><path d="M462.302 245.151c-12.958-37.266-31.816-72.044-56.051-103.367-3.381-4.369-9.662-5.169-14.028-1.79-4.368 3.38-5.17 9.66-1.79 14.028 47.146 60.937 72.067 134.001 72.067 211.294 0 11.522-9.359 20.897-20.864 20.897-8.591 0-15.981-5.23-19.175-12.676-.02-.042-.037-.085-.057-.126a20.81 20.81 0 01-1.631-8.095c0-100.24-49.407-193.936-132.164-250.635a10 10 0 00-15.652 8.25v9.581c0 9.35-7.594 16.957-16.928 16.957s-16.928-7.606-16.928-16.957v-30.67c0-5.523-4.478-10-10-10s-10 4.477-10 10v73.614c0 9.334-7.581 16.929-16.9 16.929-9.334 0-16.928-7.594-16.928-16.929V77.492a10 10 0 00-8.031-9.804c-19.473-3.911-39.551-5.894-59.676-5.894-2.863 0-5.592-.582-8.078-1.632-.044-.021-.089-.04-.133-.06-7.432-3.2-12.652-10.602-12.652-19.205 0-11.522 9.359-20.897 20.863-20.897 77.397 0 150.521 25.06 211.464 72.471 4.358 3.391 10.643 2.607 14.033-1.753 3.392-4.359 2.606-10.642-1.752-14.033-31.322-24.367-66.12-43.331-103.426-56.365C199.293 6.837 158.812 0 117.566 0 95.033 0 76.702 18.346 76.702 40.897c0 13.804 6.876 26.024 17.373 33.434L29.65 441.739a10.002 10.002 0 002.78 8.8 9.993 9.993 0 008.803 2.775l52.819-9.294c3.128-.544 5.542-.336 6.624.574.962.809 1.99 3.193 1.99 7.461v16.837c0 19.565 15.893 35.483 35.428 35.483 19.534 0 35.427-15.917 35.427-35.483v-27.879c-.002-3.745-.003-7.617.888-9.249.712-1.303 3.548-2.479 7.771-3.223l30.901-5.416c3.123-.55 5.532-.347 6.609.557.96.806 1.985 3.187 1.985 7.453v45.382c0 19.565 15.893 35.483 35.428 35.483 19.534 0 35.427-15.917 35.427-35.483v-56.424c-.002-3.745-.003-7.617.888-9.249.712-1.304 3.548-2.479 7.774-3.224l107.034-18.799c7.403 10.508 19.614 17.391 33.408 17.391 22.532 0 40.864-18.346 40.864-40.897.002-41.189-6.794-81.618-20.196-120.164zM86.966 230.669a43.875 43.875 0 0113.869 9.395c17.186 17.204 17.186 45.197 0 62.4-7.734 7.743-18.001 12.228-28.707 12.825zm210.763 157.255c-25.209 4.441-25.202 21.804-25.197 32.178v56.416c0 8.537-6.921 15.483-15.427 15.483-8.507 0-15.428-6.946-15.428-15.483v-45.382c0-12.49-4.964-19.278-9.129-22.773-4.033-3.384-11.283-6.986-22.928-4.935l-30.901 5.416c-25.209 4.441-25.202 21.804-25.197 32.178v27.871c0 8.537-6.921 15.483-15.427 15.483-8.507 0-15.428-6.946-15.428-15.483v-16.837c0-12.481-4.959-19.271-9.118-22.769-4.029-3.388-11.272-7-22.945-4.966l-38.791 6.826 16.798-95.799c.356.006.712.023 1.067.023 16.84 0 33.205-6.656 45.308-18.771 24.97-24.997 24.97-65.671-.001-90.669-6.979-6.986-15.323-12.181-24.501-15.317l22.632-129.066c1.463.159 2.946.247 4.451.247 16.049 0 32.059 1.348 47.707 4.013v89.648c0 20.363 16.565 36.929 36.928 36.929 20.347 0 36.9-16.566 36.9-36.929v-10.104a36.68 36.68 0 0016.928 4.117c17.164 0 31.631-11.78 35.752-27.686a283.791 283.791 0 01100.448 154.42 66.46 66.46 0 00-17.389-2.311c-36.568 0-66.319 29.778-66.319 66.38 0 8.646 1.646 17.067 4.82 24.911zm35.969-6.318c-3.396-6.548-5.178-13.816-5.178-21.336 0-25.574 20.778-46.38 46.319-46.38a46.226 46.226 0 0122.218 5.665 283.846 283.846 0 013.714 45.76c0 1.51.088 2.999.248 4.466z"/><path d="M316.818 208.61c-7.422-7.43-17.291-11.521-27.788-11.521s-20.366 4.092-27.788 11.521c-15.313 15.331-15.313 40.275 0 55.605 7.422 7.43 17.291 11.521 27.788 11.521s20.366-4.092 27.788-11.521c15.314-15.33 15.314-40.274 0-55.605zm-14.15 41.471c-3.644 3.647-8.486 5.656-13.638 5.656s-9.994-2.009-13.638-5.656c-7.528-7.536-7.528-19.799 0-27.335 3.644-3.647 8.486-5.656 13.638-5.656s9.994 2.009 13.638 5.656c7.528 7.536 7.528 19.798 0 27.335zM192.035 272.165a9.968 9.968 0 007.084-2.942l10.901-10.941c3.898-3.913 3.887-10.244-.026-14.142-3.911-3.897-10.244-3.887-14.142.026l-10.901 10.941c-3.898 3.913-3.887 10.244.026 14.142a9.971 9.971 0 007.058 2.916zM98.255 366.966c-5.522 0-10 4.477-10 10v15.477c0 5.523 4.478 10 10 10s10-4.477 10-10v-15.477c0-5.523-4.478-10-10-10zM130.591 157.008c-5.522 0-10 4.477-10 10v15.477c0 5.523 4.478 10 10 10s10-4.477 10-10v-15.477c0-5.523-4.478-10-10-10zM208.284 318.054c-6.983-6.991-16.27-10.841-26.146-10.841s-19.161 3.851-26.145 10.841c-14.408 14.424-14.408 37.893 0 52.316 6.983 6.991 16.269 10.841 26.145 10.841h.001c9.876 0 19.162-3.85 26.146-10.841 14.408-14.423 14.408-37.892-.001-52.316.001 0 .001 0 0 0zm-14.148 38.182c-3.206 3.209-7.467 4.976-11.997 4.976s-8.79-1.767-11.995-4.976c-6.623-6.63-6.623-17.417 0-24.047 3.205-3.208 7.465-4.976 11.995-4.976s8.791 1.767 11.996 4.976c6.623 6.63 6.623 17.417.001 24.047zM269.673 324.914c-3.903-3.907-10.235-3.911-14.143-.007-3.907 3.903-3.91 10.235-.008 14.142l10.93 10.941a9.97 9.97 0 007.075 2.933 9.967 9.967 0 007.067-2.925c3.907-3.903 3.91-10.235.008-14.142zM361.511 121.157a9.937 9.937 0 007.051 2.922 9.98 9.98 0 007.077-2.936c3.905-3.905 3.892-10.251-.014-14.157-3.906-3.905-10.236-3.905-14.143 0-3.905 3.905-3.905 10.237 0 14.143z"/></svg><svg viewBox="0 0 512 512" id="sauce" xmlns="http://www.w3.org/2000/svg"><path d="M512 133.05c0-5.577-4.522-10.1-10.1-10.1H10.1c-5.578 0-10.1 4.523-10.1 10.1 0 68.38 26.628 132.669 74.98 181.021 23.657 23.657 51.135 42.098 81.035 54.779H85.64c-5.578 0-10.1 4.523-10.1 10.1s4.522 10.1 10.1 10.1h340.72c5.578 0 10.1-4.523 10.1-10.1s-4.522-10.1-10.1-10.1h-70.375c29.9-12.682 57.377-31.123 81.035-54.779C485.372 265.719 512 201.431 512 133.05zM71.843 143.151h113.93v72.238c0 8.155-3.174 15.814-8.945 21.577-5.753 5.762-13.413 8.936-21.568 8.936-16.825 0-30.513-13.688-30.513-30.513v-20.858c0-5.578-4.522-10.1-10.1-10.1s-10.1 4.523-10.1 10.1c0 4.369-1.701 8.477-4.789 11.565s-7.194 4.788-11.564 4.788c-9.016 0-16.352-7.336-16.352-16.352v-51.381zM256 368.85c-126.64 0-230.282-100.342-235.586-225.7h31.229v51.38c0 20.155 16.398 36.553 36.553 36.553 6.255 0 12.269-1.56 17.599-4.495 5.113 22.593 25.351 39.512 49.467 39.512 13.555 0 26.292-5.278 35.852-14.851 9.584-9.57 14.861-22.305 14.861-35.862v-72.238h285.612C486.282 268.51 382.64 368.85 256 368.85z"/><path d="M406.379 168.439h-69.082c-5.578 0-10.1 4.523-10.1 10.1s4.522 10.1 10.1 10.1h69.081c5.578 0 10.1-4.523 10.1-10.1s-4.521-10.1-10.099-10.1zM437.016 167.82c-12.998 0-13.019 20.2 0 20.2 12.998 0 13.019-20.2 0-20.2z"/></svg><svg viewBox="0 0 24 24" id="yummy" xmlns="http://www.w3.org/2000/svg"><path d="M12 24C5.383 24 0 18.617 0 12S5.383 0 12 0s12 5.383 12 12-5.383 12-12 12zm0-23C5.935 1 1 5.935 1 12s4.935 11 11 11 11-4.935 11-11S18.065 1 12 1z"/><path d="M9.5 10a.5.5 0 01-.5-.5C9 8.673 8.327 8 7.5 8S6 8.673 6 9.5a.5.5 0 01-1 0C5 8.122 6.122 7 7.5 7S10 8.122 10 9.5a.5.5 0 01-.5.5zM18.5 10a.5.5 0 01-.5-.5c0-.827-.673-1.5-1.5-1.5S15 8.673 15 9.5a.5.5 0 01-1 0C14 8.122 15.122 7 16.5 7S19 8.122 19 9.5a.5.5 0 01-.5.5zM12 19c-2.732 0-5.265-1.394-6.773-3.729a.5.5 0 01.839-.543C7.39 16.777 9.608 18 12 18s4.61-1.223 5.934-3.271a.5.5 0 01.839.543C17.265 17.606 14.732 19 12 19z"/><path d="M12.5 18.98a.5.5 0 01-.5-.5V14.5c0-.402-.156-.776-.439-1.052A1.465 1.465 0 0010.5 13c-.827 0-1.5.673-1.5 1.5v3.13a.5.5 0 01-1 0V14.5c0-1.378 1.122-2.5 2.5-2.5.674 0 1.302.263 1.768.741A2.44 2.44 0 0113 14.5v3.98a.5.5 0 01-.5.5z"/></svg></svg>